<?xml version="1.0" standalone="no"?>
<!DOCTYPE svg PUBLIC "-//W3C//DTD SVG 1.1//EN" "http://www.w3.org/Graphics/SVG/1.1/DTD/svg11.dtd" >
<svg xmlns="http://www.w3.org/2000/svg" xmlns:xlink="http://www.w3.org/1999/xlink" version="1.1">
<metadata></metadata>
<defs>
<font id="kanitlight" horiz-adv-x="0" >
<font-face units-per-em="2048" ascent="1638" descent="-410" />
<missing-glyph horiz-adv-x="471" />
<glyph unicode="fi" horiz-adv-x="1052" d="M61 838v133h146v112q0 145 101.5 237.5t262.5 92.5q137 0 220 -31v-127q-31 10 -79 16.5t-98 6.5q-240 0 -239 -195v-112h534v-971h-168v838h-366v-838h-168v838h-146z" />
<glyph unicode="fl" horiz-adv-x="1052" d="M61 838v133h146v112q0 145 101.5 237.5t262.5 92.5q137 0 220 -31h118v-1382h-168v838h-366v-838h-168v838h-146zM375 971h366v286q-31 10 -59.5 15.5t-67.5 5.5q-240 0 -239 -195v-112z" />
<glyph unicode="&#xe24;&#xe45;" horiz-adv-x="1792" d="M127 741v197q78 72 208 130t306 58q182 0 295 -57q61 25 144 41t167 16q211 0 306.5 -93t95.5 -300v-1061h-168v1043q0 92 -18.5 151.5t-75 88t-170.5 28.5q-74 0 -160 -18q70 -98 69 -260v-1033h-168v1039q0 154 -71.5 213t-245.5 59q-115 0 -214 -31.5t-153 -85.5v-43 l240 -57v-127q-78 -20 -116 -64.5t-38 -130.5v-206q0 -100 97 -101h116v-137h-192q-88 0 -138 54.5t-50 142.5v252q0 84 38.5 148.5t126.5 90.5z" />
<glyph unicode="&#xe26;&#xe45;" horiz-adv-x="1863" d="M117 0v137h82q88 0 88 99v213q0 84 28.5 147t114.5 92l-244 53v197q78 72 208 130t306 58q190 0 306 -61v4q61 25 145 41t168 16q211 0 306 -93t95 -300v-1061h-168v1043q0 92 -18 151.5t-74.5 88t-171.5 28.5q-80 0 -170 -20q68 -98 68 -258v-1033h-168v1039 q0 154 -72 213t-246 59q-115 0 -214 -31.5t-152 -85.5v-43l252 -57v-127q-76 -23 -103.5 -63.5t-27.5 -131.5v-219q0 -225 -211 -225h-127z" />
<glyph unicode="&#xd;" horiz-adv-x="471" />
<glyph unicode=" "  horiz-adv-x="471" />
<glyph unicode="&#x09;" horiz-adv-x="471" />
<glyph unicode="&#xa0;" horiz-adv-x="471" />
<glyph unicode="!" horiz-adv-x="389" d="M102 0v133h185v-133h-185zM111 997v322h168v-322l-13 -682h-143z" />
<glyph unicode="&#x22;" horiz-adv-x="657" d="M102 956v363h152l-27 -363h-125zM403 956v363h152l-27 -363h-125z" />
<glyph unicode="#" horiz-adv-x="1433" d="M102 369v116h222l108 346h-233v119h270l117 369h147l-117 -369h385l117 369h150l-117 -369h180v-119h-217l-110 -346h231v-116h-268l-115 -369h-147l114 369h-387l-115 -369h-145l115 369h-185zM469 485h387l109 346h-385z" />
<glyph unicode="$" horiz-adv-x="1138" d="M102 977q0 152 99.5 247t304.5 111v160h131v-158q100 -2 185 -17t134 -32v-147q-70 25 -151.5 39t-167.5 16v-467q154 -39 241 -93t122.5 -127t35.5 -165q0 -156 -100 -248t-299 -110v-162h-131v156q-231 4 -373 61v149q84 -33 178.5 -50t194.5 -17v485q-8 0 -10 2 q-217 53 -305.5 138.5t-88.5 228.5zM270 977q0 -86 51.5 -131t184.5 -84v428q-115 -14 -175.5 -65.5t-60.5 -147.5zM637 129q115 14 173 63.5t58 151.5q0 92 -52 141.5t-179 87.5v-444z" />
<glyph unicode="%" horiz-adv-x="1460" d="M102 1030q0 143 70 226t213 83q141 0 211 -82.5t70 -226.5q0 -125 -70 -203.5t-211 -78.5q-143 0 -213 78.5t-70 203.5zM221 1032q0 -82 38 -127t126 -45q90 0 127 45t37 127q0 102 -39 147.5t-125 45.5t-125 -45t-39 -148zM299 0l700 1319h158l-700 -1319h-158zM795 262 q0 143 69.5 226t212.5 83q141 0 211 -82.5t70 -226.5q0 -125 -70 -203.5t-211 -78.5q-143 0 -212.5 78.5t-69.5 203.5zM913 264q0 -82 38 -127t126 -45q90 0 127 45t37 127q0 102 -39 147.5t-125 45.5t-125 -45t-39 -148z" />
<glyph unicode="&#x26;" horiz-adv-x="1351" d="M102 311q0 139 86 239.5t236 178.5q-80 80 -135.5 149.5t-55.5 168.5q0 123 85 207.5t241 84.5q152 0 236 -79.5t84 -212.5q0 -111 -59.5 -187t-170.5 -153l340 -347q35 76 35 193v29h133v-29q0 -80 -18.5 -155.5t-53.5 -131.5l185 -186l-103 -92l-163 162 q-72 -88 -186.5 -129t-264.5 -41q-205 0 -328 90t-123 241zM264 315q0 -106 82 -160.5t207 -54.5q119 0 204 36t144 108l-375 383q-133 -61 -197.5 -132t-64.5 -180zM373 1040q0 -66 46 -121t126 -131q96 59 145 113.5t49 138.5q0 78 -42 124t-138 46q-98 0 -142 -49 t-44 -121z" />
<glyph unicode="'" horiz-adv-x="356" d="M102 956v363h152l-27 -363h-125z" />
<glyph unicode="(" horiz-adv-x="634" d="M102 621q0 135 27 278t88.5 271t165.5 219h190q-162 -137 -232.5 -334t-70.5 -434q0 -240 71 -434.5t232 -333.5h-190q-104 90 -165.5 217t-88.5 271t-27 280z" />
<glyph unicode=")" horiz-adv-x="634" d="M61 -147q164 139 234 333.5t70 434.5q0 238 -70 434t-234 334h193q104 -90 165.5 -218.5t87 -271.5t25.5 -278t-25.5 -279.5t-87 -271.5t-165.5 -217h-193z" />
<glyph unicode="*" horiz-adv-x="876" d="M102 1073l54 111l225 -109l-8 244h133l-8 -244l223 109l53 -111l-248 -100l191 -211l-103 -76l-176 229l-176 -229l-102 76l188 211z" />
<glyph unicode="+" horiz-adv-x="976" d="M102 483v133h318v316h137v-316h317v-133h-317v-303h-137v303h-318z" />
<glyph unicode="," horiz-adv-x="413" d="M102 -246l58 363h151l-86 -363h-123z" />
<glyph unicode="-" horiz-adv-x="976" d="M102 483v133h772v-133h-772z" />
<glyph unicode="." horiz-adv-x="356" d="M102 0v141h152v-141h-152z" />
<glyph unicode="/" horiz-adv-x="854" d="M102 0l480 1356h170l-480 -1356h-170z" />
<glyph unicode="0" horiz-adv-x="1325" d="M102 643q0 221 53.5 377t176.5 237.5t332 81.5q207 0 329.5 -81.5t176 -237.5t53.5 -377q0 -205 -56.5 -354.5t-179 -229t-323.5 -79.5q-199 0 -323 79.5t-181.5 229t-57.5 354.5zM270 643q0 -156 38 -273.5t125.5 -182t230.5 -64.5q145 0 230 64.5t123 182t38 273.5 q0 268 -85 410.5t-306 142.5q-147 0 -233.5 -63.5t-123.5 -187.5t-37 -302z" />
<glyph unicode="1" horiz-adv-x="622" d="M102 1139v141l377 59v-1339h-168v1176z" />
<glyph unicode="2" horiz-adv-x="1036" d="M102 0v90q53 129 151.5 235.5t211.5 200.5t175 159t87 125t25 142q0 119 -61.5 181.5t-229.5 62.5q-76 0 -156 -15.5t-151 -43.5v149q66 23 157.5 38t175.5 15q213 0 323 -103t110 -284q0 -98 -35 -172.5t-96.5 -141.5t-143.5 -140q-100 -88 -191.5 -173t-144.5 -194h625 v-131h-832z" />
<glyph unicode="3" horiz-adv-x="1052" d="M102 35v147q78 -31 162 -45t172 -14q176 0 261 53t85 186q0 127 -79.5 184.5t-223.5 57.5h-190l16 127h158q147 0 219 64.5t72 181.5q0 113 -75 166t-239 53q-82 0 -164.5 -16.5t-148.5 -42.5v145q57 23 150.5 40t185.5 17q236 0 347.5 -101t111.5 -259 q0 -100 -52.5 -187t-167.5 -122q131 -29 189.5 -114t58.5 -194q0 -193 -133 -287.5t-360 -94.5q-90 0 -192.5 16t-162.5 39z" />
<glyph unicode="4" horiz-adv-x="1107" d="M61 303v127l697 889h149v-879h140v-137h-140v-303h-168v303h-678zM229 436h533v682z" />
<glyph unicode="5" horiz-adv-x="1048" d="M102 655v117l35 547h715l-16 -131h-557l-27 -400h248q231 0 338.5 -98t107.5 -297q0 -193 -123.5 -303t-363.5 -110q-90 0 -188.5 14t-161.5 41v149q152 -61 331 -61q176 0 257 65.5t81 204.5q0 131 -60.5 196.5t-234.5 65.5h-381z" />
<glyph unicode="6" horiz-adv-x="1165" d="M102 481v312q0 164 64.5 286.5t184.5 191t284 68.5q96 0 170 -11t133 -32v-145q-59 23 -132 34t-163 11q-199 0 -290 -101.5t-91 -271.5v-100q80 59 177.5 87t176.5 28q225 0 336 -110t111 -316q0 -193 -117.5 -312.5t-361.5 -119.5q-236 0 -359 119.5t-123 381.5z M262 434q0 -321 322 -321q164 0 245.5 78.5t81.5 216.5q0 94 -26.5 160.5t-94 102.5t-188.5 36q-100 0 -186 -32t-154 -81v-160z" />
<glyph unicode="7" horiz-adv-x="1019" d="M82 1188v131h856v-117l-508 -1202h-170l502 1188h-680z" />
<glyph unicode="8" horiz-adv-x="1196" d="M102 348q0 119 64.5 209t189.5 125q-115 37 -166 116t-51 173q0 168 115 268t344 100q238 0 348.5 -100t110.5 -268q0 -98 -50.5 -182t-177.5 -127q139 -35 202 -113t63 -201q0 -182 -126 -275t-370 -93q-242 0 -369 93t-127 275zM254 352q0 -123 88 -181t256 -58 q344 0 344 237q0 109 -64.5 159t-185.5 75l-178 37q-119 -25 -189.5 -85.5t-70.5 -183.5zM291 971q0 -88 55 -146.5t154 -79.5l155 -30q127 31 188.5 87t61.5 167q0 117 -78.5 177t-228.5 60q-147 0 -227 -58t-80 -177z" />
<glyph unicode="9" horiz-adv-x="1165" d="M102 907q0 195 119 313.5t361 118.5q238 0 359.5 -119.5t121.5 -381.5v-312q0 -164 -64.5 -286.5t-184.5 -191t-284 -68.5q-94 0 -168.5 11t-134.5 32v145q59 -20 132 -32.5t163 -12.5q201 0 291 102.5t90 270.5v100q-80 -57 -177 -86t-177 -29q-225 0 -336 110.5 t-111 315.5zM254 911q0 -92 26.5 -159.5t94 -103.5t188.5 -36q100 0 186.5 32t153.5 81v160q0 322 -321 321q-164 0 -246 -78.5t-82 -216.5z" />
<glyph unicode=":" horiz-adv-x="354" d="M102 57v142h150v-142h-150zM102 674v141h150v-141h-150z" />
<glyph unicode=";" horiz-adv-x="413" d="M102 -211l58 363h151l-86 -363h-123zM164 674v141h147v-141h-147z" />
<glyph unicode="&#x3c;" horiz-adv-x="1120" d="M102 537v137l916 422v-158l-739 -332l739 -334v-157z" />
<glyph unicode="=" horiz-adv-x="987" d="M102 344v123h783v-123h-783zM102 637v121h783v-121h-783z" />
<glyph unicode="&#x3e;" horiz-adv-x="1120" d="M102 115v157l742 334l-742 332v158l916 -422v-137z" />
<glyph unicode="?" horiz-adv-x="1009" d="M102 1122v144q66 35 161 54t206 19q219 0 328.5 -97t109.5 -269q0 -113 -56 -183.5t-149 -148.5q-59 -49 -103 -88t-67.5 -83t-23.5 -114v-39h-168v48q0 92 41 157.5t101.5 115.5t117.5 99t98 103.5t41 130.5q0 119 -66.5 172t-242.5 53q-90 0 -176 -20.5t-152 -53.5z M332 0v133h184v-133h-184z" />
<glyph unicode="@" horiz-adv-x="1572" d="M102 385q0 358 189.5 524t533.5 166q319 0 482 -143.5t163 -415.5q0 -197 -87 -317.5t-275 -120.5h-35q-55 -55 -135 -87t-195 -32q-137 0 -221 69.5t-84 188.5q0 74 31 137.5t98.5 102.5t180.5 39h260v41q0 72 -18.5 110.5t-65.5 54t-136 15.5q-61 0 -126.5 -10.5 t-124.5 -30.5v110q53 23 127.5 34t154.5 11q160 0 238 -70.5t78 -221.5v-340q106 0 150 78.5t44 238.5q0 219 -119.5 321.5t-384.5 102.5q-293 0 -437 -126t-144 -431q0 -205 72.5 -317.5t197.5 -156.5t283 -44q225 0 354 39v-137q-63 -14 -153.5 -25.5t-196.5 -11.5 q-147 0 -274.5 33.5t-222.5 110.5t-148.5 202t-53.5 309zM569 215q0 -78 46.5 -111.5t142.5 -33.5q170 0 250 104v209h-240q-119 0 -159 -45t-40 -123z" />
<glyph unicode="A" horiz-adv-x="1402" d="M102 0l502 1319h197l499 -1319h-172l-139 362h-573l-140 -362h-174zM444 496h514l-258 678z" />
<glyph unicode="B" horiz-adv-x="1284" d="M143 0v1319h611q195 0 285.5 -91t90.5 -257q0 -109 -44 -181.5t-121 -109.5q100 -25 158.5 -95.5t58.5 -207.5q0 -193 -100.5 -285t-295.5 -92h-643zM311 127h447q133 0 194.5 58.5t61.5 197.5q0 115 -60.5 173t-222.5 58h-420v-487zM311 741h432q125 0 177.5 60.5 t52.5 156.5q0 115 -53.5 173.5t-206.5 58.5h-402v-449z" />
<glyph unicode="C" horiz-adv-x="1218" d="M102 631q0 215 65.5 374.5t205 246.5t360.5 87q115 0 208 -16t175 -45v-148q-82 31 -174 48.5t-194 17.5q-178 0 -283 -67.5t-150 -194.5t-45 -303q0 -244 116 -376t366 -132q92 0 187 14.5t177 44.5v-149q-80 -25 -173 -39t-208 -14q-213 0 -353 80.5t-210 227 t-70 343.5z" />
<glyph unicode="D" horiz-adv-x="1314" d="M143 0v1319h516q287 0 420 -155.5t133 -512.5q0 -338 -130 -494.5t-423 -156.5h-516zM311 131h318q139 0 231 42t138 154.5t46 323.5q0 209 -41.5 326t-133 163t-240.5 46h-318v-1055z" />
<glyph unicode="E" horiz-adv-x="1136" d="M143 0v1319h891v-133h-723v-461h650v-131h-650v-463h723v-131h-891z" />
<glyph unicode="F" horiz-adv-x="1069" d="M143 0v1319h865v-133h-697v-461h621v-131h-621v-594h-168z" />
<glyph unicode="G" horiz-adv-x="1308" d="M102 631q0 215 65.5 374.5t205 246.5t360.5 87q115 0 208 -16t175 -45v-148q-82 31 -174 48.5t-194 17.5q-178 0 -283 -67.5t-150 -194.5t-45 -303q0 -244 113 -376t362 -132q88 0 170 14.5t146 38.5v420h-352v115h497v-627q-59 -39 -173 -71.5t-298 -32.5 q-213 0 -353 80.5t-210 227t-70 343.5z" />
<glyph unicode="H" horiz-adv-x="1318" d="M143 0v1319h168v-594h697v594h168v-1319h-168v594h-697v-594h-168z" />
<glyph unicode="I" horiz-adv-x="454" d="M143 0v1319h168v-1319h-168z" />
<glyph unicode="J" horiz-adv-x="874" d="M61 27v143q49 -20 119 -34.5t137 -14.5q145 0 200.5 61.5t55.5 192.5v944h168v-957q0 -180 -99 -281t-304 -101q-82 0 -152.5 13t-124.5 34z" />
<glyph unicode="K" horiz-adv-x="1243" d="M143 0v1319h168v-653l617 653h196l-491 -528l508 -791h-180l-435 682l-215 -227v-455h-168z" />
<glyph unicode="L" horiz-adv-x="1075" d="M143 0v1319h168v-1188h703v-131h-871z" />
<glyph unicode="M" horiz-adv-x="1540" d="M143 0v1319h181l446 -916l447 916h180v-1319h-166v1057l-404 -828h-112l-406 828v-1057h-166z" />
<glyph unicode="N" horiz-adv-x="1357" d="M143 0v1319h152l752 -1061v1061h167v-1319h-153l-750 1059v-1059h-168z" />
<glyph unicode="O" horiz-adv-x="1421" d="M102 659q0 354 149.5 517t459.5 163q311 0 459.5 -162.5t148.5 -517.5q0 -354 -148.5 -516.5t-459.5 -162.5q-309 0 -459 162.5t-150 516.5zM270 659q0 -199 48.5 -316.5t145.5 -168.5t247 -51t247 51t145 169t48 316q0 199 -48 317t-145.5 169t-246.5 51 q-150 0 -247 -51t-145.5 -169t-48.5 -317z" />
<glyph unicode="P" horiz-adv-x="1191" d="M143 0v1319h557q221 0 325.5 -119t104.5 -307q0 -193 -117.5 -304.5t-320.5 -111.5h-381v-477h-168zM311 608h355q147 0 222 77t75 208q0 139 -71 216t-216 77h-365v-578z" />
<glyph unicode="Q" horiz-adv-x="1421" d="M102 659q0 354 149.5 517t459.5 163q311 0 459.5 -162.5t148.5 -517.5q0 -334 -131 -496.5t-404 -180.5q2 -106 34 -148.5t118 -42.5q74 0 145 21v-142q-33 -8 -82 -15t-96 -7q-145 0 -211.5 89t-70.5 247q-262 23 -390.5 185.5t-128.5 489.5zM270 659 q0 -199 48.5 -316.5t145.5 -168.5t247 -51t247 51t145 169t48 316q0 199 -48 317t-145.5 169t-246.5 51q-150 0 -247 -51t-145.5 -169t-48.5 -317z" />
<glyph unicode="R" horiz-adv-x="1232" d="M143 0v1319h580q213 0 310 -110.5t97 -299.5q0 -145 -70.5 -241.5t-209.5 -128.5q41 -25 62.5 -56.5t43.5 -85.5l172 -397h-172l-168 383q-27 61 -64.5 88t-133.5 27h-279v-498h-168zM311 629h365q133 0 210 66.5t77 213.5q0 276 -265 277h-387v-557z" />
<glyph unicode="S" horiz-adv-x="1138" d="M102 977q0 168 121 265t369 97q115 0 213 -16t151 -35v-147q-74 27 -159.5 41t-178.5 14q-168 0 -258 -49t-90 -170q0 -68 32 -110t107.5 -71.5t211.5 -62.5q162 -39 252 -93t126.5 -128t36.5 -168q0 -174 -127 -269t-379 -95q-246 0 -397 61v149q86 -33 183.5 -50 t199.5 -17q176 0 264 48t88 173q0 78 -35.5 124t-117.5 78t-219 64q-217 53 -305.5 138.5t-88.5 228.5z" />
<glyph unicode="T" horiz-adv-x="1167" d="M61 1186v133h1045v-133h-438v-1186h-168v1186h-439z" />
<glyph unicode="U" horiz-adv-x="1374" d="M133 483v836h168v-838q0 -180 101.5 -269t285.5 -89q182 0 283.5 89t101.5 269v838h168v-836q0 -246 -142.5 -374.5t-410.5 -128.5q-270 0 -412.5 129t-142.5 374z" />
<glyph unicode="V" horiz-adv-x="1402" d="M102 1319h174l424 -1149l426 1149h174l-499 -1319h-197z" />
<glyph unicode="W" horiz-adv-x="1763" d="M102 1319h166l248 -1086l285 941v145h137l307 -1086l252 1086h164l-305 -1319h-178l-287 1004l-301 -1004h-180z" />
<glyph unicode="X" horiz-adv-x="1335" d="M102 0l465 655l-458 664h192l367 -539l366 539h193l-459 -664l465 -655h-195l-370 526l-371 -526h-195z" />
<glyph unicode="Y" horiz-adv-x="1314" d="M102 1319h174l381 -684l381 684h174l-471 -827v-492h-168v492z" />
<glyph unicode="Z" horiz-adv-x="1171" d="M102 0v94l754 1092h-719v133h932v-105l-747 -1083h757v-131h-977z" />
<glyph unicode="[" horiz-adv-x="704" d="M102 -203v1649h514l7 -133h-353v-1385h353l-7 -131h-514z" />
<glyph unicode="\" horiz-adv-x="892" d="M102 1356h172l517 -1467h-170z" />
<glyph unicode="]" horiz-adv-x="704" d="M82 -72h352v1385h-352l6 133h514v-1649h-514z" />
<glyph unicode="^" horiz-adv-x="940" d="M102 803l301 475h129l306 -475h-158l-209 352l-209 -352h-160z" />
<glyph unicode="_" horiz-adv-x="1124" d="M102 0h920v-131h-920v131z" />
<glyph unicode="`" horiz-adv-x="501" d="M102 1413h152l145 -344h-135z" />
<glyph unicode="a" horiz-adv-x="1107" d="M102 272q0 133 88.5 218t286.5 85h338v60q0 80 -21.5 127t-81 67.5t-173.5 20.5q-88 0 -170 -14.5t-154 -38.5v139q66 25 155 40t191 15q207 0 310.5 -84t103.5 -272v-635h-141l-13 111q-63 -66 -153.5 -98.5t-223.5 -32.5q-92 0 -169.5 32.5t-125 97t-47.5 162.5z M268 272q0 -88 59.5 -121.5t159.5 -33.5q106 0 188.5 38t139.5 103v188h-334q-115 0 -164 -43t-49 -131z" />
<glyph unicode="b" horiz-adv-x="1177" d="M143 0v1380h168v-481q133 92 324 92q207 0 323.5 -117.5t116.5 -379.5q0 -264 -116.5 -389t-321.5 -125q-109 0 -189.5 29.5t-148.5 92.5l-12 -102h-144zM311 231q55 -59 127 -87.5t156 -28.5q170 0 241.5 94t71.5 285q0 199 -76.5 280.5t-240.5 81.5q-88 0 -158 -25.5 t-121 -70.5v-529z" />
<glyph unicode="c" horiz-adv-x="946" d="M102 485q0 256 139.5 381t374.5 125q96 0 160 -13t123 -42v-133q-111 53 -252 53q-180 0 -278.5 -85t-98.5 -286q0 -193 86 -281.5t285 -88.5q141 0 260 53v-135q-63 -27 -136 -40t-163 -13q-254 0 -377 132t-123 373z" />
<glyph unicode="d" horiz-adv-x="1177" d="M102 471q0 262 122 391t327 129q182 0 315 -92v481h168v-1380h-143l-12 102q-68 -63 -148.5 -92.5t-189.5 -29.5q-205 0 -322 113.5t-117 377.5zM270 471q0 -190 72 -273t242 -83q84 0 155.5 28.5t126.5 87.5v529q-51 45 -120.5 70.5t-157.5 25.5q-162 0 -240 -93 t-78 -292z" />
<glyph unicode="e" horiz-adv-x="1091" d="M102 489q0 233 112 367.5t353 134.5q143 0 236.5 -52t139.5 -143t46 -206v-182h-719q8 -111 48 -174.5t121 -91t214 -27.5q150 0 275 51v-131q-63 -27 -142 -41t-165 -14q-260 0 -389.5 124.5t-129.5 384.5zM270 528h570v80q0 119 -62.5 183.5t-206.5 64.5 q-174 0 -237.5 -82t-63.5 -246z" />
<glyph unicode="f" horiz-adv-x="724" d="M61 838v133h146v141q0 139 76.5 220t226.5 81q53 0 97 -8t81 -23v-127q-63 23 -135 23q-104 0 -141 -38t-37 -128v-141h262l-8 -133h-254v-838h-168v838h-146z" />
<glyph unicode="g" horiz-adv-x="1120" d="M102 643q0 182 105.5 265t322.5 83q45 0 93.5 -7t74.5 -13h351l-7 -115h-176q47 -39 67.5 -93t20.5 -120q0 -162 -94 -251t-289 -89q-33 0 -58.5 3l-59.5 7q-63 -2 -118.5 -35.5t-55.5 -87.5q0 -35 27.5 -51t101.5 -16h268q145 0 223 -58.5t78 -170.5q0 -143 -119 -198.5 t-338 -55.5q-109 0 -212 12t-177 39v139q82 -27 184.5 -41t196.5 -14q154 0 225.5 18.5t71.5 93.5q0 53 -38 76t-134 23h-258q-268 0 -268 180q0 59 37.5 113.5t113.5 76.5q-82 41 -121 114t-39 173zM270 643q0 -113 58.5 -163t201.5 -50q145 0 200.5 47t55.5 166t-58 172 t-198 53q-137 0 -198.5 -51t-61.5 -174z" />
<glyph unicode="h" horiz-adv-x="1167" d="M143 0v1380h168v-514q68 55 159 90t212 35q176 0 264 -86t88 -270v-635h-168v629q0 127 -56 177t-185 50q-82 0 -169 -36t-145 -93v-727h-168z" />
<glyph unicode="i" horiz-adv-x="565" d="M102 838l17 133h301v-971h-168v838h-150zM236 1198v154h186v-154h-186z" />
<glyph unicode="j" horiz-adv-x="602" d="M-20 -317q35 -10 66.5 -15.5t57.5 -5.5q111 0 149 37t38 123v1016h-150l17 133h301v-1164q0 -131 -76 -208.5t-221 -77.5q-102 0 -182 28v134zM272 1198v154h187v-154h-187z" />
<glyph unicode="k" horiz-adv-x="1054" d="M143 0v1380h168v-837l455 428h195l-398 -385l420 -586h-176l-350 496l-146 -138v-358h-168z" />
<glyph unicode="l" horiz-adv-x="538" d="M143 209v1171h168v-1153q0 -61 20.5 -83.5t63.5 -22.5q47 0 92 12v-133q-33 -12 -65.5 -16t-67.5 -4q-98 0 -154.5 52t-56.5 177z" />
<glyph unicode="m" horiz-adv-x="1751" d="M143 0v971h152l10 -111q78 61 165 96t187 35q109 0 169.5 -34.5t88.5 -98.5q70 57 160 95t215 38q166 0 247 -85t81 -261v-645h-166v629q0 129 -54.5 178t-174.5 49q-80 0 -153 -26.5t-124 -81.5q12 -51 12 -119v-629h-157v625q0 123 -41 177t-162 54q-82 0 -156.5 -36 t-132.5 -89v-731h-166z" />
<glyph unicode="n" horiz-adv-x="1167" d="M143 0v971h152l10 -111q70 57 163 94t214 37q184 0 268 -86t84 -270v-635h-168v629q0 127 -51 177t-197 50q-90 0 -169.5 -32.5t-137.5 -90.5v-733h-168z" />
<glyph unicode="o" horiz-adv-x="1175" d="M102 485q0 244 117 375t369 131t368.5 -131t116.5 -375q0 -246 -114.5 -375.5t-370.5 -129.5q-254 0 -370 130t-116 375zM270 485q0 -188 72 -275t246 -87t245.5 87t71.5 275t-72.5 275.5t-244.5 87.5t-245 -87t-73 -276z" />
<glyph unicode="p" horiz-adv-x="1177" d="M143 -442v1413h144l12 -103q68 63 148.5 93t189.5 30q205 0 321.5 -113.5t116.5 -377.5q0 -262 -116.5 -391t-323.5 -129q-190 0 -324 92v-514h-168zM311 211q51 -45 121 -70.5t158 -25.5q164 0 240.5 93t76.5 292q0 190 -71.5 273t-241.5 83q-84 0 -155.5 -28.5 t-127.5 -88.5v-528z" />
<glyph unicode="q" horiz-adv-x="1148" d="M102 459q0 264 117 398t322 134q109 0 189.5 -29.5t148.5 -93.5l12 103h143v-1204q0 -70 22.5 -95.5t86.5 -25.5q18 0 44.5 4t43.5 8v-133q-55 -21 -129 -21q-115 0 -175.5 61.5t-60.5 192.5v314q-133 -92 -323 -92q-205 0 -323 108.5t-118 370.5zM270 459 q0 -199 78 -271.5t240 -72.5q88 0 157.5 25.5t120.5 70.5v528q-55 59 -126.5 88t-155.5 29q-170 0 -242 -103.5t-72 -293.5z" />
<glyph unicode="r" horiz-adv-x="708" d="M143 0v971h152l12 -123q72 47 169 86t192 57v-131q-57 -12 -125 -33.5t-129.5 -48t-102.5 -55.5v-723h-168z" />
<glyph unicode="s" horiz-adv-x="935" d="M102 725q0 129 90.5 197.5t290.5 68.5q78 0 150 -11t125 -28v-147q-129 43 -248 43q-127 0 -183.5 -25.5t-56.5 -95.5q0 -47 26 -74.5t80 -47t140 -48.5q113 -35 182.5 -71.5t102.5 -90t33 -139.5q0 -143 -100.5 -209.5t-284.5 -66.5q-94 0 -179.5 12t-142.5 33v147 q70 -25 146.5 -37t152.5 -12q129 0 184.5 27.5t55.5 103.5q0 55 -30 84t-90.5 51.5t-154.5 52.5q-84 29 -149.5 59.5t-102.5 83t-37 140.5z" />
<glyph unicode="t" horiz-adv-x="722" d="M61 838v133h148v239l168 52v-291h268l-10 -133h-258v-559q0 -88 40 -126t138 -38q53 0 117 20v-127q-76 -28 -174 -28q-143 0 -216 76.5t-73 213.5v568h-148z" />
<glyph unicode="u" horiz-adv-x="1167" d="M133 356v615h168v-621q0 -121 60.5 -178t187.5 -57q90 0 170 32.5t137 90.5v733h168v-971h-152l-10 111q-70 -57 -166 -94t-211 -37q-174 0 -263 96t-89 280z" />
<glyph unicode="v" horiz-adv-x="1155" d="M102 971h174l302 -815l301 815h174l-381 -971h-189z" />
<glyph unicode="w" horiz-adv-x="1507" d="M102 971h168l191 -781l217 668v113h129l240 -781l190 781h168l-254 -971h-168l-227 705l-232 -705h-168z" />
<glyph unicode="x" horiz-adv-x="1083" d="M82 0l369 494l-357 477h182l265 -363l266 363h180l-352 -477l366 -494h-182l-278 379l-277 -379h-182z" />
<glyph unicode="y" horiz-adv-x="1196" d="M102 971h174l338 -783l349 783h172l-408 -928q-51 -117 -104.5 -208t-123 -143t-173.5 -52q-96 0 -168 26v135q35 -12 64.5 -16t60.5 -4q70 0 109.5 24.5t70.5 74.5t67 130z" />
<glyph unicode="z" horiz-adv-x="993" d="M102 0v92l572 746h-545v133h748v-105l-564 -735h578v-131h-789z" />
<glyph unicode="{" horiz-adv-x="606" d="M61 555v111q88 10 113 60t25 144v351q0 117 51 165t174 48h100v-134h-69q-49 0 -68.5 -18t-19.5 -78v-403q0 -57 -27 -112.5t-92 -78.5q66 -20 92.5 -76.5t26.5 -111.5v-406q0 -59 19.5 -77.5t68.5 -18.5h69v-133h-100q-123 0 -174 48t-51 165v350q0 94 -24.5 144.5 t-113.5 60.5z" />
<glyph unicode="|" horiz-adv-x="372" d="M102 -246v1751h168v-1751h-168z" />
<glyph unicode="}" horiz-adv-x="606" d="M82 -80h70q49 0 68.5 18.5t19.5 77.5v406q0 55 26.5 111.5t91.5 76.5q-66 23 -92 78t-26 113v403q0 59 -19.5 77.5t-68.5 18.5h-70v134h100q123 0 174.5 -48.5t51.5 -164.5v-351q0 -94 24.5 -144t112.5 -60v-111q-88 -10 -112.5 -60.5t-24.5 -144.5v-350 q0 -117 -51.5 -165t-174.5 -48h-100v133z" />
<glyph unicode="~" horiz-adv-x="1171" d="M102 492v170q35 47 100.5 76.5t141.5 29.5q74 0 135.5 -21.5t118.5 -51t113.5 -51t119.5 -21.5q78 0 133.5 29.5t104.5 92.5v-170q-35 -49 -97.5 -77.5t-140.5 -28.5q-61 0 -122.5 21.5t-122 51t-120.5 51t-122 21.5q-78 0 -135 -29.5t-107 -92.5z" />
<glyph unicode="&#xa1;" horiz-adv-x="389" d="M102 838v133h185v-133h-185zM111 -27l12 682h143l13 -682v-321h-168v321z" />
<glyph unicode="&#xa2;" horiz-adv-x="1003" d="M102 485q0 233 118 357.5t321 144.5v160h127v-158q74 -2 127 -16.5t104 -36.5v-133q-104 51 -231 53v-741q123 4 233 53v-135q-98 -41 -233 -51v-158h-127v158q-223 16 -331 146t-108 357zM270 485q0 -168 64 -256t207 -108v727q-131 -20 -201 -107.5t-70 -255.5z" />
<glyph unicode="&#xa3;" horiz-adv-x="1030" d="M102 0v133h54q63 0 91.5 39t28.5 107v354h-143v133h143v252q0 154 99.5 237.5t249.5 83.5q143 0 227 -39v-129q-29 16 -80 24.5t-98 8.5q-113 0 -171.5 -43t-58.5 -151v-244h406l-6 -133h-400v-346q0 -51 -11 -90t-44 -64h539v-133h-826z" />
<glyph unicode="&#xa4;" horiz-adv-x="1173" d="M102 219l170 127q-66 88 -65 205q0 119 65 203l-168 129l76 94l172 -135q47 41 106.5 63.5t127.5 22.5t128 -22.5t107 -63.5l174 135l76 -94l-170 -129q31 -41 49.5 -93.5t18.5 -109.5t-18.5 -109.5t-49.5 -97.5l170 -127l-76 -94l-174 133q-45 -39 -105.5 -61.5 t-127.5 -22.5q-68 0 -128.5 22.5t-107.5 61.5l-172 -133zM336 551q0 -70 33.5 -128t90 -93t126.5 -35q72 0 129 35t91 93t34 128q0 72 -35 129t-92.5 92t-126.5 35q-70 0 -127.5 -35t-90 -92t-32.5 -129z" />
<glyph unicode="&#xa5;" horiz-adv-x="1314" d="M102 1319h174l381 -684l381 684h174l-446 -782h297v-117h-322v-107h322v-116h-322v-197h-168v197h-321v116h321v107h-321v117h295z" />
<glyph unicode="&#xa6;" horiz-adv-x="372" d="M102 -246v635h168v-635h-168zM102 868v637h168v-637h-168z" />
<glyph unicode="&#xa7;" horiz-adv-x="1138" d="M102 934q0 76 37 133q-16 29 -26.5 64.5t-10.5 78.5q0 168 121 262.5t369 94.5q115 0 213 -16.5t151 -34.5v-148q-74 27 -159.5 41t-178.5 14q-168 0 -258 -49t-90 -170q0 -68 32 -110.5t108.5 -73.5t210.5 -64q166 -39 256 -83t124.5 -100t34.5 -138q0 -33 -10 -77 t-25 -73q35 -63 35 -145q0 -174 -131 -267t-375 -93q-246 0 -397 61v149q86 -33 183.5 -50t199.5 -17q170 0 261 48t91 173q0 78 -41 123t-123.5 75.5t-211.5 61.5q-143 39 -228.5 82t-123.5 102.5t-38 145.5zM260 913q0 -49 27.5 -79.5t96.5 -54t187 -54.5 q111 -27 191 -63.5t119 -79.5q10 31 10 55q0 53 -30 86t-103.5 59.5t-206.5 59.5q-104 29 -173 54.5t-108 64.5q-4 -10 -7 -20.5t-3 -27.5z" />
<glyph unicode="&#xa8;" horiz-adv-x="724" d="M102 1149v154h160v-154h-160zM463 1149v154h160v-154h-160z" />
<glyph unicode="&#xa9;" horiz-adv-x="1564" d="M102 659q0 141 53.5 264.5t146.5 216.5t216 146t264 53t264 -53t216.5 -146t146.5 -216t53 -265q0 -141 -53 -264t-146.5 -216t-216.5 -146t-264 -53t-264 53t-216 146t-146.5 216t-53.5 264zM231 659q0 -162 72 -287.5t196.5 -197.5t282.5 -72q160 0 285 72t196.5 198 t71.5 287q0 162 -71.5 287t-196.5 196.5t-285 71.5q-158 0 -282.5 -71.5t-196.5 -196.5t-72 -287zM322 657q0 158 64.5 262.5t172 156.5t236.5 52q88 0 153.5 -17t110.5 -46v-111q-55 29 -114.5 42.5t-123.5 13.5q-164 0 -264 -80t-100 -273t87 -273.5t267 -80.5 q61 0 129 16.5t119 42.5v-114q-113 -62 -279 -62q-215 0 -336.5 126t-121.5 345z" />
<glyph unicode="&#xaa;" horiz-adv-x="710" d="M102 938q0 176 215 176h179v25q0 59 -29 83.5t-125 24.5q-88 0 -170 -28v90q37 14 88 22t107 8q113 0 177 -47t64 -151v-350h-100l-8 59q-39 -37 -86 -54.5t-117 -17.5q-80 0 -137.5 38t-57.5 122zM211 942q0 -45 31 -62.5t86 -17.5q106 0 168 78v92h-162 q-68 0 -95.5 -19.5t-27.5 -70.5z" />
<glyph unicode="&#xab;" horiz-adv-x="1232" d="M102 547v80l521 383l67 -99l-436 -325l436 -324l-67 -98zM543 547v80l520 383l67 -99l-436 -325l436 -324l-67 -98z" />
<glyph unicode="&#xac;" horiz-adv-x="1087" d="M102 621v133h883v-453h-137v320h-746z" />
<glyph unicode="&#xad;" horiz-adv-x="976" d="M102 483v133h772v-133h-772z" />
<glyph unicode="&#xae;" horiz-adv-x="1564" d="M102 659q0 141 53.5 264.5t146.5 216.5t216 146t264 53t264 -53t216.5 -146t146.5 -216t53 -265q0 -141 -53 -264t-146.5 -216t-216.5 -146t-264 -53t-264 53t-216 146t-146.5 216t-53.5 264zM231 659q0 -162 72 -287.5t196.5 -197.5t282.5 -72q160 0 285 72t196.5 198 t71.5 287q0 162 -71.5 287t-196.5 196.5t-285 71.5q-158 0 -282.5 -71.5t-196.5 -196.5t-72 -287zM467 229v873h385q139 0 213 -72t74 -192q0 -96 -54.5 -163t-150.5 -87q29 -16 44 -39t30 -57l110 -263h-125l-112 265q-18 43 -43 54t-101 11h-143v-330h-127zM594 666h201 q104 0 161.5 30.5t57.5 141.5q0 96 -42 126.5t-136 30.5h-242v-329z" />
<glyph unicode="&#xaf;" horiz-adv-x="794" d="M102 1157v121h590v-121h-590z" />
<glyph unicode="&#xb0;" horiz-adv-x="653" d="M102 1253q0 96 67 159t157 63q94 0 159.5 -62.5t65.5 -159.5q0 -96 -65.5 -158.5t-159.5 -62.5q-90 0 -157 62.5t-67 158.5zM215 1253q0 -49 32 -80.5t79 -31.5q49 0 81.5 31.5t32.5 80.5q0 47 -32.5 80t-81.5 33q-47 0 -79 -33t-32 -80z" />
<glyph unicode="&#xb1;" horiz-adv-x="976" d="M102 0v133h772v-133h-772zM102 524v133h318v316h137v-316h317v-133h-317v-303h-137v303h-318z" />
<glyph unicode="&#xb2;" horiz-adv-x="614" d="M102 758v65q29 49 70 89t92 81q72 59 97.5 95t25.5 77q0 43 -26.5 60.5t-92.5 17.5q-35 0 -73.5 -8t-73.5 -21v97q29 10 78 19t102 9q100 0 153.5 -51t53.5 -123q0 -61 -27.5 -99t-89.5 -95q-37 -35 -66.5 -57.5t-58.5 -59.5h246v-96h-410z" />
<glyph unicode="&#xb3;" horiz-adv-x="620" d="M102 766v92q68 -27 146 -27q80 0 112.5 19.5t32.5 67.5q0 84 -133 83h-76l6 84h64q66 0 96.5 20.5t30.5 68.5q0 41 -32 57t-99 16q-35 0 -71 -7t-66 -17v92q27 10 72.5 17t90.5 7q127 0 178.5 -44t51.5 -115q0 -45 -21.5 -83t-70.5 -55q57 -12 80.5 -46.5t23.5 -82.5 q0 -172 -246 -172q-45 0 -94 7.5t-76 17.5z" />
<glyph unicode="&#xb4;" horiz-adv-x="501" d="M102 1069l146 344h151l-161 -344h-136z" />
<glyph unicode="&#xb5;" horiz-adv-x="1177" d="M143 -293v1264h168v-621q0 -121 60.5 -178t187.5 -57q90 0 170 32.5t137 90.5v733h168v-971h-151l-11 111q-70 -57 -166 -94t-210 -37q-55 0 -102.5 12t-82.5 33v-318h-168z" />
<glyph unicode="&#xb6;" horiz-adv-x="1286" d="M102 977q0 174 69 278.5t189.5 151.5t280.5 47h543v-1612h-168v1481h-205v-1481h-168v676q-152 0 -274.5 41t-194.5 140.5t-72 277.5z" />
<glyph unicode="&#xb7;" horiz-adv-x="356" d="M102 512v141h152v-141h-152z" />
<glyph unicode="&#xb8;" horiz-adv-x="641" d="M102 -373q59 -16 129 -16q96 0 140.5 22.5t44.5 85.5q0 59 -43 77t-131 18h-76l59 186h119l-33 -98q113 0 170.5 -48.5t57.5 -136.5q0 -100 -70.5 -154.5t-222.5 -54.5q-33 0 -77 5.5t-67 11.5v102z" />
<glyph unicode="&#xb9;" horiz-adv-x="434" d="M102 1192v94l271 53v-581h-119v467z" />
<glyph unicode="&#xba;" horiz-adv-x="747" d="M102 1059q0 137 68 208.5t203 71.5q137 0 204.5 -71.5t67.5 -208.5q0 -281 -272 -281q-270 0 -271 281zM215 1059q0 -94 35 -142.5t123 -48.5t122.5 48.5t34.5 142.5q0 92 -34.5 140t-122.5 48q-86 0 -122 -48t-36 -140z" />
<glyph unicode="&#xbb;" horiz-adv-x="1232" d="M102 262l437 324l-437 325l68 99l520 -383v-80l-520 -383zM543 262l436 324l-436 325l67 99l520 -383v-80l-520 -383z" />
<glyph unicode="&#xbc;" horiz-adv-x="1294" d="M102 1192v94l271 53v-581h-119v467zM205 0l700 1319h158l-701 -1319h-157zM705 119v88l292 375h131v-375h64v-88h-64v-119h-116v119h-307zM819 209h215v278z" />
<glyph unicode="&#xbd;" horiz-adv-x="1290" d="M102 1192v94l271 53v-581h-119v467zM205 0l700 1319h158l-701 -1319h-157zM778 0v66q29 49 70 89t92 81q72 59 97.5 95t25.5 77q0 43 -26.5 60t-92.5 17q-35 0 -74 -8t-73 -20v96q29 10 78 19.5t102 9.5q100 0 153.5 -51.5t53.5 -122.5q0 -61 -28 -99.5t-89 -95.5 q-37 -35 -66.5 -57.5t-58.5 -59.5h246v-96h-410z" />
<glyph unicode="&#xbe;" horiz-adv-x="1312" d="M102 766v88q68 -27 146 -27q80 0 112.5 21.5t32.5 69.5q0 86 -133 86h-76l6 79h64q127 0 127 91q0 78 -131 77q-35 0 -71 -7t-66 -17v88q27 10 72.5 17t90.5 7q127 0 178.5 -44t51.5 -115q0 -45 -21.5 -83t-70.5 -55q57 -12 80.5 -46.5t23.5 -82.5q0 -172 -246 -172 q-45 0 -94 7.5t-76 17.5zM223 0l701 1319h157l-700 -1319h-158zM723 119v88l293 375h131v-375h63v-88h-63v-119h-117v119h-307zM838 209h215v278z" />
<glyph unicode="&#xbf;" horiz-adv-x="1009" d="M102 -2q0 113 56.5 184.5t148.5 147.5q59 51 103.5 89t68 82t23.5 113v39h168v-47q0 -92 -41 -156.5t-101.5 -115.5t-117.5 -101q-57 -49 -98.5 -103t-41.5 -130q0 -119 68 -172t242 -53q90 0 176 20.5t151 52.5v-143q-63 -33 -159 -53.5t-207 -20.5q-217 0 -328 97.5 t-111 269.5zM494 838v133h184v-133h-184z" />
<glyph unicode="&#xc0;" horiz-adv-x="1402" d="M102 0l502 1319h197l499 -1319h-172l-139 362h-573l-140 -362h-174zM444 496h514l-258 678zM444 1753h152l145 -344h-135z" />
<glyph unicode="&#xc1;" horiz-adv-x="1402" d="M102 0l502 1319h197l499 -1319h-172l-139 362h-573l-140 -362h-174zM444 496h514l-258 678zM598 1409l145 344h152l-162 -344h-135z" />
<glyph unicode="&#xc2;" horiz-adv-x="1402" d="M102 0l502 1319h197l499 -1319h-172l-139 362h-573l-140 -362h-174zM397 1409l236 303h135l236 -303h-146l-158 209l-157 -209h-146zM444 496h514l-258 678z" />
<glyph unicode="&#xc3;" horiz-adv-x="1402" d="M102 0l502 1319h197l499 -1319h-172l-139 362h-573l-140 -362h-174zM389 1446v129q25 29 74 45t96 16q57 0 105.5 -19.5t94.5 -38.5t95 -19q104 0 158 73v-131q-20 -27 -62.5 -44t-95.5 -17t-104.5 19.5t-98.5 39t-92 19.5q-49 0 -92 -15.5t-78 -56.5zM444 496h514 l-258 678z" />
<glyph unicode="&#xc4;" horiz-adv-x="1402" d="M102 0l502 1319h197l499 -1319h-172l-139 362h-573l-140 -362h-174zM440 1454v154h160v-154h-160zM444 496h514l-258 678zM801 1454v154h160v-154h-160z" />
<glyph unicode="&#xc5;" horiz-adv-x="1402" d="M102 0l486 1274q-53 29 -83 79t-30 113q0 92 62.5 157t160.5 65q102 0 165 -64.5t63 -157.5q0 -61 -29 -111t-80 -79l483 -1276h-172l-139 362h-573l-140 -362h-174zM444 496h514l-258 678zM573 1466q0 -51 36 -88t89 -37q57 0 92 37t35 88q0 53 -34.5 89t-92.5 36 q-53 0 -89 -35.5t-36 -89.5z" />
<glyph unicode="&#xc6;" horiz-adv-x="1720" d="M102 0l502 1319h1014v-133h-612v-461h538v-131h-538v-463h612v-131h-780v365h-416l-139 -365h-181zM473 496h365v690h-105z" />
<glyph unicode="&#xc7;" horiz-adv-x="1218" d="M102 631q0 215 65.5 374.5t205 246.5t360.5 87q115 0 208 -16t175 -45v-148q-82 31 -174 48.5t-194 17.5q-178 0 -283 -67.5t-150 -194.5t-45 -303q0 -244 116 -376t366 -132q92 0 187 14.5t177 44.5v-149q-76 -23 -164 -37t-192 -16l-27 -78q113 0 170.5 -48.5 t57.5 -136.5q0 -100 -70.5 -154.5t-222.5 -54.5q-33 0 -77 5.5t-67 11.5v102q59 -16 129 -16q96 0 140.5 22.5t44.5 85.5q0 59 -43 77t-131 18h-76l53 170q-270 27 -404.5 200.5t-134.5 446.5z" />
<glyph unicode="&#xc8;" horiz-adv-x="1136" d="M143 0v1319h891v-133h-723v-461h650v-131h-650v-463h723v-131h-891zM365 1753h151l146 -344h-136z" />
<glyph unicode="&#xc9;" horiz-adv-x="1136" d="M143 0v1319h891v-133h-723v-461h650v-131h-650v-463h723v-131h-891zM489 1409l146 344h151l-161 -344h-136z" />
<glyph unicode="&#xca;" horiz-adv-x="1136" d="M143 0v1319h891v-133h-723v-461h650v-131h-650v-463h723v-131h-891zM258 1409l236 303h135l235 -303h-145l-158 209l-158 -209h-145z" />
<glyph unicode="&#xcb;" horiz-adv-x="1136" d="M143 0v1319h891v-133h-723v-461h650v-131h-650v-463h723v-131h-891zM313 1456v154h160v-154h-160zM674 1456v154h160v-154h-160z" />
<glyph unicode="&#xcc;" horiz-adv-x="454" d="M2 1753h152l145 -344h-135zM143 0v1319h168v-1319h-168z" />
<glyph unicode="&#xcd;" horiz-adv-x="454" d="M143 0v1319h168v-1319h-168zM143 1409l146 344h151l-161 -344h-136z" />
<glyph unicode="&#xce;" horiz-adv-x="454" d="M-76 1409l236 303h135l235 -303h-145l-158 209l-157 -209h-146zM143 0v1319h168v-1319h-168z" />
<glyph unicode="&#xcf;" horiz-adv-x="454" d="M-33 1460v154h160v-154h-160zM143 0v1319h168v-1319h-168zM328 1460v154h159v-154h-159z" />
<glyph unicode="&#xd0;" horiz-adv-x="1359" d="M41 582v133h147v604h517q287 0 419.5 -155.5t132.5 -512.5q0 -338 -130 -494.5t-422 -156.5h-517v582h-147zM356 131h318q139 0 231 42t138.5 154.5t46.5 323.5q0 209 -42 326t-133.5 163t-240.5 46h-318v-471h371v-133h-371v-451z" />
<glyph unicode="&#xd1;" horiz-adv-x="1357" d="M143 0v1319h152l752 -1061v1061h167v-1319h-153l-750 1059v-1059h-168zM362 1456v129q25 29 74 45.5t96 16.5q57 0 105.5 -19.5t94.5 -39t95 -19.5q104 0 158 73v-131q-20 -27 -62.5 -44t-95.5 -17t-104 19.5t-98 39t-93 19.5q-49 0 -92 -15.5t-78 -56.5z" />
<glyph unicode="&#xd2;" horiz-adv-x="1421" d="M102 659q0 354 149.5 517t459.5 163q311 0 459.5 -162.5t148.5 -517.5q0 -354 -148.5 -516.5t-459.5 -162.5q-309 0 -459 162.5t-150 516.5zM270 659q0 -199 48.5 -316.5t145.5 -168.5t247 -51t247 51t145 169t48 316q0 199 -48 317t-145.5 169t-246.5 51 q-150 0 -247 -51t-145.5 -169t-48.5 -317zM494 1753h151l146 -344h-136z" />
<glyph unicode="&#xd3;" horiz-adv-x="1421" d="M102 659q0 354 149.5 517t459.5 163q311 0 459.5 -162.5t148.5 -517.5q0 -354 -148.5 -516.5t-459.5 -162.5q-309 0 -459 162.5t-150 516.5zM270 659q0 -199 48.5 -316.5t145.5 -168.5t247 -51t247 51t145 169t48 316q0 199 -48 317t-145.5 169t-246.5 51 q-150 0 -247 -51t-145.5 -169t-48.5 -317zM639 1409l145 344h152l-162 -344h-135z" />
<glyph unicode="&#xd4;" horiz-adv-x="1421" d="M102 659q0 354 149.5 517t459.5 163q311 0 459.5 -162.5t148.5 -517.5q0 -354 -148.5 -516.5t-459.5 -162.5q-309 0 -459 162.5t-150 516.5zM270 659q0 -199 48.5 -316.5t145.5 -168.5t247 -51t247 51t145 169t48 316q0 199 -48 317t-145.5 169t-246.5 51 q-150 0 -247 -51t-145.5 -169t-48.5 -317zM408 1409l235 303h135l236 -303h-146l-157 209l-158 -209h-145z" />
<glyph unicode="&#xd5;" horiz-adv-x="1421" d="M102 659q0 354 149.5 517t459.5 163q311 0 459.5 -162.5t148.5 -517.5q0 -354 -148.5 -516.5t-459.5 -162.5q-309 0 -459 162.5t-150 516.5zM270 659q0 -199 48.5 -316.5t145.5 -168.5t247 -51t247 51t145 169t48 316q0 199 -48 317t-145.5 169t-246.5 51 q-150 0 -247 -51t-145.5 -169t-48.5 -317zM399 1466v129q25 29 74 45.5t96 16.5q57 0 105.5 -19.5t94.5 -39t95 -19.5q104 0 158 74v-131q-20 -27 -62.5 -44.5t-95.5 -17.5t-104 19.5t-98.5 39t-92.5 19.5q-49 0 -92 -15.5t-78 -56.5z" />
<glyph unicode="&#xd6;" horiz-adv-x="1421" d="M102 659q0 354 149.5 517t459.5 163q311 0 459.5 -162.5t148.5 -517.5q0 -354 -148.5 -516.5t-459.5 -162.5q-309 0 -459 162.5t-150 516.5zM270 659q0 -199 48.5 -316.5t145.5 -168.5t247 -51t247 51t145 169t48 316q0 199 -48 317t-145.5 169t-246.5 51 q-150 0 -247 -51t-145.5 -169t-48.5 -317zM451 1456v154h159v-154h-159zM811 1456v154h160v-154h-160z" />
<glyph unicode="&#xd7;" horiz-adv-x="839" d="M102 760l88 88l228 -232l231 230l88 -88l-229 -232l229 -229l-84 -86l-229 231l-223 -221l-88 88l221 223z" />
<glyph unicode="&#xd8;" horiz-adv-x="1421" d="M102 659q0 354 149.5 517t459.5 163q43 0 84 -4t77 -10l35 94h148l-49 -131q158 -63 235.5 -218t77.5 -411q0 -354 -148.5 -516.5t-459.5 -162.5q-49 0 -94.5 4t-86.5 12l-36 -105h-148l53 144q-297 133 -297 624zM270 659q0 -193 45.5 -309.5t137.5 -169.5l368 1008 q-27 4 -54.5 6t-55.5 2q-150 0 -247 -51t-145.5 -169t-48.5 -317zM582 133q29 -4 61.5 -7t67.5 -3q150 0 247 51t145 169t48 316q0 201 -49 319t-148 169z" />
<glyph unicode="&#xd9;" horiz-adv-x="1374" d="M133 483v836h168v-838q0 -180 101.5 -269t285.5 -89q182 0 283.5 89t101.5 269v838h168v-836q0 -246 -142.5 -374.5t-410.5 -128.5q-270 0 -412.5 129t-142.5 374zM492 1753h151l145 -344h-135z" />
<glyph unicode="&#xda;" horiz-adv-x="1374" d="M133 483v836h168v-838q0 -180 101.5 -269t285.5 -89q182 0 283.5 89t101.5 269v838h168v-836q0 -246 -142.5 -374.5t-410.5 -128.5q-270 0 -412.5 129t-142.5 374zM604 1409l146 344h151l-162 -344h-135z" />
<glyph unicode="&#xdb;" horiz-adv-x="1374" d="M133 483v836h168v-838q0 -180 101.5 -269t285.5 -89q182 0 283.5 89t101.5 269v838h168v-836q0 -246 -142.5 -374.5t-410.5 -128.5q-270 0 -412.5 129t-142.5 374zM383 1409l235 303h136l235 -303h-145l-158 209l-158 -209h-145z" />
<glyph unicode="&#xdc;" horiz-adv-x="1374" d="M133 483v836h168v-838q0 -180 101.5 -269t285.5 -89q182 0 283.5 89t101.5 269v838h168v-836q0 -246 -142.5 -374.5t-410.5 -128.5q-270 0 -412.5 129t-142.5 374zM401 1456v154h160v-154h-160zM762 1456v154h160v-154h-160z" />
<glyph unicode="&#xdd;" horiz-adv-x="1314" d="M102 1319h174l381 -684l381 684h174l-471 -827v-492h-168v492zM565 1409l146 344h151l-162 -344h-135z" />
<glyph unicode="&#xde;" horiz-adv-x="1191" d="M143 0v1319h168v-242h389q221 0 325.5 -116.5t104.5 -305.5q0 -193 -117.5 -306t-320.5 -113h-381v-236h-168zM311 367h355q147 0 222 78.5t75 209.5q0 139 -71 214t-216 75h-365v-577z" />
<glyph unicode="&#xdf;" horiz-adv-x="1284" d="M133 0v958q0 143 61.5 250t174 166.5t266.5 59.5q168 0 277.5 -54.5t162.5 -144.5t53 -201q0 -113 -47 -194.5t-125 -116.5q102 -31 164 -118t62 -220q0 -193 -105.5 -299t-306.5 -106q-174 0 -295 45v143q57 -25 125 -35t143 -10q127 0 199 69.5t72 200.5 q0 125 -63.5 194.5t-221.5 69.5h-168v127h172q129 0 183.5 72t54.5 178q0 78 -30 135.5t-102.5 89t-203.5 31.5q-334 0 -334 -338v-952h-168z" />
<glyph unicode="&#xe0;" horiz-adv-x="1107" d="M102 272q0 133 88.5 218t286.5 85h338v60q0 80 -21.5 127t-81 67.5t-173.5 20.5q-88 0 -170 -14.5t-154 -38.5v139q66 25 155 40t191 15q207 0 310.5 -84t103.5 -272v-635h-141l-13 111q-63 -66 -153.5 -98.5t-223.5 -32.5q-92 0 -169.5 32.5t-125 97t-47.5 162.5z M268 272q0 -88 59.5 -121.5t159.5 -33.5q106 0 188.5 38t139.5 103v188h-334q-115 0 -164 -43t-49 -131zM373 1413h151l146 -344h-135z" />
<glyph unicode="&#xe1;" horiz-adv-x="1107" d="M102 272q0 133 88.5 218t286.5 85h338v60q0 80 -21.5 127t-81 67.5t-173.5 20.5q-88 0 -170 -14.5t-154 -38.5v139q66 25 155 40t191 15q207 0 310.5 -84t103.5 -272v-635h-141l-13 111q-63 -66 -153.5 -98.5t-223.5 -32.5q-92 0 -169.5 32.5t-125 97t-47.5 162.5z M268 272q0 -88 59.5 -121.5t159.5 -33.5q106 0 188.5 38t139.5 103v188h-334q-115 0 -164 -43t-49 -131zM500 1069l145 344h152l-162 -344h-135z" />
<glyph unicode="&#xe2;" horiz-adv-x="1107" d="M102 272q0 133 88.5 218t286.5 85h338v60q0 80 -21.5 127t-81 67.5t-173.5 20.5q-88 0 -170 -14.5t-154 -38.5v139q66 25 155 40t191 15q207 0 310.5 -84t103.5 -272v-635h-141l-13 111q-63 -66 -153.5 -98.5t-223.5 -32.5q-92 0 -169.5 32.5t-125 97t-47.5 162.5z M268 272q0 -88 59.5 -121.5t159.5 -33.5q106 0 188.5 38t139.5 103v188h-334q-115 0 -164 -43t-49 -131zM274 1069l236 303h135l236 -303h-146l-157 209l-158 -209h-146z" />
<glyph unicode="&#xe3;" horiz-adv-x="1107" d="M102 272q0 133 88.5 218t286.5 85h338v60q0 80 -21.5 127t-81 67.5t-173.5 20.5q-88 0 -170 -14.5t-154 -38.5v139q66 25 155 40t191 15q207 0 310.5 -84t103.5 -272v-635h-141l-13 111q-63 -66 -153.5 -98.5t-223.5 -32.5q-92 0 -169.5 32.5t-125 97t-47.5 162.5z M262 1116v129q25 29 74 45.5t96 16.5q57 0 105.5 -19.5t94.5 -39t95 -19.5q104 0 158 74v-132q-20 -27 -62.5 -44t-95.5 -17t-104.5 19.5t-98.5 39t-92 19.5q-49 0 -92 -15.5t-78 -56.5zM268 272q0 -88 59.5 -121.5t159.5 -33.5q106 0 188.5 38t139.5 103v188h-334 q-115 0 -164 -43t-49 -131z" />
<glyph unicode="&#xe4;" horiz-adv-x="1107" d="M102 272q0 133 88.5 218t286.5 85h338v60q0 80 -21.5 127t-81 67.5t-173.5 20.5q-88 0 -170 -14.5t-154 -38.5v139q66 25 155 40t191 15q207 0 310.5 -84t103.5 -272v-635h-141l-13 111q-63 -66 -153.5 -98.5t-223.5 -32.5q-92 0 -169.5 32.5t-125 97t-47.5 162.5z M268 272q0 -88 59.5 -121.5t159.5 -33.5q106 0 188.5 38t139.5 103v188h-334q-115 0 -164 -43t-49 -131zM328 1116v154h159v-154h-159zM688 1116v154h160v-154h-160z" />
<glyph unicode="&#xe5;" horiz-adv-x="1107" d="M102 272q0 133 88.5 218t286.5 85h338v60q0 80 -21.5 127t-81 67.5t-173.5 20.5q-88 0 -170 -14.5t-154 -38.5v139q66 25 155 40t191 15q207 0 310.5 -84t103.5 -272v-635h-141l-13 111q-63 -66 -153.5 -98.5t-223.5 -32.5q-92 0 -169.5 32.5t-125 97t-47.5 162.5z M268 272q0 -88 59.5 -121.5t159.5 -33.5q106 0 188.5 38t139.5 103v188h-334q-115 0 -164 -43t-49 -131zM356 1288q0 92 62.5 156.5t161.5 64.5q102 0 164.5 -64.5t62.5 -156.5t-62.5 -155.5t-164.5 -63.5q-98 0 -161 63.5t-63 155.5zM455 1288q0 -51 36 -88t89 -37 q57 0 92 37t35 88q0 53 -35 89t-92 36q-53 0 -89 -36t-36 -89z" />
<glyph unicode="&#xe6;" horiz-adv-x="1804" d="M102 272q0 133 88.5 218t286.5 85h338v60q0 80 -21.5 127t-81 67.5t-173.5 20.5q-88 0 -170 -14.5t-154 -38.5v139q66 25 155 40t191 15q262 0 359 -149q57 68 146 108.5t214 40.5q143 0 236.5 -52t139.5 -143t46 -206v-182h-719q8 -111 48 -174.5t121 -91t214 -27.5 q150 0 274 51v-131q-63 -27 -142 -41t-165 -14q-156 0 -259 45t-167 139q-39 -45 -96 -87t-146.5 -69.5t-220.5 -27.5q-92 0 -169.5 32.5t-125 97t-47.5 162.5zM268 272q0 -88 59.5 -121.5t159.5 -33.5q119 0 195 38t133 103v188h-334q-115 0 -164 -43t-49 -131zM983 528 h569v80q0 119 -62.5 183.5t-205.5 64.5q-174 0 -237.5 -82t-63.5 -246z" />
<glyph unicode="&#xe7;" horiz-adv-x="1003" d="M102 485q0 256 139.5 381t374.5 125q96 0 160 -13t123 -42v-133q-111 53 -252 53q-180 0 -278.5 -85t-98.5 -286q0 -193 86 -281.5t285 -88.5q141 0 260 53v-135q-57 -23 -121.5 -36t-140.5 -17l-27 -78q113 0 170.5 -48.5t57.5 -136.5q0 -100 -70.5 -154.5t-222.5 -54.5 q-33 0 -77 5.5t-67 11.5v102q59 -16 129 -16q96 0 140.5 22.5t44.5 85.5q0 59 -43 77t-131 18h-76l53 170q-211 20 -314.5 149t-103.5 352z" />
<glyph unicode="&#xe8;" horiz-adv-x="1091" d="M102 489q0 233 112 367.5t353 134.5q143 0 236.5 -52t139.5 -143t46 -206v-182h-719q8 -111 48 -174.5t121 -91t214 -27.5q150 0 275 51v-131q-63 -27 -142 -41t-165 -14q-260 0 -389.5 124.5t-129.5 384.5zM270 528h570v80q0 119 -62.5 183.5t-206.5 64.5 q-174 0 -237.5 -82t-63.5 -246zM317 1413h152l145 -344h-135z" />
<glyph unicode="&#xe9;" horiz-adv-x="1091" d="M102 489q0 233 112 367.5t353 134.5q143 0 236.5 -52t139.5 -143t46 -206v-182h-719q8 -111 48 -174.5t121 -91t214 -27.5q150 0 275 51v-131q-63 -27 -142 -41t-165 -14q-260 0 -389.5 124.5t-129.5 384.5zM270 528h570v80q0 119 -62.5 183.5t-206.5 64.5 q-174 0 -237.5 -82t-63.5 -246zM465 1069l145 344h152l-162 -344h-135z" />
<glyph unicode="&#xea;" horiz-adv-x="1091" d="M102 489q0 233 112 367.5t353 134.5q143 0 236.5 -52t139.5 -143t46 -206v-182h-719q8 -111 48 -174.5t121 -91t214 -27.5q150 0 275 51v-131q-63 -27 -142 -41t-165 -14q-260 0 -389.5 124.5t-129.5 384.5zM242 1069l235 303h135l236 -303h-146l-157 209l-158 -209h-145 zM270 528h570v80q0 119 -62.5 183.5t-206.5 64.5q-174 0 -237.5 -82t-63.5 -246z" />
<glyph unicode="&#xeb;" horiz-adv-x="1091" d="M102 489q0 233 112 367.5t353 134.5q143 0 236.5 -52t139.5 -143t46 -206v-182h-719q8 -111 48 -174.5t121 -91t214 -27.5q150 0 275 51v-131q-63 -27 -142 -41t-165 -14q-260 0 -389.5 124.5t-129.5 384.5zM270 528h570v80q0 119 -62.5 183.5t-206.5 64.5 q-174 0 -237.5 -82t-63.5 -246zM281 1116v154h159v-154h-159zM641 1116v154h160v-154h-160z" />
<glyph unicode="&#xec;" horiz-adv-x="604" d="M143 838l17 133h301v-971h-168v838h-150zM156 1413h151l146 -344h-136z" />
<glyph unicode="&#xed;" horiz-adv-x="604" d="M143 838l17 133h301v-971h-168v838h-150zM287 1069l145 344h152l-162 -344h-135z" />
<glyph unicode="&#xee;" horiz-adv-x="604" d="M37 1069l235 303h136l235 -303h-145l-158 209l-158 -209h-145zM143 838l17 133h301v-971h-168v838h-150z" />
<glyph unicode="&#xef;" horiz-adv-x="604" d="M55 1116v154h160v-154h-160zM143 838l17 133h301v-971h-168v838h-150zM416 1116v154h159v-154h-159z" />
<glyph unicode="&#xf0;" horiz-adv-x="1173" d="M102 401q0 207 118 316.5t335 109.5q80 0 174 -27.5t174 -86.5v94q0 84 -11 150.5t-38 117.5l-274 -119v107l211 92q-78 59 -218 59q-88 0 -159.5 -12t-130.5 -35v127q61 20 140 32.5t171 12.5q221 0 338 -122l190 83v-108l-131 -57q37 -63 54.5 -148.5t17.5 -187.5v-318 q0 -262 -121.5 -381.5t-359.5 -119.5q-242 0 -361 114.5t-119 306.5zM254 401q0 -139 82 -217t246 -78q162 0 241.5 78t79.5 244v164q-68 49 -151.5 81t-167.5 32q-180 0 -255 -82t-75 -222z" />
<glyph unicode="&#xf1;" horiz-adv-x="1167" d="M143 0v971h152l10 -111q70 57 163 94t214 37q184 0 268 -86t84 -270v-635h-168v629q0 127 -51 177t-197 50q-90 0 -169.5 -32.5t-137.5 -90.5v-733h-168zM272 1116v129q25 29 74 45.5t96 16.5q57 0 105.5 -19.5t94.5 -39t95 -19.5q104 0 158 74v-132q-20 -27 -62.5 -44 t-95.5 -17t-104 19.5t-98.5 39t-92.5 19.5q-49 0 -92 -15.5t-78 -56.5z" />
<glyph unicode="&#xf2;" horiz-adv-x="1175" d="M102 485q0 244 117 375t369 131t368.5 -131t116.5 -375q0 -246 -114.5 -375.5t-370.5 -129.5q-254 0 -370 130t-116 375zM270 485q0 -188 72 -275t246 -87t245.5 87t71.5 275t-72.5 275.5t-244.5 87.5t-245 -87t-73 -276zM371 1413h151l146 -344h-136z" />
<glyph unicode="&#xf3;" horiz-adv-x="1175" d="M102 485q0 244 117 375t369 131t368.5 -131t116.5 -375q0 -246 -114.5 -375.5t-370.5 -129.5q-254 0 -370 130t-116 375zM270 485q0 -188 72 -275t246 -87t245.5 87t71.5 275t-72.5 275.5t-244.5 87.5t-245 -87t-73 -276zM518 1069l146 344h151l-162 -344h-135z" />
<glyph unicode="&#xf4;" horiz-adv-x="1175" d="M102 485q0 244 117 375t369 131t368.5 -131t116.5 -375q0 -246 -114.5 -375.5t-370.5 -129.5q-254 0 -370 130t-116 375zM270 485q0 -188 72 -275t246 -87t245.5 87t71.5 275t-72.5 275.5t-244.5 87.5t-245 -87t-73 -276zM285 1069l235 303h135l236 -303h-146l-157 209 l-158 -209h-145z" />
<glyph unicode="&#xf5;" horiz-adv-x="1175" d="M102 485q0 244 117 375t369 131t368.5 -131t116.5 -375q0 -246 -114.5 -375.5t-370.5 -129.5q-254 0 -370 130t-116 375zM270 485q0 -188 72 -275t246 -87t245.5 87t71.5 275t-72.5 275.5t-244.5 87.5t-245 -87t-73 -276zM276 1126v129q25 29 74 45.5t96 16.5 q57 0 105.5 -19.5t94.5 -39t95 -19.5q104 0 158 74v-131q-20 -27 -62.5 -44.5t-95.5 -17.5t-104 19.5t-98 39t-93 19.5q-49 0 -92 -15.5t-78 -56.5z" />
<glyph unicode="&#xf6;" horiz-adv-x="1175" d="M102 485q0 244 117 375t369 131t368.5 -131t116.5 -375q0 -246 -114.5 -375.5t-370.5 -129.5q-254 0 -370 130t-116 375zM270 485q0 -188 72 -275t246 -87t245.5 87t71.5 275t-72.5 275.5t-244.5 87.5t-245 -87t-73 -276zM328 1116v154h159v-154h-159zM688 1116v154h160 v-154h-160z" />
<glyph unicode="&#xf7;" horiz-adv-x="974" d="M102 483v133h770v-133h-770zM414 160v137h145v-137h-145zM414 815v137h145v-137h-145z" />
<glyph unicode="&#xf8;" horiz-adv-x="1175" d="M102 485q0 244 117 375t369 131q29 0 56.5 -2t53.5 -6l37 98h148l-49 -135q123 -53 181 -170t58 -291q0 -246 -114.5 -375.5t-370.5 -129.5q-57 0 -107 6l-35 -97h-147l47 131q-125 53 -184.5 170t-59.5 295zM270 485q0 -125 29.5 -203.5t99.5 -119.5l250 682 q-14 2 -29.5 3t-31.5 1q-172 0 -245 -87t-73 -276zM532 125q14 -2 28 -2h28q174 0 245.5 87t71.5 275q0 121 -29.5 200t-95.5 118z" />
<glyph unicode="&#xf9;" horiz-adv-x="1167" d="M133 356v615h168v-621q0 -121 60.5 -178t187.5 -57q90 0 170 32.5t137 90.5v733h168v-971h-152l-10 111q-70 -57 -166 -94t-211 -37q-174 0 -263 96t-89 280zM367 1413h151l146 -344h-136z" />
<glyph unicode="&#xfa;" horiz-adv-x="1167" d="M133 356v615h168v-621q0 -121 60.5 -178t187.5 -57q90 0 170 32.5t137 90.5v733h168v-971h-152l-10 111q-70 -57 -166 -94t-211 -37q-174 0 -263 96t-89 280zM481 1069l146 344h151l-162 -344h-135z" />
<glyph unicode="&#xfb;" horiz-adv-x="1167" d="M133 356v615h168v-621q0 -121 60.5 -178t187.5 -57q90 0 170 32.5t137 90.5v733h168v-971h-152l-10 111q-70 -57 -166 -94t-211 -37q-174 0 -263 96t-89 280zM272 1069l236 303h135l236 -303h-146l-158 209l-157 -209h-146z" />
<glyph unicode="&#xfc;" horiz-adv-x="1167" d="M133 356v615h168v-621q0 -121 60.5 -178t187.5 -57q90 0 170 32.5t137 90.5v733h168v-971h-152l-10 111q-70 -57 -166 -94t-211 -37q-174 0 -263 96t-89 280zM311 1110v154h160v-154h-160zM672 1110v154h159v-154h-159z" />
<glyph unicode="&#xfd;" horiz-adv-x="1196" d="M102 971h174l338 -783l349 783h172l-408 -928q-51 -117 -104.5 -208t-123 -143t-173.5 -52q-96 0 -168 26v135q35 -12 64.5 -16t60.5 -4q70 0 109.5 24.5t70.5 74.5t67 130zM528 1069l146 344h151l-161 -344h-136z" />
<glyph unicode="&#xfe;" horiz-adv-x="1177" d="M143 -442v1876h170v-535q133 92 324 92q205 0 321.5 -121.5t116.5 -386.5q0 -262 -116.5 -382.5t-323.5 -120.5q-190 0 -324 92v-514h-168zM311 211q51 -45 121 -70.5t158 -25.5q164 0 240.5 85t76.5 283q0 190 -71.5 281.5t-241.5 91.5q-84 0 -155.5 -28.5t-127.5 -88.5 v-528z" />
<glyph unicode="&#xff;" horiz-adv-x="1196" d="M102 971h174l338 -783l349 783h172l-408 -928q-51 -117 -104.5 -208t-123 -143t-173.5 -52q-96 0 -168 26v135q35 -12 64.5 -16t60.5 -4q70 0 109.5 24.5t70.5 74.5t67 130zM365 1130v154h159v-154h-159zM725 1130v154h160v-154h-160z" />
<glyph unicode="&#x100;" horiz-adv-x="1402" d="M102 0l502 1319h197l499 -1319h-172l-139 362h-573l-140 -362h-174zM406 1458v121h589v-121h-589zM444 496h514l-258 678z" />
<glyph unicode="&#x101;" horiz-adv-x="1107" d="M102 272q0 133 88.5 218t286.5 85h338v60q0 80 -21.5 127t-81 67.5t-173.5 20.5q-88 0 -170 -14.5t-154 -38.5v139q66 25 155 40t191 15q207 0 310.5 -84t103.5 -272v-635h-141l-13 111q-63 -66 -153.5 -98.5t-223.5 -32.5q-92 0 -169.5 32.5t-125 97t-47.5 162.5z M268 272q0 -88 59.5 -121.5t159.5 -33.5q106 0 188.5 38t139.5 103v188h-334q-115 0 -164 -43t-49 -131zM272 1118v121h590v-121h-590z" />
<glyph unicode="&#x102;" horiz-adv-x="1402" d="M102 0l502 1319h197l499 -1319h-172l-139 362h-573l-140 -362h-174zM440 1667h119q0 -78 38 -114.5t101 -36.5q68 0 106 36.5t38 114.5h119q0 -115 -67 -186.5t-196 -71.5q-127 0 -192.5 71.5t-65.5 186.5zM444 496h514l-258 678z" />
<glyph unicode="&#x103;" horiz-adv-x="1107" d="M102 272q0 133 88.5 218t286.5 85h338v60q0 80 -21.5 127t-81 67.5t-173.5 20.5q-88 0 -170 -14.5t-154 -38.5v139q66 25 155 40t191 15q207 0 310.5 -84t103.5 -272v-635h-141l-13 111q-63 -66 -153.5 -98.5t-223.5 -32.5q-92 0 -169.5 32.5t-125 97t-47.5 162.5z M268 272q0 -88 59.5 -121.5t159.5 -33.5q106 0 188.5 38t139.5 103v188h-334q-115 0 -164 -43t-49 -131zM322 1327h118q0 -78 38 -114.5t102 -36.5q68 0 105.5 36.5t37.5 114.5h119q0 -115 -66.5 -186.5t-195.5 -71.5q-127 0 -192.5 71.5t-65.5 186.5z" />
<glyph unicode="&#x104;" horiz-adv-x="1402" d="M102 0l502 1319h197l499 -1319h-40q-147 -111 -148 -246q0 -51 25.5 -69.5t76.5 -18.5q27 0 55.5 6t47.5 17v-115q-25 -12 -64 -18.5t-75 -6.5q-82 0 -142.5 42t-60.5 139q0 80 43 152.5t110 117.5l-139 362h-573l-140 -362h-174zM444 496h514l-258 678z" />
<glyph unicode="&#x105;" horiz-adv-x="1107" d="M102 272q0 133 88.5 218t286.5 85h338v60q0 80 -21.5 127t-81 67.5t-173.5 20.5q-88 0 -170 -14.5t-154 -38.5v139q66 25 155 40t191 15q207 0 310.5 -84t103.5 -272v-635q-82 -51 -119 -115.5t-37 -130.5q0 -51 25.5 -69.5t77.5 -18.5q27 0 55.5 6t46.5 17v-115 q-25 -12 -63.5 -18.5t-75.5 -6.5q-82 0 -142.5 42t-60.5 139q0 80 43 152.5t109 117.5l-13 111q-63 -66 -153 -98.5t-224 -32.5q-92 0 -169.5 32.5t-125 97t-47.5 162.5zM268 272q0 -88 59.5 -121.5t159.5 -33.5q106 0 188.5 38t139.5 103v188h-334q-115 0 -164 -43 t-49 -131z" />
<glyph unicode="&#x106;" horiz-adv-x="1218" d="M102 631q0 215 65.5 374.5t205 246.5t360.5 87q115 0 208 -16t175 -45v-148q-82 31 -174 48.5t-194 17.5q-178 0 -283 -67.5t-150 -194.5t-45 -303q0 -244 116 -376t366 -132q92 0 187 14.5t177 44.5v-149q-80 -25 -173 -39t-208 -14q-213 0 -353 80.5t-210 227 t-70 343.5zM621 1409l145 344h152l-162 -344h-135z" />
<glyph unicode="&#x107;" horiz-adv-x="1003" d="M102 485q0 256 139.5 381t374.5 125q96 0 160 -13t123 -42v-133q-111 53 -252 53q-180 0 -278.5 -85t-98.5 -286q0 -193 86 -281.5t285 -88.5q141 0 260 53v-135q-63 -27 -136 -40t-163 -13q-254 0 -377 132t-123 373zM471 1069l145 344h152l-162 -344h-135z" />
<glyph unicode="&#x108;" horiz-adv-x="1218" d="M102 631q0 215 65.5 374.5t205 246.5t360.5 87q115 0 208 -16t175 -45v-148q-82 31 -174 48.5t-194 17.5q-178 0 -283 -67.5t-150 -194.5t-45 -303q0 -244 116 -376t366 -132q92 0 187 14.5t177 44.5v-149q-80 -25 -173 -39t-208 -14q-213 0 -353 80.5t-210 227 t-70 343.5zM375 1409l235 303h135l236 -303h-145l-158 209l-158 -209h-145z" />
<glyph unicode="&#x109;" horiz-adv-x="1003" d="M102 485q0 256 139.5 381t374.5 125q96 0 160 -13t123 -42v-133q-111 53 -252 53q-180 0 -278.5 -85t-98.5 -286q0 -193 86 -281.5t285 -88.5q141 0 260 53v-135q-63 -27 -136 -40t-163 -13q-254 0 -377 132t-123 373zM250 1069l235 303h136l235 -303h-145l-158 209 l-158 -209h-145z" />
<glyph unicode="&#x10a;" horiz-adv-x="1218" d="M102 631q0 215 65.5 374.5t205 246.5t360.5 87q115 0 208 -16t175 -45v-148q-82 31 -174 48.5t-194 17.5q-178 0 -283 -67.5t-150 -194.5t-45 -303q0 -244 116 -376t366 -132q92 0 187 14.5t177 44.5v-149q-80 -25 -173 -39t-208 -14q-213 0 -353 80.5t-210 227 t-70 343.5zM639 1454v158h164v-158h-164z" />
<glyph unicode="&#x10b;" horiz-adv-x="1003" d="M102 485q0 256 139.5 381t374.5 125q96 0 160 -13t123 -42v-133q-111 53 -252 53q-180 0 -278.5 -85t-98.5 -286q0 -193 86 -281.5t285 -88.5q141 0 260 53v-135q-63 -27 -136 -40t-163 -13q-254 0 -377 132t-123 373zM496 1114v158h163v-158h-163z" />
<glyph unicode="&#x10c;" horiz-adv-x="1218" d="M102 631q0 215 65.5 374.5t205 246.5t360.5 87q115 0 208 -16t175 -45v-148q-82 31 -174 48.5t-194 17.5q-178 0 -283 -67.5t-150 -194.5t-45 -303q0 -244 116 -376t366 -132q92 0 187 14.5t177 44.5v-149q-80 -25 -173 -39t-208 -14q-213 0 -353 80.5t-210 227 t-70 343.5zM428 1712h145l158 -209l158 209h145l-235 -303h-135z" />
<glyph unicode="&#x10d;" horiz-adv-x="1003" d="M102 485q0 256 139.5 381t374.5 125q96 0 160 -13t123 -42v-133q-111 53 -252 53q-180 0 -278.5 -85t-98.5 -286q0 -193 86 -281.5t285 -88.5q141 0 260 53v-135q-63 -27 -136 -40t-163 -13q-254 0 -377 132t-123 373zM250 1372h145l158 -209l158 209h145l-235 -303h-136 z" />
<glyph unicode="&#x10e;" horiz-adv-x="1314" d="M143 0v1319h516q287 0 420 -155.5t133 -512.5q0 -338 -130 -494.5t-423 -156.5h-516zM307 1712h146l157 -209l158 209h145l-235 -303h-135zM311 131h318q139 0 231 42t138 154.5t46 323.5q0 209 -41.5 326t-133 163t-240.5 46h-318v-1055z" />
<glyph unicode="&#x10f;" horiz-adv-x="1355" d="M102 471q0 262 122 391t327 129q182 0 315 -92v481h168v-1380h-143l-12 102q-68 -63 -148.5 -92.5t-189.5 -29.5q-205 0 -322 113.5t-117 377.5zM270 471q0 -190 72 -273t242 -83q84 0 155.5 28.5t126.5 87.5v529q-51 45 -120.5 70.5t-157.5 25.5q-162 0 -240 -93 t-78 -292zM1153 1018l57 362h152l-86 -362h-123z" />
<glyph unicode="&#x110;" horiz-adv-x="1359" d="M41 582v133h147v604h517q287 0 419.5 -155.5t132.5 -512.5q0 -338 -130 -494.5t-422 -156.5h-517v582h-147zM356 131h318q139 0 231 42t138.5 154.5t46.5 323.5q0 209 -42 326t-133.5 163t-240.5 46h-318v-471h371v-133h-371v-451z" />
<glyph unicode="&#x111;" horiz-adv-x="1173" d="M102 471q0 262 122 391t327 129q182 0 315 -92v215h-379v133h379v133h168v-133h99v-133h-99v-1114h-143l-12 102q-68 -63 -148.5 -92.5t-189.5 -29.5q-205 0 -322 113.5t-117 377.5zM270 471q0 -190 72 -273t242 -83q84 0 155.5 28.5t126.5 87.5v529q-51 45 -120.5 70.5 t-157.5 25.5q-162 0 -240 -93t-78 -292z" />
<glyph unicode="&#x112;" horiz-adv-x="1136" d="M143 0v1319h891v-133h-723v-461h650v-131h-650v-463h723v-131h-891zM266 1475v120h590v-120h-590z" />
<glyph unicode="&#x113;" horiz-adv-x="1091" d="M102 489q0 233 112 367.5t353 134.5q143 0 236.5 -52t139.5 -143t46 -206v-182h-719q8 -111 48 -174.5t121 -91t214 -27.5q150 0 275 51v-131q-63 -27 -142 -41t-165 -14q-260 0 -389.5 124.5t-129.5 384.5zM270 528h570v80q0 119 -62.5 183.5t-206.5 64.5 q-174 0 -237.5 -82t-63.5 -246zM279 1135v120h589v-120h-589z" />
<glyph unicode="&#x114;" horiz-adv-x="1136" d="M143 0v1319h891v-133h-723v-461h650v-131h-650v-463h723v-131h-891zM326 1667h118q0 -78 38 -114.5t102 -36.5q68 0 105.5 36.5t37.5 114.5h119q0 -115 -66.5 -186.5t-195.5 -71.5q-127 0 -192.5 71.5t-65.5 186.5z" />
<glyph unicode="&#x115;" horiz-adv-x="1091" d="M102 489q0 233 112 367.5t353 134.5q143 0 236.5 -52t139.5 -143t46 -206v-182h-719q8 -111 48 -174.5t121 -91t214 -27.5q150 0 275 51v-131q-63 -27 -142 -41t-165 -14q-260 0 -389.5 124.5t-129.5 384.5zM270 528h570v80q0 119 -62.5 183.5t-206.5 64.5 q-174 0 -237.5 -82t-63.5 -246zM293 1327h119q0 -78 37.5 -114.5t101.5 -36.5q68 0 105.5 36.5t37.5 114.5h119q0 -115 -66.5 -186.5t-195.5 -71.5q-127 0 -192.5 71.5t-65.5 186.5z" />
<glyph unicode="&#x116;" horiz-adv-x="1136" d="M143 0v1319h891v-133h-723v-461h650v-131h-650v-463h723v-131h-891zM489 1454v158h164v-158h-164z" />
<glyph unicode="&#x117;" horiz-adv-x="1091" d="M102 489q0 233 112 367.5t353 134.5q143 0 236.5 -52t139.5 -143t46 -206v-182h-719q8 -111 48 -174.5t121 -91t214 -27.5q150 0 275 51v-131q-63 -27 -142 -41t-165 -14q-260 0 -389.5 124.5t-129.5 384.5zM270 528h570v80q0 119 -62.5 183.5t-206.5 64.5 q-174 0 -237.5 -82t-63.5 -246zM467 1114v158h164v-158h-164z" />
<glyph unicode="&#x118;" horiz-adv-x="1136" d="M143 0v1319h891v-133h-723v-461h650v-131h-650v-463h723v-131h-76q-147 -111 -147 -246q0 -51 25.5 -69.5t76.5 -18.5q27 0 55.5 6t47.5 17v-115q-25 -12 -64 -18.5t-75 -6.5q-82 0 -142.5 42t-60.5 139q0 80 43 152.5t110 117.5h-684z" />
<glyph unicode="&#x119;" horiz-adv-x="1091" d="M102 489q0 233 112 367.5t353 134.5q143 0 236.5 -52t139.5 -143t46 -206v-182h-719q8 -111 48 -174.5t121 -91t214 -27.5q150 0 275 51v-131q-51 -23 -117 -37q-145 -109 -145 -244q0 -51 25.5 -69.5t76.5 -18.5q27 0 55.5 6t46.5 17v-115q-25 -12 -63.5 -18.5 t-75.5 -6.5q-82 0 -142.5 42t-60.5 139q0 72 35 137t92 113h-34q-260 0 -389.5 124.5t-129.5 384.5zM270 528h570v80q0 119 -62.5 183.5t-206.5 64.5q-174 0 -237.5 -82t-63.5 -246z" />
<glyph unicode="&#x11a;" horiz-adv-x="1136" d="M143 0v1319h891v-133h-723v-461h650v-131h-650v-463h723v-131h-891zM285 1712h145l158 -209l157 209h146l-236 -303h-135z" />
<glyph unicode="&#x11b;" horiz-adv-x="1091" d="M102 489q0 233 112 367.5t353 134.5q143 0 236.5 -52t139.5 -143t46 -206v-182h-719q8 -111 48 -174.5t121 -91t214 -27.5q150 0 275 51v-131q-63 -27 -142 -41t-165 -14q-260 0 -389.5 124.5t-129.5 384.5zM260 1372h146l157 -209l158 209h145l-235 -303h-135zM270 528 h570v80q0 119 -62.5 183.5t-206.5 64.5q-174 0 -237.5 -82t-63.5 -246z" />
<glyph unicode="&#x11c;" horiz-adv-x="1308" d="M102 631q0 215 65.5 374.5t205 246.5t360.5 87q115 0 208 -16t175 -45v-148q-82 31 -174 48.5t-194 17.5q-178 0 -283 -67.5t-150 -194.5t-45 -303q0 -244 113 -376t362 -132q88 0 170 14.5t146 38.5v420h-352v115h497v-627q-59 -39 -173 -71.5t-298 -32.5 q-213 0 -353 80.5t-210 227t-70 343.5zM426 1409l236 303h135l235 -303h-145l-158 209l-158 -209h-145z" />
<glyph unicode="&#x11d;" horiz-adv-x="1120" d="M102 643q0 182 105.5 265t322.5 83q45 0 93.5 -7t74.5 -13h351l-7 -115h-176q47 -39 67.5 -93t20.5 -120q0 -162 -94 -251t-289 -89q-33 0 -58.5 3l-59.5 7q-63 -2 -118.5 -35.5t-55.5 -87.5q0 -35 27.5 -51t101.5 -16h268q145 0 223 -58.5t78 -170.5q0 -143 -119 -198.5 t-338 -55.5q-109 0 -212 12t-177 39v139q82 -27 184.5 -41t196.5 -14q154 0 225.5 18.5t71.5 93.5q0 53 -38 76t-134 23h-258q-268 0 -268 180q0 59 37.5 113.5t113.5 76.5q-82 41 -121 114t-39 173zM238 1069l235 303h135l236 -303h-146l-157 209l-158 -209h-145zM270 643 q0 -113 58.5 -163t201.5 -50q145 0 200.5 47t55.5 166t-58 172t-198 53q-137 0 -198.5 -51t-61.5 -174z" />
<glyph unicode="&#x11e;" horiz-adv-x="1308" d="M102 631q0 215 65.5 374.5t205 246.5t360.5 87q115 0 208 -16t175 -45v-148q-82 31 -174 48.5t-194 17.5q-178 0 -283 -67.5t-150 -194.5t-45 -303q0 -244 113 -376t362 -132q88 0 170 14.5t146 38.5v420h-352v115h497v-627q-59 -39 -173 -71.5t-298 -32.5 q-213 0 -353 80.5t-210 227t-70 343.5zM457 1667h118q0 -78 38 -114.5t102 -36.5q68 0 105.5 36.5t37.5 114.5h119q0 -115 -66.5 -186.5t-195.5 -71.5q-127 0 -192.5 71.5t-65.5 186.5z" />
<glyph unicode="&#x11f;" horiz-adv-x="1120" d="M102 643q0 182 105.5 265t322.5 83q45 0 93.5 -7t74.5 -13h351l-7 -115h-176q47 -39 67.5 -93t20.5 -120q0 -162 -94 -251t-289 -89q-33 0 -58.5 3l-59.5 7q-63 -2 -118.5 -35.5t-55.5 -87.5q0 -35 27.5 -51t101.5 -16h268q145 0 223 -58.5t78 -170.5q0 -143 -119 -198.5 t-338 -55.5q-109 0 -212 12t-177 39v139q82 -27 184.5 -41t196.5 -14q154 0 225.5 18.5t71.5 93.5q0 53 -38 76t-134 23h-258q-268 0 -268 180q0 59 37.5 113.5t113.5 76.5q-82 41 -121 114t-39 173zM270 643q0 -113 58.5 -163t201.5 -50q145 0 200.5 47t55.5 166t-58 172 t-198 53q-137 0 -198.5 -51t-61.5 -174zM285 1327h118q0 -78 38 -114.5t102 -36.5q68 0 105.5 36.5t37.5 114.5h119q0 -115 -66.5 -186.5t-195.5 -71.5q-127 0 -192.5 71.5t-65.5 186.5z" />
<glyph unicode="&#x120;" horiz-adv-x="1308" d="M102 631q0 215 65.5 374.5t205 246.5t360.5 87q115 0 208 -16t175 -45v-148q-82 31 -174 48.5t-194 17.5q-178 0 -283 -67.5t-150 -194.5t-45 -303q0 -244 113 -376t362 -132q88 0 170 14.5t146 38.5v420h-352v115h497v-627q-59 -39 -173 -71.5t-298 -32.5 q-213 0 -353 80.5t-210 227t-70 343.5zM639 1454v158h164v-158h-164z" />
<glyph unicode="&#x121;" horiz-adv-x="1120" d="M102 643q0 182 105.5 265t322.5 83q45 0 93.5 -7t74.5 -13h351l-7 -115h-176q47 -39 67.5 -93t20.5 -120q0 -162 -94 -251t-289 -89q-33 0 -58.5 3l-59.5 7q-63 -2 -118.5 -35.5t-55.5 -87.5q0 -35 27.5 -51t101.5 -16h268q145 0 223 -58.5t78 -170.5q0 -143 -119 -198.5 t-338 -55.5q-109 0 -212 12t-177 39v139q82 -27 184.5 -41t196.5 -14q154 0 225.5 18.5t71.5 93.5q0 53 -38 76t-134 23h-258q-268 0 -268 180q0 59 37.5 113.5t113.5 76.5q-82 41 -121 114t-39 173zM270 643q0 -113 58.5 -163t201.5 -50q145 0 200.5 47t55.5 166t-58 172 t-198 53q-137 0 -198.5 -51t-61.5 -174zM451 1104v158h163v-158h-163z" />
<glyph unicode="&#x122;" horiz-adv-x="1308" d="M102 631q0 215 65.5 374.5t205 246.5t360.5 87q115 0 208 -16t175 -45v-148q-82 31 -174 48.5t-194 17.5q-178 0 -283 -67.5t-150 -194.5t-45 -303q0 -244 113 -376t362 -132q88 0 170 14.5t146 38.5v420h-352v115h497v-627q-59 -39 -173 -71.5t-298 -32.5 q-213 0 -353 80.5t-210 227t-70 343.5zM627 -459l57 363h152l-86 -363h-123z" />
<glyph unicode="&#x123;" horiz-adv-x="1120" d="M102 643q0 182 105.5 265t322.5 83q45 0 93.5 -7t74.5 -13h351l-7 -115h-176q47 -39 67.5 -93t20.5 -120q0 -162 -94 -251t-289 -89q-33 0 -58.5 3l-59.5 7q-63 -2 -118.5 -35.5t-55.5 -87.5q0 -35 27.5 -51t101.5 -16h268q145 0 223 -58.5t78 -170.5q0 -143 -119 -198.5 t-338 -55.5q-109 0 -212 12t-177 39v139q82 -27 184.5 -41t196.5 -14q154 0 225.5 18.5t71.5 93.5q0 53 -38 76t-134 23h-258q-268 0 -268 180q0 59 37.5 113.5t113.5 76.5q-82 41 -121 114t-39 173zM270 643q0 -113 58.5 -163t201.5 -50q145 0 200.5 47t55.5 166t-58 172 t-198 53q-137 0 -198.5 -51t-61.5 -174zM444 1069l86 363h123l-57 -363h-152z" />
<glyph unicode="&#x124;" horiz-adv-x="1318" d="M143 0v1319h168v-594h697v594h168v-1319h-168v594h-697v-594h-168zM356 1409l236 303h135l236 -303h-146l-158 209l-157 -209h-146z" />
<glyph unicode="&#x125;" horiz-adv-x="1167" d="M143 0v1380h168v-514q68 55 159 90t212 35q176 0 264 -86t88 -270v-635h-168v629q0 127 -56 177t-185 50q-82 0 -169 -36t-145 -93v-727h-168zM156 1436l235 303h135l236 -303h-146l-157 209l-158 -209h-145z" />
<glyph unicode="&#x126;" horiz-adv-x="1318" d="M20 950v133h123v236h168v-236h697v236h168v-236h122v-133h-122v-950h-168v594h-697v-594h-168v950h-123zM311 725h697v225h-697v-225z" />
<glyph unicode="&#x127;" horiz-adv-x="1202" d="M61 1114v133h117v133h168v-133h340v-133h-340v-248q68 55 159 90t212 35q176 0 264 -86t88 -270v-635h-168v629q0 127 -56.5 177t-185.5 50q-82 0 -169 -36t-144 -93v-727h-168v1114h-117z" />
<glyph unicode="&#x128;" horiz-adv-x="454" d="M-84 1425v129q25 29 74 45.5t96 16.5q57 0 105.5 -19.5t94.5 -39t95 -19.5q104 0 158 74v-131q-20 -27 -62.5 -44.5t-95.5 -17.5t-104.5 19.5t-98.5 39t-92 19.5q-49 0 -92 -15.5t-78 -56.5zM143 0v1319h168v-1319h-168z" />
<glyph unicode="&#x129;" horiz-adv-x="604" d="M-6 1085v129q25 29 74 45.5t96 16.5q57 0 105 -19.5t94.5 -39t95.5 -19.5q104 0 157 74v-131q-20 -27 -62 -44.5t-95 -17.5t-104.5 19.5t-98.5 39t-92 19.5q-49 0 -92 -15.5t-78 -56.5zM143 838l17 133h301v-971h-168v838h-150z" />
<glyph unicode="&#x12a;" horiz-adv-x="454" d="M-68 1475v120h590v-120h-590zM143 0v1319h168v-1319h-168z" />
<glyph unicode="&#x12b;" horiz-adv-x="604" d="M8 1149v121h590v-121h-590zM143 838l17 133h301v-971h-168v838h-150z" />
<glyph unicode="&#x12c;" horiz-adv-x="454" d="M-33 1681h119q0 -78 38 -114.5t101 -36.5q68 0 106 37t38 114h118q0 -115 -66.5 -186.5t-195.5 -71.5q-127 0 -192.5 72t-65.5 186zM143 0v1319h168v-1319h-168z" />
<glyph unicode="&#x12d;" horiz-adv-x="604" d="M66 1325h118q0 -78 38 -114.5t102 -36.5q68 0 105.5 36.5t37.5 114.5h119q0 -115 -66.5 -186.5t-195.5 -71.5q-127 0 -192.5 71.5t-65.5 186.5zM143 838l17 133h301v-971h-168v838h-150z" />
<glyph unicode="&#x12e;" horiz-adv-x="454" d="M14 -270q0 80 43 152.5t111 117.5h-25v1319h168v-1319h-12q-147 -111 -147 -246q0 -51 25.5 -69.5t76.5 -18.5q27 0 55.5 6t46.5 17v-115q-25 -12 -63.5 -18.5t-75.5 -6.5q-82 0 -142.5 42t-60.5 139z" />
<glyph unicode="&#x12f;" horiz-adv-x="565" d="M102 -270q0 80 43 152.5t111 117.5h-4v838h-150l17 133h301v-971h-33q-147 -111 -147 -246q0 -51 25.5 -69.5t76.5 -18.5q27 0 55.5 6t46.5 17v-115q-25 -12 -63.5 -18.5t-75.5 -6.5q-82 0 -142.5 42t-60.5 139zM236 1198v154h186v-154h-186z" />
<glyph unicode="&#x130;" horiz-adv-x="454" d="M143 0v1319h168v-1319h-168zM145 1458v158h164v-158h-164z" />
<glyph unicode="&#x131;" horiz-adv-x="563" d="M102 838l17 133h301v-971h-168v838h-150z" />
<glyph unicode="&#x132;" horiz-adv-x="1286" d="M143 0v1319h168v-1319h-168zM473 27v143q49 -20 119 -34.5t137 -14.5q145 0 200.5 61.5t55.5 192.5v944h168v-957q0 -180 -99 -281t-304 -101q-82 0 -153 13t-124 34z" />
<glyph unicode="&#x133;" horiz-adv-x="995" d="M102 838l17 133h301v-971h-168v838h-150zM236 1198v154h186v-154h-186zM373 -317q35 -10 66.5 -15.5t58.5 -5.5q111 0 148.5 37t37.5 123v1016h-149l16 133h301v-1164q0 -131 -76 -208.5t-221 -77.5q-102 0 -182 28v134zM666 1198v154h186v-154h-186z" />
<glyph unicode="&#x134;" horiz-adv-x="874" d="M61 27v143q49 -20 119 -34.5t137 -14.5q145 0 200.5 61.5t55.5 192.5v944h168v-957q0 -180 -99 -281t-304 -101q-82 0 -152.5 13t-124.5 34zM350 1409l236 303h135l235 -303h-145l-158 209l-157 -209h-146z" />
<glyph unicode="&#x135;" horiz-adv-x="602" d="M-20 -317q35 -10 66.5 -15.5t57.5 -5.5q111 0 149 37t38 123v1016h-150l17 133h301v-1164q0 -131 -76 -208.5t-221 -77.5q-102 0 -182 28v134zM49 1069l236 303h135l235 -303h-145l-158 209l-157 -209h-146z" />
<glyph unicode="&#x136;" horiz-adv-x="1243" d="M143 0v1319h168v-653l617 653h196l-491 -528l508 -791h-180l-435 682l-215 -227v-455h-168zM506 -438l57 362h152l-86 -362h-123z" />
<glyph unicode="&#x137;" horiz-adv-x="1085" d="M143 0v1380h168v-837l455 428h195l-398 -385l420 -586h-176l-350 496l-146 -138v-358h-168zM418 -438l57 362h152l-86 -362h-123z" />
<glyph unicode="&#x138;" horiz-adv-x="1085" d="M143 0v971h168v-467l455 467h195l-398 -414l420 -557h-176l-348 465l-148 -152v-313h-168z" />
<glyph unicode="&#x139;" horiz-adv-x="1075" d="M143 0v1319h168v-1188h703v-131h-871zM143 1409l146 344h151l-161 -344h-136z" />
<glyph unicode="&#x13a;" horiz-adv-x="538" d="M143 209v1171h168v-1153q0 -61 20.5 -83.5t63.5 -22.5q47 0 92 12v-133q-33 -12 -65.5 -16t-67.5 -4q-98 0 -154.5 52t-56.5 177zM143 1491l146 344h151l-161 -344h-136z" />
<glyph unicode="&#x13b;" horiz-adv-x="1075" d="M143 0v1319h168v-1188h703v-131h-871zM453 -438l57 362h152l-87 -362h-122z" />
<glyph unicode="&#x13c;" horiz-adv-x="538" d="M143 209v1171h168v-1153q0 -61 20.5 -83.5t63.5 -22.5q47 0 92 12v-133q-33 -12 -65.5 -16t-67.5 -4q-98 0 -154.5 52t-56.5 177zM217 -438l57 362h152l-86 -362h-123z" />
<glyph unicode="&#x13d;" horiz-adv-x="1075" d="M143 0v1319h168v-1188h703v-131h-871zM616 956l58 363h151l-86 -363h-123z" />
<glyph unicode="&#x13e;" horiz-adv-x="665" d="M143 209v1171h168v-1153q0 -61 20.5 -83.5t63.5 -22.5q47 0 92 12v-133q-33 -12 -65.5 -16t-67.5 -4q-98 0 -154.5 52t-56.5 177zM430 1018l57 362h152l-86 -362h-123z" />
<glyph unicode="&#x13f;" horiz-adv-x="1075" d="M143 0v1319h168v-1188h703v-131h-871zM709 530v158h163v-158h-163z" />
<glyph unicode="&#x140;" horiz-adv-x="638" d="M143 209v1171h168v-1153q0 -61 20.5 -83.5t63.5 -22.5q47 0 92 12v-133q-33 -12 -65.5 -16t-67.5 -4q-98 0 -154.5 52t-56.5 177zM469 545v157h164v-157h-164z" />
<glyph unicode="&#x141;" horiz-adv-x="1075" d="M-61 479v146l204 90v604h168v-531l275 121v-145l-275 -121v-512h703v-131h-871v569z" />
<glyph unicode="&#x142;" horiz-adv-x="538" d="M-78 479v146l221 98v657h168v-583l258 112v-145l-258 -113v-424q0 -61 20.5 -83.5t63.5 -22.5q47 0 92 12v-133q-33 -12 -65.5 -16t-67.5 -4q-98 0 -154.5 52t-56.5 177v369z" />
<glyph unicode="&#x143;" horiz-adv-x="1357" d="M143 0v1319h152l752 -1061v1061h167v-1319h-153l-750 1059v-1059h-168zM606 1409l146 344h151l-162 -344h-135z" />
<glyph unicode="&#x144;" horiz-adv-x="1167" d="M143 0v971h152l10 -111q70 57 163 94t214 37q184 0 268 -86t84 -270v-635h-168v629q0 127 -51 177t-197 50q-90 0 -169.5 -32.5t-137.5 -90.5v-733h-168zM485 1069l146 344h151l-161 -344h-136z" />
<glyph unicode="&#x145;" horiz-adv-x="1357" d="M143 0v1319h152l752 -1061v1061h167v-1319h-153l-750 1059v-1059h-168zM571 -438l58 362h151l-86 -362h-123z" />
<glyph unicode="&#x146;" horiz-adv-x="1167" d="M143 0v971h152l10 -111q70 57 163 94t214 37q184 0 268 -86t84 -270v-635h-168v629q0 127 -51 177t-197 50q-90 0 -169.5 -32.5t-137.5 -90.5v-733h-168zM477 -438l58 362h151l-86 -362h-123z" />
<glyph unicode="&#x147;" horiz-adv-x="1357" d="M143 0v1319h152l752 -1061v1061h167v-1319h-153l-750 1059v-1059h-168zM406 1712h145l158 -209l157 209h146l-236 -303h-135z" />
<glyph unicode="&#x148;" horiz-adv-x="1167" d="M143 0v971h152l10 -111q70 57 163 94t214 37q184 0 268 -86t84 -270v-635h-168v629q0 127 -51 177t-197 50q-90 0 -169.5 -32.5t-137.5 -90.5v-733h-168zM258 1372h145l158 -209l158 209h145l-235 -303h-135z" />
<glyph unicode="&#x149;" horiz-adv-x="1345" d="M68 967l57 362h151l-86 -362h-122zM322 0v971h151l10 -111q70 57 163 94t214 37q184 0 268 -86t84 -270v-635h-168v629q0 127 -51 177t-196 50q-90 0 -170 -32.5t-138 -90.5v-733h-167z" />
<glyph unicode="&#x14a;" horiz-adv-x="1357" d="M143 0v1319h152l752 -1061v1061h167v-1512q0 -131 -75.5 -208.5t-220.5 -77.5q-102 0 -183 28v134q35 -10 67 -15.5t58 -5.5q111 0 149 37t38 123v198l-736 1039v-1059h-168z" />
<glyph unicode="&#x14b;" horiz-adv-x="1167" d="M143 0v971h152l10 -111q70 57 163 94t214 37q184 0 268 -86t84 -270v-828q0 -131 -76 -208.5t-221 -77.5q-102 0 -182 28v134q35 -10 66.5 -15.5t58.5 -5.5q111 0 148.5 37t37.5 123v807q0 127 -51 177t-197 50q-90 0 -169.5 -32.5t-137.5 -90.5v-733h-168z" />
<glyph unicode="&#x14c;" horiz-adv-x="1421" d="M102 659q0 354 149.5 517t459.5 163q311 0 459.5 -162.5t148.5 -517.5q0 -354 -148.5 -516.5t-459.5 -162.5q-309 0 -459 162.5t-150 516.5zM270 659q0 -199 48.5 -316.5t145.5 -168.5t247 -51t247 51t145 169t48 316q0 199 -48 317t-145.5 169t-246.5 51 q-150 0 -247 -51t-145.5 -169t-48.5 -317zM416 1475v120h590v-120h-590z" />
<glyph unicode="&#x14d;" horiz-adv-x="1175" d="M102 485q0 244 117 375t369 131t368.5 -131t116.5 -375q0 -246 -114.5 -375.5t-370.5 -129.5q-254 0 -370 130t-116 375zM270 485q0 -188 72 -275t246 -87t245.5 87t71.5 275t-72.5 275.5t-244.5 87.5t-245 -87t-73 -276zM293 1135v120h590v-120h-590z" />
<glyph unicode="&#x14e;" horiz-adv-x="1421" d="M102 659q0 354 149.5 517t459.5 163q311 0 459.5 -162.5t148.5 -517.5q0 -354 -148.5 -516.5t-459.5 -162.5q-309 0 -459 162.5t-150 516.5zM270 659q0 -199 48.5 -316.5t145.5 -168.5t247 -51t247 51t145 169t48 316q0 199 -48 317t-145.5 169t-246.5 51 q-150 0 -247 -51t-145.5 -169t-48.5 -317zM451 1667h118q0 -78 38 -114.5t102 -36.5q68 0 105.5 36.5t37.5 114.5h119q0 -115 -66.5 -186.5t-195.5 -71.5q-127 0 -192.5 71.5t-65.5 186.5z" />
<glyph unicode="&#x14f;" horiz-adv-x="1175" d="M102 485q0 244 117 375t369 131t368.5 -131t116.5 -375q0 -246 -114.5 -375.5t-370.5 -129.5q-254 0 -370 130t-116 375zM270 485q0 -188 72 -275t246 -87t245.5 87t71.5 275t-72.5 275.5t-244.5 87.5t-245 -87t-73 -276zM328 1327h118q0 -78 38 -114.5t102 -36.5 q68 0 105.5 36.5t37.5 114.5h119q0 -115 -66.5 -186.5t-195.5 -71.5q-127 0 -192.5 71.5t-65.5 186.5z" />
<glyph unicode="&#x150;" horiz-adv-x="1421" d="M102 659q0 354 149.5 517t459.5 163q311 0 459.5 -162.5t148.5 -517.5q0 -354 -148.5 -516.5t-459.5 -162.5q-309 0 -459 162.5t-150 516.5zM270 659q0 -199 48.5 -316.5t145.5 -168.5t247 -51t247 51t145 169t48 316q0 199 -48 317t-145.5 169t-246.5 51 q-150 0 -247 -51t-145.5 -169t-48.5 -317zM385 1409l145 311h160l-166 -311h-139zM807 1409l145 311h160l-166 -311h-139z" />
<glyph unicode="&#x151;" horiz-adv-x="1175" d="M102 485q0 244 117 375t369 131t368.5 -131t116.5 -375q0 -246 -114.5 -375.5t-370.5 -129.5q-254 0 -370 130t-116 375zM270 485q0 -188 72 -275t246 -87t245.5 87t71.5 275t-72.5 275.5t-244.5 87.5t-245 -87t-73 -276zM311 1069l146 311h159l-165 -311h-140zM733 1069 l146 311h159l-166 -311h-139z" />
<glyph unicode="&#x152;" horiz-adv-x="2144" d="M102 659q0 354 149.5 517t459.5 163q293 0 440 -143v123h891v-133h-723v-461h649v-131h-649v-463h723v-131h-891v123q-147 -143 -440 -143q-309 0 -459 162.5t-150 516.5zM270 659q0 -199 48.5 -316.5t145.5 -168.5t247 -51t247 51t145 169t48 316q0 199 -48 317 t-145.5 169t-246.5 51q-150 0 -247 -51t-145.5 -169t-48.5 -317z" />
<glyph unicode="&#x153;" horiz-adv-x="1894" d="M102 485q0 244 117 375t369 131q145 0 244.5 -44t156.5 -128q55 84 149.5 128t231.5 44q143 0 236.5 -52t139.5 -143t46 -206v-182h-719q8 -111 48 -174.5t121 -91t214 -27.5q150 0 275 51v-131q-63 -27 -142.5 -41t-165.5 -14q-307 0 -430 174q-57 -86 -157.5 -130 t-247.5 -44q-254 0 -370 130t-116 375zM270 485q0 -188 72 -275t246 -87t245.5 87t71.5 275t-72.5 275.5t-244.5 87.5t-245 -87t-73 -276zM1073 528h569v80q0 119 -62 183.5t-206 64.5q-174 0 -237.5 -82t-63.5 -246z" />
<glyph unicode="&#x154;" horiz-adv-x="1232" d="M143 0v1319h580q213 0 310 -110.5t97 -299.5q0 -145 -70.5 -241.5t-209.5 -128.5q41 -25 62.5 -56.5t43.5 -85.5l172 -397h-172l-168 383q-27 61 -64.5 88t-133.5 27h-279v-498h-168zM311 629h365q133 0 210 66.5t77 213.5q0 276 -265 277h-387v-557zM502 1409l145 344 h152l-162 -344h-135z" />
<glyph unicode="&#x155;" horiz-adv-x="729" d="M143 0v971h152l12 -123q72 47 169 86t192 57v-131q-57 -12 -125 -33.5t-129.5 -48t-102.5 -55.5v-723h-168zM160 1069l145 344h152l-162 -344h-135z" />
<glyph unicode="&#x156;" horiz-adv-x="1232" d="M143 0v1319h580q213 0 310 -110.5t97 -299.5q0 -145 -70.5 -241.5t-209.5 -128.5q41 -25 62.5 -56.5t43.5 -85.5l172 -397h-172l-168 383q-27 61 -64.5 88t-133.5 27h-279v-498h-168zM311 629h365q133 0 210 66.5t77 213.5q0 276 -265 277h-387v-557zM453 -438l57 362 h152l-87 -362h-122z" />
<glyph unicode="&#x157;" horiz-adv-x="729" d="M88 -438l57 362h152l-86 -362h-123zM143 0v971h152l12 -123q72 47 169 86t192 57v-131q-57 -12 -125 -33.5t-129.5 -48t-102.5 -55.5v-723h-168z" />
<glyph unicode="&#x158;" horiz-adv-x="1232" d="M143 0v1319h580q213 0 310 -110.5t97 -299.5q0 -145 -70.5 -241.5t-209.5 -128.5q41 -25 62.5 -56.5t43.5 -85.5l172 -397h-172l-168 383q-27 61 -64.5 88t-133.5 27h-279v-498h-168zM289 1712h145l158 -209l158 209h145l-236 -303h-135zM311 629h365q133 0 210 66.5 t77 213.5q0 276 -265 277h-387v-557z" />
<glyph unicode="&#x159;" horiz-adv-x="729" d="M78 1372h145l158 -209l158 209h145l-235 -303h-136zM143 0v971h152l12 -123q72 47 169 86t192 57v-131q-57 -12 -125 -33.5t-129.5 -48t-102.5 -55.5v-723h-168z" />
<glyph unicode="&#x15a;" horiz-adv-x="1138" d="M102 977q0 168 121 265t369 97q115 0 213 -16t151 -35v-147q-74 27 -159.5 41t-178.5 14q-168 0 -258 -49t-90 -170q0 -68 32 -110t107.5 -71.5t211.5 -62.5q162 -39 252 -93t126.5 -128t36.5 -168q0 -174 -127 -269t-379 -95q-246 0 -397 61v149q86 -33 183.5 -50 t199.5 -17q176 0 264 48t88 173q0 78 -35.5 124t-117.5 78t-219 64q-217 53 -305.5 138.5t-88.5 228.5zM457 1409l145 344h152l-162 -344h-135z" />
<glyph unicode="&#x15b;" horiz-adv-x="935" d="M102 725q0 129 90.5 197.5t290.5 68.5q78 0 150 -11t125 -28v-147q-129 43 -248 43q-127 0 -183.5 -25.5t-56.5 -95.5q0 -47 26 -74.5t80 -47t140 -48.5q113 -35 182.5 -71.5t102.5 -90t33 -139.5q0 -143 -100.5 -209.5t-284.5 -66.5q-94 0 -179.5 12t-142.5 33v147 q70 -25 146.5 -37t152.5 -12q129 0 184.5 27.5t55.5 103.5q0 55 -30 84t-90.5 51.5t-154.5 52.5q-84 29 -149.5 59.5t-102.5 83t-37 140.5zM373 1069l145 344h152l-162 -344h-135z" />
<glyph unicode="&#x15c;" horiz-adv-x="1138" d="M102 977q0 168 121 265t369 97q115 0 213 -16t151 -35v-147q-74 27 -159.5 41t-178.5 14q-168 0 -258 -49t-90 -170q0 -68 32 -110t107.5 -71.5t211.5 -62.5q162 -39 252 -93t126.5 -128t36.5 -168q0 -174 -127 -269t-379 -95q-246 0 -397 61v149q86 -33 183.5 -50 t199.5 -17q176 0 264 48t88 173q0 78 -35.5 124t-117.5 78t-219 64q-217 53 -305.5 138.5t-88.5 228.5zM272 1409l236 303h135l236 -303h-146l-158 209l-157 -209h-146z" />
<glyph unicode="&#x15d;" horiz-adv-x="935" d="M102 725q0 129 90.5 197.5t290.5 68.5q78 0 150 -11t125 -28v-147q-129 43 -248 43q-127 0 -183.5 -25.5t-56.5 -95.5q0 -47 26 -74.5t80 -47t140 -48.5q113 -35 182.5 -71.5t102.5 -90t33 -139.5q0 -143 -100.5 -209.5t-284.5 -66.5q-94 0 -179.5 12t-142.5 33v147 q70 -25 146.5 -37t152.5 -12q129 0 184.5 27.5t55.5 103.5q0 55 -30 84t-90.5 51.5t-154.5 52.5q-84 29 -149.5 59.5t-102.5 83t-37 140.5zM178 1069l236 303h135l235 -303h-145l-158 209l-157 -209h-146z" />
<glyph unicode="&#x15e;" horiz-adv-x="1138" d="M102 977q0 168 121 265t369 97q115 0 213 -16t151 -35v-147q-74 27 -159.5 41t-178.5 14q-168 0 -258 -49t-90 -170q0 -68 32 -110t107.5 -71.5t211.5 -62.5q162 -39 252 -93t126.5 -128t36.5 -168q0 -166 -112.5 -259t-335.5 -103l-27 -80q113 0 170 -48.5t57 -136.5 q0 -100 -70 -154.5t-222 -54.5q-33 0 -77 5.5t-67 11.5v102q59 -16 129 -16q96 0 140.5 22.5t44.5 85.5q0 59 -43 77t-131 18h-76l53 166q-205 8 -336 61v149q86 -33 183.5 -50t199.5 -17q176 0 264 48t88 173q0 78 -35.5 124t-117.5 78t-219 64q-217 53 -305.5 138.5 t-88.5 228.5z" />
<glyph unicode="&#x15f;" horiz-adv-x="935" d="M102 725q0 129 90.5 197.5t290.5 68.5q78 0 150 -11t125 -28v-147q-129 43 -248 43q-127 0 -183.5 -25.5t-56.5 -95.5q0 -47 26 -74.5t80 -47t140 -48.5q113 -35 182.5 -71.5t102.5 -90t33 -139.5q0 -131 -84 -197.5t-240 -76.5l-27 -80q113 0 170.5 -48.5t57.5 -136.5 q0 -100 -70.5 -154.5t-222.5 -54.5q-33 0 -77 5.5t-67 11.5v102q59 -16 129 -16q96 0 140.5 22.5t44.5 85.5q0 59 -43 77t-131 18h-76l53 168q-78 2 -147.5 14t-116.5 29v147q70 -25 146.5 -37t152.5 -12q129 0 184.5 27.5t55.5 103.5q0 55 -30 84t-90.5 51.5t-154.5 52.5 q-84 29 -149.5 59.5t-102.5 83t-37 140.5z" />
<glyph unicode="&#x160;" horiz-adv-x="1138" d="M102 977q0 168 121 265t369 97q115 0 213 -16t151 -35v-147q-74 27 -159.5 41t-178.5 14q-168 0 -258 -49t-90 -170q0 -68 32 -110t107.5 -71.5t211.5 -62.5q162 -39 252 -93t126.5 -128t36.5 -168q0 -174 -127 -269t-379 -95q-246 0 -397 61v149q86 -33 183.5 -50 t199.5 -17q176 0 264 48t88 173q0 78 -35.5 124t-117.5 78t-219 64q-217 53 -305.5 138.5t-88.5 228.5zM303 1712h146l157 -209l158 209h145l-235 -303h-135z" />
<glyph unicode="&#x161;" horiz-adv-x="935" d="M102 725q0 129 90.5 197.5t290.5 68.5q78 0 150 -11t125 -28v-147q-129 43 -248 43q-127 0 -183.5 -25.5t-56.5 -95.5q0 -47 26 -74.5t80 -47t140 -48.5q113 -35 182.5 -71.5t102.5 -90t33 -139.5q0 -143 -100.5 -209.5t-284.5 -66.5q-94 0 -179.5 12t-142.5 33v147 q70 -25 146.5 -37t152.5 -12q129 0 184.5 27.5t55.5 103.5q0 55 -30 84t-90.5 51.5t-154.5 52.5q-84 29 -149.5 59.5t-102.5 83t-37 140.5zM182 1372h146l157 -209l158 209h145l-235 -303h-135z" />
<glyph unicode="&#x162;" horiz-adv-x="1167" d="M61 1186v133h1045v-133h-438v-1186h-27l-33 -98q113 0 170.5 -48.5t57.5 -136.5q0 -100 -71 -154.5t-222 -54.5q-33 0 -77 5.5t-67 11.5v102q59 -16 129 -16q96 0 140.5 22.5t44.5 85.5q0 59 -43 77t-131 18h-76l59 186h-22v1186h-439z" />
<glyph unicode="&#x163;" horiz-adv-x="733" d="M61 838v133h148v239l168 52v-291h268l-10 -133h-258v-559q0 -88 40 -126t138 -38q53 0 117 20v-127q-76 -29 -164 -28l-27 -78q113 0 170.5 -48.5t57.5 -136.5q0 -100 -70.5 -154.5t-222.5 -54.5q-33 0 -77 5.5t-67 11.5v102q59 -16 129 -16q96 0 140.5 22.5t44.5 85.5 q0 59 -43 77t-131 18h-76l57 178q-92 27 -138 98.5t-46 179.5v568h-148z" />
<glyph unicode="&#x164;" horiz-adv-x="1167" d="M61 1186v133h1045v-133h-438v-1186h-168v1186h-439zM281 1712h145l158 -209l157 209h146l-236 -303h-135z" />
<glyph unicode="&#x165;" horiz-adv-x="733" d="M61 838v133h148v239l168 52v-291h268l-10 -133h-258v-559q0 -88 40 -126t138 -38q53 0 117 20v-127q-76 -28 -174 -28q-143 0 -216 76.5t-73 213.5v568h-148zM604 1147l58 362h151l-86 -362h-123z" />
<glyph unicode="&#x166;" horiz-adv-x="1167" d="M61 1186v133h1045v-133h-438v-404h256v-127h-256v-655h-168v655h-318v127h318v404h-439z" />
<glyph unicode="&#x167;" horiz-adv-x="757" d="M86 838v133h147v239l168 52v-291h269l-11 -133h-258v-269h269v-118h-269v-172q0 -88 40 -126t139 -38q53 0 116 20v-127q-76 -29 -174 -28q-143 0 -216 76.5t-73 213.5v181h-145v118h145v269h-147z" />
<glyph unicode="&#x168;" horiz-adv-x="1374" d="M133 483v836h168v-838q0 -180 101.5 -269t285.5 -89q182 0 283.5 89t101.5 269v838h168v-836q0 -246 -142.5 -374.5t-410.5 -128.5q-270 0 -412.5 129t-142.5 374zM352 1456v129q25 29 74 45.5t96 16.5q57 0 105.5 -19.5t94.5 -39t95 -19.5q104 0 158 73v-131 q-20 -27 -62.5 -44t-95.5 -17t-104 19.5t-98.5 39t-92.5 19.5q-49 0 -92 -15.5t-78 -56.5z" />
<glyph unicode="&#x169;" horiz-adv-x="1167" d="M133 356v615h168v-621q0 -121 60.5 -178t187.5 -57q90 0 170 32.5t137 90.5v733h168v-971h-152l-10 111q-70 -57 -166 -94t-211 -37q-174 0 -263 96t-89 280zM260 1116v129q25 29 74 45.5t96 16.5q57 0 105.5 -19.5t94.5 -39t95 -19.5q104 0 158 74v-132 q-20 -27 -62.5 -44t-95.5 -17t-104.5 19.5t-98.5 39t-92 19.5q-49 0 -92 -15.5t-78 -56.5z" />
<glyph unicode="&#x16a;" horiz-adv-x="1374" d="M133 483v836h168v-838q0 -180 101.5 -269t285.5 -89q182 0 283.5 89t101.5 269v838h168v-836q0 -246 -142.5 -374.5t-410.5 -128.5q-270 0 -412.5 129t-142.5 374zM369 1475v120h589v-120h-589z" />
<glyph unicode="&#x16b;" horiz-adv-x="1167" d="M133 356v615h168v-621q0 -121 60.5 -178t187.5 -57q90 0 170 32.5t137 90.5v733h168v-971h-152l-10 111q-70 -57 -166 -94t-211 -37q-174 0 -263 96t-89 280zM272 1135v120h590v-120h-590z" />
<glyph unicode="&#x16c;" horiz-adv-x="1374" d="M133 483v836h168v-838q0 -180 101.5 -269t285.5 -89q182 0 283.5 89t101.5 269v838h168v-836q0 -246 -142.5 -374.5t-410.5 -128.5q-270 0 -412.5 129t-142.5 374zM387 1667h119q0 -78 38 -114.5t101 -36.5q68 0 105.5 36.5t37.5 114.5h119q0 -115 -66.5 -186.5 t-195.5 -71.5q-127 0 -192.5 71.5t-65.5 186.5z" />
<glyph unicode="&#x16d;" horiz-adv-x="1167" d="M133 356v615h168v-621q0 -121 60.5 -178t187.5 -57q90 0 170 32.5t137 90.5v733h168v-971h-152l-10 111q-70 -57 -166 -94t-211 -37q-174 0 -263 96t-89 280zM313 1327h119q0 -78 38 -114.5t101 -36.5q68 0 106 36.5t38 114.5h119q0 -115 -67 -186.5t-196 -71.5 q-127 0 -192.5 71.5t-65.5 186.5z" />
<glyph unicode="&#x16e;" horiz-adv-x="1374" d="M133 483v836h168v-838q0 -180 101.5 -269t285.5 -89q182 0 283.5 89t101.5 269v838h168v-836q0 -246 -142.5 -374.5t-410.5 -128.5q-270 0 -412.5 129t-142.5 374zM438 1628q0 92 62.5 156.5t161.5 64.5q102 0 164.5 -64.5t62.5 -156.5t-62.5 -155.5t-164.5 -63.5 q-98 0 -161 63.5t-63 155.5zM537 1628q0 -51 36 -88t89 -37q57 0 91.5 37t34.5 88q0 53 -34.5 89t-91.5 36q-53 0 -89 -36t-36 -89z" />
<glyph unicode="&#x16f;" horiz-adv-x="1167" d="M133 356v615h168v-621q0 -121 60.5 -178t187.5 -57q90 0 170 32.5t137 90.5v733h168v-971h-152l-10 111q-70 -57 -166 -94t-211 -37q-174 0 -263 96t-89 280zM334 1288q0 92 62.5 156.5t160.5 64.5q102 0 164.5 -64.5t62.5 -156.5t-62.5 -155.5t-164.5 -63.5 q-98 0 -160.5 63.5t-62.5 155.5zM432 1288q0 -51 36 -88t89 -37q57 0 92 37t35 88q0 53 -35 89t-92 36q-53 0 -89 -36t-36 -89z" />
<glyph unicode="&#x170;" horiz-adv-x="1374" d="M133 483v836h168v-838q0 -180 101.5 -269t285.5 -89q182 0 283.5 89t101.5 269v838h168v-836q0 -246 -142.5 -374.5t-410.5 -128.5q-270 0 -412.5 129t-142.5 374zM328 1409l145 311h160l-166 -311h-139zM750 1409l145 311h160l-166 -311h-139z" />
<glyph unicode="&#x171;" horiz-adv-x="1167" d="M133 356v615h168v-621q0 -121 60.5 -178t187.5 -57q90 0 170 32.5t137 90.5v733h168v-971h-152l-10 111q-70 -57 -166 -94t-211 -37q-174 0 -263 96t-89 280zM231 1069l146 311h160l-166 -311h-140zM653 1069l146 311h159l-165 -311h-140z" />
<glyph unicode="&#x172;" horiz-adv-x="1374" d="M133 483v836h168v-838q0 -180 101.5 -269t285.5 -89q182 0 283.5 89t101.5 269v838h168v-836q0 -227 -122 -355t-353 -146q-125 -102 -125 -228q0 -51 25.5 -69.5t76.5 -18.5q27 0 55.5 6t47.5 17v-115q-25 -12 -63.5 -18.5t-75.5 -6.5q-82 0 -142.5 42t-60.5 139 q0 72 35.5 138t93.5 114q-244 12 -372 140t-128 361z" />
<glyph unicode="&#x173;" horiz-adv-x="1167" d="M133 356v615h168v-621q0 -121 60.5 -178t187.5 -57q90 0 170 32.5t137 90.5v733h168v-971h-20q-147 -111 -148 -246q0 -51 25.5 -69.5t76.5 -18.5q27 0 55.5 6t47.5 17v-115q-25 -12 -64 -18.5t-75 -6.5q-82 0 -142.5 42t-60.5 139q0 80 43 152.5t110 117.5l-10 111 q-70 -57 -166 -94t-211 -37q-174 0 -263 96t-89 280z" />
<glyph unicode="&#x174;" horiz-adv-x="1763" d="M102 1319h166l248 -1086l285 941v145h137l307 -1086l252 1086h164l-305 -1319h-178l-287 1004l-301 -1004h-180zM588 1409l235 303h135l236 -303h-145l-158 209l-158 -209h-145z" />
<glyph unicode="&#x175;" horiz-adv-x="1507" d="M102 971h168l191 -781l217 668v113h129l240 -781l190 781h168l-254 -971h-168l-227 705l-232 -705h-168zM453 1069l235 303h135l236 -303h-146l-157 209l-158 -209h-145z" />
<glyph unicode="&#x176;" horiz-adv-x="1314" d="M102 1319h174l381 -684l381 684h174l-471 -827v-492h-168v492zM354 1409l236 303h135l236 -303h-146l-158 209l-157 -209h-146z" />
<glyph unicode="&#x177;" horiz-adv-x="1196" d="M102 971h174l338 -783l349 783h172l-408 -928q-51 -117 -104.5 -208t-123 -143t-173.5 -52q-96 0 -168 26v135q35 -12 64.5 -16t60.5 -4q70 0 109.5 24.5t70.5 74.5t67 130zM315 1069l236 303h135l236 -303h-146l-158 209l-157 -209h-146z" />
<glyph unicode="&#x178;" horiz-adv-x="1314" d="M102 1319h174l381 -684l381 684h174l-471 -827v-492h-168v492zM397 1456v154h160v-154h-160zM758 1456v154h160v-154h-160z" />
<glyph unicode="&#x179;" horiz-adv-x="1171" d="M102 0v94l754 1092h-719v133h932v-105l-747 -1083h757v-131h-977zM532 1409l146 344h151l-161 -344h-136z" />
<glyph unicode="&#x17a;" horiz-adv-x="993" d="M102 0v92l572 746h-545v133h748v-105l-564 -735h578v-131h-789zM422 1069l145 344h152l-162 -344h-135z" />
<glyph unicode="&#x17b;" horiz-adv-x="1171" d="M102 0v94l754 1092h-719v133h932v-105l-747 -1083h757v-131h-977zM522 1454v158h164v-158h-164z" />
<glyph unicode="&#x17c;" horiz-adv-x="993" d="M102 0v92l572 746h-545v133h748v-105l-564 -735h578v-131h-789zM414 1114v158h164v-158h-164z" />
<glyph unicode="&#x17d;" horiz-adv-x="1171" d="M102 0v94l754 1092h-719v133h932v-105l-747 -1083h757v-131h-977zM317 1712h146l158 -209l157 209h146l-236 -303h-135z" />
<glyph unicode="&#x17e;" horiz-adv-x="993" d="M102 0v92l572 746h-545v133h748v-105l-564 -735h578v-131h-789zM172 1372h145l158 -209l158 209h145l-235 -303h-135z" />
<glyph unicode="&#x18f;" horiz-adv-x="1372" d="M102 518v217h1014q-6 162 -62.5 265.5t-176 153.5t-320.5 50q-88 0 -188.5 -20.5t-184.5 -55.5v136q84 35 192.5 55t217.5 20q350 0 513 -173t163 -521q0 -205 -62.5 -354.5t-197 -230t-353.5 -80.5q-190 0 -313 69.5t-182.5 191t-59.5 277.5zM252 492q0 -186 106 -281.5 t299 -95.5q238 0 348.5 126t110.5 373h-864v-122z" />
<glyph unicode="&#x192;" horiz-adv-x="1060" d="M-174 -221l27 127q57 -23 129 -23q102 0 147 38t66 128l165 789h-145l29 133h145l31 141q33 147 119 224t247 77q53 0 96.5 -8t75.5 -23l-26 -127q-61 23 -131 23q-96 0 -145.5 -38t-67.5 -128l-31 -141h262l-37 -133h-254l-166 -789q-31 -137 -118.5 -219t-249.5 -82 q-51 0 -92 8t-76 23z" />
<glyph unicode="&#x1a0;" horiz-adv-x="1556" d="M102 659q0 354 149.5 517t459.5 163q311 0 460 -163q117 2 158 50t41 183h146q0 -182 -68 -265t-195 -100q66 -154 66 -385q0 -354 -148.5 -516.5t-459.5 -162.5q-309 0 -459 162.5t-150 516.5zM270 659q0 -199 48.5 -316.5t145.5 -168.5t247 -51t247 51t145 169t48 316 q0 199 -48 317t-145.5 169t-246.5 51q-150 0 -247 -51t-145.5 -169t-48.5 -317z" />
<glyph unicode="&#x1a1;" horiz-adv-x="1347" d="M102 485q0 244 117 375t369 131q131 0 224 -35.5t153 -105.5q119 2 157.5 56.5t38.5 191.5h146q0 -186 -70 -270.5t-203 -100.5q39 -98 39 -242q0 -246 -114.5 -375.5t-370.5 -129.5q-254 0 -370 130t-116 375zM270 485q0 -188 72 -275t246 -87t245.5 87t71.5 275 t-72.5 275.5t-244.5 87.5t-245 -87t-73 -276z" />
<glyph unicode="&#x1af;" horiz-adv-x="1587" d="M133 483v836h168v-838q0 -180 101.5 -269t285.5 -89q182 0 283.5 89t101.5 269v838h168v-154q119 2 160 54.5t41 189.5h145q0 -209 -86 -291t-260 -84v-551q0 -246 -142.5 -374.5t-410.5 -128.5q-270 0 -412.5 129t-142.5 374z" />
<glyph unicode="&#x1b0;" horiz-adv-x="1398" d="M133 356v615h168v-621q0 -121 60.5 -178t187.5 -57q90 0 170 32.5t137 90.5v733h168v-121q100 8 134 64.5t34 183.5h145q0 -186 -80.5 -277.5t-232.5 -93.5v-727h-152l-10 111q-70 -57 -166 -94t-211 -37q-174 0 -263 96t-89 280z" />
<glyph unicode="&#x1cd;" horiz-adv-x="1402" d="M102 0l502 1319h197l499 -1319h-172l-139 362h-573l-140 -362h-174zM397 1712h146l157 -209l158 209h146l-236 -303h-135zM444 496h514l-258 678z" />
<glyph unicode="&#x1ce;" horiz-adv-x="1107" d="M102 272q0 133 88.5 218t286.5 85h338v60q0 80 -21.5 127t-81 67.5t-173.5 20.5q-88 0 -170 -14.5t-154 -38.5v139q66 25 155 40t191 15q207 0 310.5 -84t103.5 -272v-635h-141l-13 111q-63 -66 -153.5 -98.5t-223.5 -32.5q-92 0 -169.5 32.5t-125 97t-47.5 162.5z M268 272q0 -88 59.5 -121.5t159.5 -33.5q106 0 188.5 38t139.5 103v188h-334q-115 0 -164 -43t-49 -131zM270 1372h146l157 -209l158 209h146l-236 -303h-135z" />
<glyph unicode="&#x1cf;" horiz-adv-x="454" d="M-74 1712h146l157 -209l158 209h145l-235 -303h-135zM143 0v1319h168v-1319h-168z" />
<glyph unicode="&#x1d0;" horiz-adv-x="604" d="M31 1372h145l158 -209l158 209h145l-236 -303h-135zM143 838l17 133h301v-971h-168v838h-150z" />
<glyph unicode="&#x1d1;" horiz-adv-x="1421" d="M102 659q0 354 149.5 517t459.5 163q311 0 459.5 -162.5t148.5 -517.5q0 -354 -148.5 -516.5t-459.5 -162.5q-309 0 -459 162.5t-150 516.5zM270 659q0 -199 48.5 -316.5t145.5 -168.5t247 -51t247 51t145 169t48 316q0 199 -48 317t-145.5 169t-246.5 51 q-150 0 -247 -51t-145.5 -169t-48.5 -317zM408 1712h145l158 -209l157 209h146l-236 -303h-135z" />
<glyph unicode="&#x1d2;" horiz-adv-x="1175" d="M102 485q0 244 117 375t369 131t368.5 -131t116.5 -375q0 -246 -114.5 -375.5t-370.5 -129.5q-254 0 -370 130t-116 375zM270 485q0 -188 72 -275t246 -87t245.5 87t71.5 275t-72.5 275.5t-244.5 87.5t-245 -87t-73 -276zM285 1372h145l158 -209l157 209h146l-236 -303 h-135z" />
<glyph unicode="&#x1d3;" horiz-adv-x="1374" d="M133 483v836h168v-838q0 -180 101.5 -269t285.5 -89q182 0 283.5 89t101.5 269v838h168v-836q0 -246 -142.5 -374.5t-410.5 -128.5q-270 0 -412.5 129t-142.5 374zM383 1712h145l158 -209l158 209h145l-235 -303h-136z" />
<glyph unicode="&#x1d4;" horiz-adv-x="1167" d="M133 356v615h168v-621q0 -121 60.5 -178t187.5 -57q90 0 170 32.5t137 90.5v733h168v-971h-152l-10 111q-70 -57 -166 -94t-211 -37q-174 0 -263 96t-89 280zM274 1372h146l158 -209l157 209h146l-236 -303h-135z" />
<glyph unicode="&#x1d5;" horiz-adv-x="1374" d="M133 483v836h168v-838q0 -180 101.5 -269t285.5 -89q182 0 283.5 89t101.5 269v838h168v-836q0 -246 -142.5 -374.5t-410.5 -128.5q-270 0 -412.5 129t-142.5 374zM393 1692v120h590v-120h-590zM426 1444v153h160v-153h-160zM786 1444v153h160v-153h-160z" />
<glyph unicode="&#x1d6;" horiz-adv-x="1167" d="M133 356v615h168v-621q0 -121 60.5 -178t187.5 -57q90 0 170 32.5t137 90.5v733h168v-971h-152l-10 111q-70 -57 -166 -94t-211 -37q-174 0 -263 96t-89 280zM293 1391v120h590v-120h-590zM326 1106v154h159v-154h-159zM686 1106v154h160v-154h-160z" />
<glyph unicode="&#x1d7;" horiz-adv-x="1374" d="M133 483v836h168v-838q0 -180 101.5 -269t285.5 -89q182 0 283.5 89t101.5 269v838h168v-836q0 -246 -142.5 -374.5t-410.5 -128.5q-270 0 -412.5 129t-142.5 374zM408 1409v154h159v-154h-159zM623 1579l127 256h133l-140 -256h-120zM809 1409v154h160v-154h-160z" />
<glyph unicode="&#x1d8;" horiz-adv-x="1167" d="M133 356v615h168v-621q0 -121 60.5 -178t187.5 -57q90 0 170 32.5t137 90.5v733h168v-971h-152l-10 111q-70 -57 -166 -94t-211 -37q-174 0 -263 96t-89 280zM299 1069v154h160v-154h-160zM514 1239l127 256h133l-139 -256h-121zM700 1069v154h160v-154h-160z" />
<glyph unicode="&#x1d9;" horiz-adv-x="1374" d="M133 483v836h168v-838q0 -180 101.5 -269t285.5 -89q182 0 283.5 89t101.5 269v838h168v-836q0 -246 -142.5 -374.5t-410.5 -128.5q-270 0 -412.5 129t-142.5 374zM391 1821h144l151 -170l154 170h141l-227 -242h-136zM397 1409v154h160v-154h-160zM799 1409v154h159 v-154h-159z" />
<glyph unicode="&#x1da;" horiz-adv-x="1167" d="M133 356v615h168v-621q0 -121 60.5 -178t187.5 -57q90 0 170 32.5t137 90.5v733h168v-971h-152l-10 111q-70 -57 -166 -94t-211 -37q-174 0 -263 96t-89 280zM287 1481h143l152 -170l153 170h142l-228 -242h-135zM293 1069v154h160v-154h-160zM694 1069v154h160v-154 h-160z" />
<glyph unicode="&#x1db;" horiz-adv-x="1374" d="M133 483v836h168v-838q0 -180 101.5 -269t285.5 -89q182 0 283.5 89t101.5 269v838h168v-836q0 -246 -142.5 -374.5t-410.5 -128.5q-270 0 -412.5 129t-142.5 374zM406 1409v154h159v-154h-159zM492 1835h133l127 -256h-121zM807 1409v154h160v-154h-160z" />
<glyph unicode="&#x1dc;" horiz-adv-x="1167" d="M133 356v615h168v-621q0 -121 60.5 -178t187.5 -57q90 0 170 32.5t137 90.5v733h168v-971h-152l-10 111q-70 -57 -166 -94t-211 -37q-174 0 -263 96t-89 280zM299 1069v154h160v-154h-160zM385 1495h133l127 -256h-121zM700 1069v154h160v-154h-160z" />
<glyph unicode="&#x1e6;" horiz-adv-x="1308" d="M102 631q0 215 65.5 374.5t205 246.5t360.5 87q115 0 208 -16t175 -45v-148q-82 31 -174 48.5t-194 17.5q-178 0 -283 -67.5t-150 -194.5t-45 -303q0 -244 113 -376t362 -132q88 0 170 14.5t146 38.5v420h-352v115h497v-627q-59 -39 -173 -71.5t-298 -32.5 q-213 0 -353 80.5t-210 227t-70 343.5zM414 1710h145l158 -209l157 209h146l-236 -303h-135z" />
<glyph unicode="&#x1e7;" horiz-adv-x="1120" d="M102 643q0 182 105.5 265t322.5 83q45 0 93.5 -7t74.5 -13h351l-7 -115h-176q47 -39 67.5 -93t20.5 -120q0 -162 -94 -251t-289 -89q-33 0 -58.5 3l-59.5 7q-63 -2 -118.5 -35.5t-55.5 -87.5q0 -35 27.5 -51t101.5 -16h268q145 0 223 -58.5t78 -170.5q0 -143 -119 -198.5 t-338 -55.5q-109 0 -212 12t-177 39v139q82 -27 184.5 -41t196.5 -14q154 0 225.5 18.5t71.5 93.5q0 53 -38 76t-134 23h-258q-268 0 -268 180q0 59 37.5 113.5t113.5 76.5q-82 41 -121 114t-39 173zM270 643q0 -113 58.5 -163t201.5 -50q145 0 200.5 47t55.5 166t-58 172 t-198 53q-137 0 -198.5 -51t-61.5 -174zM272 1372h146l157 -209l158 209h146l-236 -303h-135z" />
<glyph unicode="&#x1fa;" horiz-adv-x="1402" d="M102 0l486 1274q-53 29 -83 79t-30 113q0 92 62.5 157t160.5 65q102 0 165 -64.5t63 -157.5q0 -61 -29 -111t-80 -79l483 -1276h-172l-139 362h-573l-140 -362h-174zM444 496h514l-258 678zM573 1466q0 -51 36 -88t89 -37q57 0 92 37t35 88q0 53 -34.5 89t-92.5 36 q-53 0 -89 -35.5t-36 -89.5zM596 1745l145 344h152l-162 -344h-135z" />
<glyph unicode="&#x1fb;" horiz-adv-x="1107" d="M102 272q0 133 88.5 218t286.5 85h338v60q0 80 -21.5 127t-81 67.5t-173.5 20.5q-88 0 -170 -14.5t-154 -38.5v139q66 25 155 40t191 15q207 0 310.5 -84t103.5 -272v-635h-141l-13 111q-63 -66 -153.5 -98.5t-223.5 -32.5q-92 0 -169.5 32.5t-125 97t-47.5 162.5z M268 272q0 -88 59.5 -121.5t159.5 -33.5q106 0 188.5 38t139.5 103v188h-334q-115 0 -164 -43t-49 -131zM340 1282q0 92 62.5 156.5t160.5 64.5q102 0 165 -64.5t63 -156.5t-63 -155.5t-165 -63.5q-98 0 -160.5 63.5t-62.5 155.5zM438 1282q0 -51 36 -88t89 -37q57 0 92 37 t35 88q0 53 -34.5 89t-92.5 36q-53 0 -89 -36t-36 -89zM489 1604l146 274h151l-161 -274h-136z" />
<glyph unicode="&#x1fc;" horiz-adv-x="1720" d="M102 0l502 1319h1014v-133h-612v-461h538v-131h-538v-463h612v-131h-780v365h-416l-139 -365h-181zM473 496h365v690h-105zM885 1409l145 344h152l-162 -344h-135z" />
<glyph unicode="&#x1fd;" horiz-adv-x="1804" d="M102 272q0 133 88.5 218t286.5 85h338v60q0 80 -21.5 127t-81 67.5t-173.5 20.5q-88 0 -170 -14.5t-154 -38.5v139q66 25 155 40t191 15q262 0 359 -149q57 68 146 108.5t214 40.5q143 0 236.5 -52t139.5 -143t46 -206v-182h-719q8 -111 48 -174.5t121 -91t214 -27.5 q150 0 274 51v-131q-63 -27 -142 -41t-165 -14q-156 0 -259 45t-167 139q-39 -45 -96 -87t-146.5 -69.5t-220.5 -27.5q-92 0 -169.5 32.5t-125 97t-47.5 162.5zM268 272q0 -88 59.5 -121.5t159.5 -33.5q119 0 195 38t133 103v188h-334q-115 0 -164 -43t-49 -131zM823 1069 l146 344h151l-162 -344h-135zM983 528h569v80q0 119 -62.5 183.5t-205.5 64.5q-174 0 -237.5 -82t-63.5 -246z" />
<glyph unicode="&#x1fe;" horiz-adv-x="1421" d="M102 659q0 354 149.5 517t459.5 163q43 0 84 -4t77 -10l35 94h148l-49 -131q158 -63 235.5 -218t77.5 -411q0 -354 -148.5 -516.5t-459.5 -162.5q-49 0 -94.5 4t-86.5 12l-36 -105h-148l53 144q-297 133 -297 624zM270 659q0 -193 45.5 -309.5t137.5 -169.5l368 1008 q-27 4 -54.5 6t-55.5 2q-150 0 -247 -51t-145.5 -169t-48.5 -317zM582 133q29 -4 61.5 -7t67.5 -3q150 0 247 51t145 169t48 316q0 201 -49 319t-148 169zM616 1409l146 344h151l-161 -344h-136z" />
<glyph unicode="&#x1ff;" horiz-adv-x="1175" d="M102 485q0 244 117 375t369 131q29 0 56.5 -2t53.5 -6l37 98h148l-49 -135q123 -53 181 -170t58 -291q0 -246 -114.5 -375.5t-370.5 -129.5q-57 0 -107 6l-35 -97h-147l47 131q-125 53 -184.5 170t-59.5 295zM270 485q0 -125 29.5 -203.5t99.5 -119.5l250 682 q-14 2 -29.5 3t-31.5 1q-172 0 -245 -87t-73 -276zM492 1069l145 344h151l-161 -344h-135zM532 125q14 -2 28 -2h28q174 0 245.5 87t71.5 275q0 121 -29.5 200t-95.5 118z" />
<glyph unicode="&#x218;" horiz-adv-x="1138" d="M102 977q0 168 121 265t369 97q115 0 213 -16t151 -35v-147q-74 27 -159.5 41t-178.5 14q-168 0 -258 -49t-90 -170q0 -68 32 -110t107.5 -71.5t211.5 -62.5q162 -39 252 -93t126.5 -128t36.5 -168q0 -174 -127 -269t-379 -95q-246 0 -397 61v149q86 -33 183.5 -50 t199.5 -17q176 0 264 48t88 173q0 78 -35.5 124t-117.5 78t-219 64q-217 53 -305.5 138.5t-88.5 228.5zM420 -446l55 340h154l-80 -340h-129z" />
<glyph unicode="&#x219;" horiz-adv-x="935" d="M102 725q0 129 90.5 197.5t290.5 68.5q78 0 150 -11t125 -28v-147q-129 43 -248 43q-127 0 -183.5 -25.5t-56.5 -95.5q0 -47 26 -74.5t80 -47t140 -48.5q113 -35 182.5 -71.5t102.5 -90t33 -139.5q0 -143 -100.5 -209.5t-284.5 -66.5q-94 0 -179.5 12t-142.5 33v147 q70 -25 146.5 -37t152.5 -12q129 0 184.5 27.5t55.5 103.5q0 55 -30 84t-90.5 51.5t-154.5 52.5q-84 29 -149.5 59.5t-102.5 83t-37 140.5zM330 -446l55 340h154l-80 -340h-129z" />
<glyph unicode="&#x21a;" horiz-adv-x="1167" d="M61 1186v133h1045v-133h-438v-1186h-168v1186h-439zM455 -449l57 363h152l-86 -363h-123z" />
<glyph unicode="&#x21b;" horiz-adv-x="733" d="M61 838v133h148v239l168 52v-291h268l-10 -133h-258v-559q0 -88 40 -126t138 -38q53 0 117 20v-127q-76 -28 -174 -28q-143 0 -216 76.5t-73 213.5v568h-148zM348 -449l58 363h151l-86 -363h-123z" />
<glyph unicode="&#x237;" horiz-adv-x="602" d="M-20 -317q35 -10 66.5 -15.5t57.5 -5.5q111 0 149 37t38 123v1016h-150l17 133h301v-1164q0 -131 -76 -208.5t-221 -77.5q-102 0 -182 28v134z" />
<glyph unicode="&#x251;" horiz-adv-x="1177" d="M102 473q0 262 119 390t324 128q188 0 321 -92v72h168v-971h-143l-12 102q-68 -63 -148.5 -92.5t-189.5 -29.5q-205 0 -322 114.5t-117 378.5zM270 473q0 -190 72 -274t242 -84q84 0 155.5 28.5t126.5 87.5v529q-51 45 -119.5 70.5t-156.5 25.5q-162 0 -241 -92t-79 -291 z" />
<glyph unicode="&#x259;" horiz-adv-x="1091" d="M102 381v182h719q-8 111 -48 175.5t-121 91t-214 26.5q-150 0 -274 -51v131q63 29 142 42t165 13q260 0 389 -124t129 -386q0 -233 -111.5 -367t-353.5 -134q-143 0 -236 52t-139.5 143t-46.5 206zM252 362q0 -119 62.5 -183t205.5 -64q174 0 237.5 82t63.5 245h-569v-80 z" />
<glyph unicode="&#x2bb;" horiz-adv-x="458" d="M102 965l127 374h127l-100 -374h-154z" />
<glyph unicode="&#x2bc;" horiz-adv-x="458" d="M102 965l103 374h151l-127 -374h-127z" />
<glyph unicode="&#x2be;" d="M-766 971v102q86 0 130 48t44 130t-44 129t-130 47v103q143 0 216 -78t73 -201t-73 -201.5t-216 -78.5z" />
<glyph unicode="&#x2bf;" d="M-766 1251q0 123 72.5 201t216.5 78v-103q-86 0 -130 -47t-44 -129t44 -130t130 -48v-102q-143 0 -216 78.5t-73 201.5z" />
<glyph unicode="&#x2c6;" horiz-adv-x="811" d="M102 1100l236 303h135l236 -303h-146l-157 209l-158 -209h-146z" />
<glyph unicode="&#x2c7;" horiz-adv-x="811" d="M102 1403h146l158 -209l157 209h146l-236 -303h-135z" />
<glyph unicode="&#x2c8;" d="M-84 993v348h119v-348h-119z" />
<glyph unicode="&#x2c9;" d="M160 1157v121h590v-121h-590z" />
<glyph unicode="&#x2ca;" d="M-168 1069l145 344h152l-162 -344h-135z" />
<glyph unicode="&#x2cb;" d="M-178 1413h151l146 -344h-135z" />
<glyph unicode="&#x2cc;" d="M-84 -84h119v-348h-119v348z" />
<glyph unicode="&#x2d8;" horiz-adv-x="724" d="M102 1364h119q0 -78 38 -115t101 -37q68 0 106 37t38 115h119q0 -115 -67 -186.5t-196 -71.5q-127 0 -192.5 71.5t-65.5 186.5z" />
<glyph unicode="&#x2d9;" horiz-adv-x="368" d="M102 1147v158h164v-158h-164z" />
<glyph unicode="&#x2da;" horiz-adv-x="655" d="M102 1294q0 92 62.5 157t161.5 65q102 0 164.5 -65t62.5 -157t-62.5 -155.5t-164.5 -63.5q-98 0 -161 63.5t-63 155.5zM201 1294q0 -51 36 -88t89 -37q57 0 92 37t35 88q0 53 -35 89t-92 36q-53 0 -89 -35.5t-36 -89.5z" />
<glyph unicode="&#x2db;" horiz-adv-x="546" d="M102 -270q0 80 43 152.5t111 117.5h131q-147 -111 -147 -246q0 -51 25.5 -69.5t76.5 -18.5q27 0 55.5 6t46.5 17v-115q-25 -12 -63.5 -18.5t-75.5 -6.5q-82 0 -142.5 42t-60.5 139z" />
<glyph unicode="&#x2dc;" horiz-adv-x="827" d="M102 1180v129q25 29 74 45t96 16q57 0 105.5 -19.5t94.5 -39t95 -19.5q104 0 158 74v-131q-20 -27 -62.5 -44t-95.5 -17t-104 19t-98.5 38.5t-92.5 19.5q-49 0 -92 -15t-78 -56z" />
<glyph unicode="&#x2dd;" horiz-adv-x="931" d="M102 1100l146 311h160l-166 -311h-140zM524 1100l146 311h159l-165 -311h-140z" />
<glyph unicode="&#x300;" d="M-903 1413h151l146 -344h-135z" />
<glyph unicode="&#x301;" d="M-766 1069l145 344h152l-162 -344h-135z" />
<glyph unicode="&#x302;" d="M-350 1100l235 303h135l236 -303h-145l-158 209l-158 -209h-145z" />
<glyph unicode="&#x303;" d="M-963 1180v129q25 29 74 45t96 16q57 0 105.5 -19.5t94.5 -39t95 -19.5q104 0 158 74v-131q-20 -27 -62.5 -44t-95.5 -17t-104 19t-98.5 38.5t-92.5 19.5q-49 0 -92 -15t-78 -56z" />
<glyph unicode="&#x304;" d="M-336 1157v121h590v-121h-590z" />
<glyph unicode="&#x306;" d="M-283 1366h119q0 -78 38 -115t101 -37q68 0 106 37t38 115h119q0 -115 -67 -186.5t-196 -71.5q-127 0 -192.5 71.5t-65.5 186.5z" />
<glyph unicode="&#x307;" d="M-104 1147v158h163v-158h-163z" />
<glyph unicode="&#x308;" d="M-279 1149v154h160v-154h-160zM82 1149v154h160v-154h-160z" />
<glyph unicode="&#x309;" d="M-823 1389v104q31 12 80 19.5t94 7.5q121 0 184.5 -49.5t63.5 -137.5q0 -82 -40 -129t-143 -61v-99h-135v170q121 6 156 30t35 77q0 51 -39 71.5t-121 20.5q-33 0 -71 -7t-64 -17z" />
<glyph unicode="&#x30a;" d="M-248 1294q0 92 62.5 157t160.5 65q102 0 165 -65t63 -157t-63 -155.5t-165 -63.5q-98 0 -160.5 63.5t-62.5 155.5zM-150 1294q0 -51 36 -88t89 -37q57 0 92 37t35 88q0 53 -34.5 89t-92.5 36q-53 0 -89 -35.5t-36 -89.5z" />
<glyph unicode="&#x30b;" d="M-418 1100l146 311h159l-166 -311h-139zM4 1100l146 311h159l-166 -311h-139z" />
<glyph unicode="&#x30c;" d="M-350 1403h145l158 -209l158 209h145l-236 -303h-135z" />
<glyph unicode="&#x31b;" d="M-215 1079v135q86 0 132 17.5t62.5 66t16.5 140.5h145q0 -139 -39 -217t-117.5 -109t-199.5 -33z" />
<glyph unicode="&#x323;" d="M-719 -178h164v-158h-164v158z" />
<glyph unicode="&#x324;" d="M-262 -178h160v-154h-160v154zM98 -178h160v-154h-160v154z" />
<glyph unicode="&#x326;" d="M102 -438l58 362h151l-86 -362h-123z" />
<glyph unicode="&#x327;" d="M-203 -373q59 -16 129 -16q96 0 140.5 22.5t44.5 85.5q0 59 -43 77t-131 18h-76l59 186h119l-33 -98q113 0 170 -48.5t57 -136.5q0 -100 -70 -154.5t-222 -54.5q-33 0 -77 5.5t-67 11.5v102z" />
<glyph unicode="&#x328;" d="M-195 -270q0 80 43 152.5t111 117.5h131q-147 -111 -147 -246q0 -51 25.5 -69.5t76.5 -18.5q27 0 55.5 6t46.5 17v-115q-25 -12 -63.5 -18.5t-75.5 -6.5q-82 0 -142.5 42t-60.5 139z" />
<glyph unicode="&#x32e;" d="M-283 -143h119q0 -78 38 -115t101 -37q68 0 106 37t38 115h119q0 -115 -67 -186.5t-196 -71.5q-127 0 -192.5 71.5t-65.5 186.5z" />
<glyph unicode="&#x331;" d="M-336 -145h590v-121h-590v121z" />
<glyph unicode="&#x394;" horiz-adv-x="1339" d="M102 0v96l482 1223h168l485 -1225v-94h-1135zM266 131h801l-399 1018z" />
<glyph unicode="&#x3a9;" horiz-adv-x="1574" d="M102 743q0 195 82 348.5t235.5 242.5t368.5 89t368 -89t235 -242.5t82 -348.5q0 -213 -93.5 -366.5t-244.5 -245.5h323v-131h-538v133q195 106 290 261t95 349q0 160 -64.5 281t-180.5 188.5t-272 67.5q-154 0 -270.5 -67.5t-182 -188.5t-65.5 -281q0 -195 96.5 -349 t290.5 -261v-133h-540v131h325q-150 94 -245 246.5t-95 365.5z" />
<glyph unicode="&#x3bc;" horiz-adv-x="1177" d="M143 -293v1264h168v-621q0 -121 60.5 -178t187.5 -57q90 0 170 32.5t137 90.5v733h168v-971h-151l-11 111q-70 -57 -166 -94t-210 -37q-55 0 -102.5 12t-82.5 33v-318h-168z" />
<glyph unicode="&#x3c0;" horiz-adv-x="1368" d="M82 840v131h1057v-131h-140v-561q0 -88 38 -123t132 -35q53 0 117 20v-133q-39 -14 -81 -21t-95 -7q-135 0 -207 81.5t-72 219.5v559h-442v-840h-168v840h-139z" />
<glyph unicode="&#xe01;" horiz-adv-x="1245" d="M102 741v197q78 72 208 130t306 58q242 0 364 -101t122 -320v-705h-168v711q0 154 -71.5 213t-246.5 59q-115 0 -214 -31.5t-152 -85.5v-43l239 -57v-127q-78 -20 -115.5 -64.5t-37.5 -130.5v-444h-168v449q0 84 39 148.5t127 90.5z" />
<glyph unicode="&#xe02;" horiz-adv-x="1169" d="M102 975l15 131h227q141 0 141 -139q0 -70 -28.5 -125.5t-67.5 -106.5t-67.5 -102t-28.5 -111v-162q0 -127 75.5 -182t204.5 -55q131 0 208 55t77 187v741h168v-725q0 -193 -120 -297t-333 -104q-217 0 -332.5 103t-115.5 296v149q0 61 28.5 116.5t67.5 105t67.5 92.5 t28.5 80q0 35 -15 44t-52 9h-148z" />
<glyph unicode="&#xe03;" horiz-adv-x="1153" d="M102 860v246h129v-57q25 23 61 40t87 17q68 0 107.5 -37t39.5 -108q0 -66 -34.5 -125.5t-80.5 -115.5t-81 -114.5t-35 -120.5v-125q0 -127 70.5 -182t201.5 -55t203 55t72 187v741h168v-725q0 -193 -115 -297t-328 -104q-217 0 -328.5 99t-111.5 292v118q0 61 36 123 t83 119t83 107.5t36 89.5q0 51 -50 51q-23 0 -45 -11.5t-39 -27.5v-80h-129z" />
<glyph unicode="&#xe04;" horiz-adv-x="1241" d="M143 0v717q0 197 116 303t364 106t361.5 -106.5t113.5 -302.5v-717h-168v735q0 133 -79 190.5t-228 57.5q-154 0 -233 -57.5t-79 -190.5v-256q96 84 238 84h135l8 -137h-147q-139 0 -234 -80v-346h-168z" />
<glyph unicode="&#xe05;" horiz-adv-x="1241" d="M143 0v827q0 156 70 227.5t188 71.5q66 0 123.5 -25.5t98.5 -82.5q41 57 105.5 82.5t127.5 25.5q139 0 190.5 -71.5t51.5 -229.5v-825h-168v848q0 59 -18.5 97t-82.5 38q-49 0 -88 -24.5t-69 -71.5h-103q-23 45 -52.5 70.5t-74.5 25.5q-70 0 -100.5 -38t-30.5 -99v-367 q96 84 238 84h135l8 -137h-147q-139 0 -234 -80v-346h-168z" />
<glyph unicode="&#xe06;" horiz-adv-x="1206" d="M102 860v246h129v-57q25 23 61 40t87 17q68 0 107.5 -37t39.5 -108q0 -66 -34.5 -129.5t-80.5 -125t-81 -124t-35 -123.5v-185q63 -66 148 -108.5t192 -42.5q133 0 196.5 59.5t63.5 196.5v727h168v-729q0 -193 -98.5 -295t-274.5 -102q-135 0 -229 41.5t-172 111.5 l-10 -133h-152v463q0 61 36 126.5t83 128t83 117t36 93.5q0 51 -50 51q-23 0 -45 -11.5t-39 -27.5v-80h-129z" />
<glyph unicode="&#xe07;" horiz-adv-x="1128" d="M51 760h164l262 -637q195 -14 288 100.5t93 366.5q0 143 -26.5 226t-89 118t-175.5 35h-71v137h90q236 0 338 -126t102 -388q0 -217 -64.5 -352.5t-173 -197.5t-245.5 -62q-39 0 -91.5 4t-89.5 18z" />
<glyph unicode="&#xe08;" horiz-adv-x="1165" d="M102 461l9 137h231l178 -475q96 -8 182 32t139.5 140t53.5 270q0 154 -41 246t-133 132t-250 40q-82 0 -173 -12.5t-175 -40.5v139q78 27 179 42t214 15q285 0 416 -145t131 -416q0 -193 -69.5 -322.5t-183.5 -196t-249 -66.5q-35 0 -81 6t-74 16l-173 459h-131z" />
<glyph unicode="&#xe09;" horiz-adv-x="1177" d="M102 922v139q84 29 203 47t236 18q254 0 373.5 -104t119.5 -324v-698h-151l-11 133q-74 -68 -169 -110.5t-234 -42.5q-352 0 -352 385v249h168v-249q0 -88 20.5 -141.5t72.5 -77t150 -23.5q102 0 188.5 41t149.5 110v426q0 109 -33.5 170.5t-114.5 87t-220 25.5 q-86 0 -199 -16.5t-197 -44.5z" />
<glyph unicode="&#xe0a;" horiz-adv-x="1169" d="M102 975l15 131h227q141 0 141 -139q0 -70 -28.5 -125.5t-67.5 -106.5t-67.5 -102t-28.5 -111v-162q0 -127 75.5 -182t204.5 -55q131 0 208 55t77 187v141q0 115 -37 157t-135 42h-57l8 133h45q104 0 140 49t36 149v90h168v-88q0 -100 -28.5 -166.5t-123.5 -99.5 q100 -37 126 -104.5t26 -165.5v-121q0 -193 -120 -297t-333 -104q-217 0 -332.5 103t-115.5 296v149q0 61 28.5 116.5t67.5 105t67.5 92.5t28.5 80q0 35 -15 44t-52 9h-148z" />
<glyph unicode="&#xe0b;" horiz-adv-x="1171" d="M102 860v246h129v-57q25 23 61 40t87 17q68 0 107.5 -37t39.5 -108q0 -66 -34.5 -125.5t-80.5 -115.5t-81 -114.5t-35 -120.5v-125q0 -127 75.5 -182t204.5 -55q131 0 208 55t77 187v141q0 115 -37 157t-135 42h-57l8 133h45q104 0 140 49t36 149v90h168v-88 q0 -100 -28.5 -166.5t-122.5 -99.5q100 -37 125.5 -104.5t25.5 -165.5v-121q0 -193 -120 -297t-333 -104q-217 0 -332.5 103t-115.5 296v110q0 61 36 123t83 119t83 107.5t36 89.5q0 51 -50 51q-23 0 -45 -11.5t-39 -27.5v-80h-129z" />
<glyph unicode="&#xe0c;" horiz-adv-x="1961" d="M102 741v197q78 72 204 130t298 58q238 0 354.5 -101t116.5 -320v-431q63 -66 145.5 -108.5t182.5 -42.5q127 0 187.5 59.5t60.5 196.5v727h168v-729q0 -193 -94.5 -295t-266.5 -102q-131 0 -221 41.5t-168 111.5l-10 -133h-150v711q0 154 -67.5 213t-237.5 59 q-111 0 -206 -31.5t-148 -85.5v-43l239 -57v-127q-78 -20 -115.5 -64.5t-37.5 -130.5v-206q0 -100 96 -101h117v-137h-193q-88 0 -138 54.5t-50 142.5v252q0 84 39 148.5t127 90.5z" />
<glyph unicode="&#xe0d;" horiz-adv-x="1980" d="M102 741v197q78 72 204 130t298 58q238 0 354.5 -101t116.5 -320v-95q0 -150 72 -216t225 -66q154 0 225.5 66.5t71.5 215.5v496h168v-483q0 -86 -18.5 -149.5t-53.5 -115.5q72 -68 72 -182q0 -278 -463 -278q-106 0 -213.5 20.5t-187.5 65.5v145q84 -45 197.5 -66.5 t203.5 -21.5q160 0 233.5 38t73.5 97q0 23 -5 42.5t-19 37.5q-55 -33 -125 -52.5t-160 -19.5q-463 0 -463 439v88q0 154 -67.5 213t-237.5 59q-111 0 -206 -31.5t-148 -85.5v-43l239 -57v-127q-78 -20 -115.5 -64.5t-37.5 -130.5v-206q0 -100 96 -101h117v-137h-193 q-88 0 -138 54.5t-50 142.5v252q0 84 39 148.5t127 90.5z" />
<glyph unicode="&#xe0e;" horiz-adv-x="1314" d="M102 0v137h82q88 0 88 99v213q0 84 29 147t115 92l-244 53v197q78 72 208 130t306 58q242 0 363.5 -101t121.5 -320v-1102h-165q-70 37 -144 55t-172 18q-176 1 -336 -77v143q78 39 163 58.5t183 19.5q94 0 172 -18.5t132 -49.5v959q0 154 -72 213t-246 59 q-115 0 -214 -31.5t-153 -85.5v-43l252 -57v-127q-76 -23 -103.5 -63.5t-27.5 -131.5v-219q0 -225 -211 -225h-127z" />
<glyph unicode="&#xe0f;" horiz-adv-x="1314" d="M102 0v137h82q88 0 88 99v213q0 84 29 147t115 92l-244 53v197q78 72 208 130t306 58q242 0 363.5 -101t121.5 -320v-836q0 -131 -73.5 -199.5t-202.5 -68.5q-72 0 -130 26.5t-87 65.5q-20 -39 -66.5 -64.5t-119.5 -25.5h-185l10 147h142q59 0 95 19.5t62 68.5h115 q23 -45 56.5 -69.5t91.5 -24.5q72 0 98.5 35t26.5 110v822q0 154 -72 213t-246 59q-115 0 -214 -31.5t-153 -85.5v-43l252 -57v-127q-76 -23 -103.5 -63.5t-27.5 -131.5v-219q0 -225 -211 -225h-127z" />
<glyph unicode="&#xe10;" horiz-adv-x="1253" d="M102 461l9 137h231l178 -475q96 -8 182 32t139.5 140t53.5 270q0 154 -41 246t-133 132t-250 40q-82 0 -173 -12.5t-175 -40.5v139q78 27 179 42t214 15q53 0 100.5 -5t88.5 -15h446l-8 -137h-209q72 -76 100.5 -175.5t28.5 -228.5q0 -193 -69.5 -322.5t-183.5 -196 t-249 -66.5q-35 0 -81 6t-74 16l-173 459h-131zM160 -397l10 147h141q59 0 95 19.5t63 68.5h115q23 -45 56.5 -69.5t90.5 -24.5q72 0 98.5 33t26.5 92v49h168v-70q0 -115 -73.5 -181t-202.5 -66q-72 0 -130.5 26.5t-87.5 65.5q-20 -39 -66 -64.5t-120 -25.5h-184z" />
<glyph unicode="&#xe11;" horiz-adv-x="1218" d="M102 860v246h129v-57q25 23 61 40t87 17q84 0 117 -62q51 37 115.5 59.5t138.5 22.5q176 0 250.5 -94t74.5 -287v-745h-168v748q0 127 -40 181t-162 54q-47 0 -100.5 -19.5t-88.5 -52.5q0 -55 -24.5 -108t-58.5 -106.5t-58.5 -112t-24.5 -123.5v-461h-168v471 q0 61 28 123.5t64.5 122t64.5 113t28 96.5q0 53 -50 53q-25 0 -47 -11.5t-39 -27.5v-80h-129z" />
<glyph unicode="&#xe12;" horiz-adv-x="2025" d="M102 543q0 281 88.5 432t247.5 151q82 0 131 -28.5t88 -79.5q45 51 109.5 79.5t134.5 28.5q121 0 179.5 -70.5t58.5 -203.5v-578q63 -66 145 -108.5t182 -42.5q127 0 187.5 59.5t60.5 196.5v727h168v-729q0 -193 -94 -295t-266 -102q-131 0 -221.5 41.5t-167.5 111.5 l-11 -133h-149v829q0 86 -23.5 120t-95.5 34q-45 0 -82 -21.5t-59 -74.5h-113q-29 53 -57.5 74.5t-83.5 21.5q-111 0 -150 -120t-39 -320q0 -233 77 -326.5t226 -93.5q39 0 77 4t65 12v-139q-68 -20 -170 -20q-127 0 -227.5 59t-158 183t-57.5 321z" />
<glyph unicode="&#xe13;" horiz-adv-x="1961" d="M102 741v197q78 72 204 130t298 58q238 0 354.5 -101t116.5 -320v-326q0 -137 60.5 -196.5t187.5 -59.5q102 0 183 43t145 108v832h168v-1106h-152l-10 133q-76 -70 -167 -111.5t-222 -41.5q-172 0 -265.5 102t-93.5 295v334q0 154 -67.5 213t-237.5 59 q-111 0 -206 -31.5t-148 -85.5v-43l239 -57v-127q-78 -20 -115.5 -64.5t-37.5 -130.5v-206q0 -100 96 -101h117v-137h-193q-88 0 -138 54.5t-50 142.5v252q0 84 39 148.5t127 90.5z" />
<glyph unicode="&#xe14;" horiz-adv-x="1304" d="M102 543q0 270 135.5 426.5t417.5 156.5q180 0 292 -62.5t163 -162.5t51 -215v-686h-168v684q0 86 -32.5 153.5t-107.5 106.5t-202 39q-205 0 -293 -114.5t-88 -325.5q0 -233 77 -326.5t226 -93.5q39 0 77 4t65 12v-139q-68 -20 -170 -20q-127 0 -227.5 59t-158 183 t-57.5 321z" />
<glyph unicode="&#xe15;" horiz-adv-x="1304" d="M102 543q0 281 89.5 432t254.5 151q82 0 133.5 -28.5t90.5 -79.5q45 51 111.5 79.5t136.5 28.5q121 0 182 -70.5t61 -203.5v-852h-168v829q0 86 -25.5 120t-97.5 34q-45 0 -83.5 -21.5t-61.5 -74.5h-113q-29 53 -59.5 74.5t-85.5 21.5q-117 0 -157 -120t-40 -320 q0 -233 77 -326.5t226 -93.5q39 0 77 4t65 12v-139q-68 -20 -170 -20q-127 0 -227.5 59t-158 183t-57.5 321z" />
<glyph unicode="&#xe16;" horiz-adv-x="1245" d="M102 741v197q78 72 208 130t306 58q242 0 364 -101t122 -320v-705h-168v711q0 154 -71.5 213t-246.5 59q-115 0 -214 -31.5t-152 -85.5v-43l239 -57v-127q-78 -20 -115.5 -64.5t-37.5 -130.5v-206q0 -100 96 -101h117v-137h-193q-88 0 -138 54.5t-50 142.5v252 q0 84 39 148.5t127 90.5z" />
<glyph unicode="&#xe17;" horiz-adv-x="1222" d="M143 0v1106h152l10 -133q78 70 175.5 111.5t230.5 41.5q176 0 272 -102t96 -293v-731h-168v729q0 135 -63.5 194.5t-196.5 59.5q-106 0 -191 -44t-149 -110v-829h-168z" />
<glyph unicode="&#xe18;" horiz-adv-x="1087" d="M102 852q0 145 121 209.5t336 64.5q102 0 206.5 -15t164.5 -38v-147q-68 25 -163 41t-185 16q-86 0 -159 -8t-117 -35t-44 -84q0 -61 46 -90t126 -46.5t184 -43.5q106 -27 188.5 -62.5t130.5 -103.5t48 -193q0 -174 -118.5 -255.5t-315.5 -81.5q-129 0 -240.5 23.5 t-187.5 53.5v420h156v-311q117 -43 260 -43q135 0 206.5 41t71.5 153q0 90 -37 134.5t-112.5 68t-190.5 47.5q-92 20 -178 48t-141.5 82.5t-55.5 154.5z" />
<glyph unicode="&#xe19;" horiz-adv-x="1222" d="M143 377v729h168v-727q0 -137 61.5 -196.5t194.5 -59.5q104 0 192.5 43t151.5 108v832h168v-1106h-151l-10 133q-76 -70 -174.5 -111.5t-231.5 -41.5q-178 0 -273.5 102t-95.5 295z" />
<glyph unicode="&#xe1a;" horiz-adv-x="1257" d="M143 418v688h168v-700q0 -150 82 -216.5t236 -66.5t235.5 66.5t81.5 216.5v700h168v-688q0 -217 -126 -327.5t-359 -110.5t-359.5 110.5t-126.5 327.5z" />
<glyph unicode="&#xe1b;" horiz-adv-x="1257" d="M143 418v688h168v-700q0 -150 82 -216.5t236 -66.5t235.5 66.5t81.5 216.5v1028h168v-1016q0 -217 -126 -327.5t-359 -110.5t-359.5 110.5t-126.5 327.5z" />
<glyph unicode="&#xe1c;" horiz-adv-x="1314" d="M143 0v903q0 86 53.5 144.5t141.5 58.5h176l6 -139h-108q-55 0 -79 -24.5t-24 -84.5v-625l309 535h80l310 -535v873h163v-1106h-172l-340 596l-344 -596h-172z" />
<glyph unicode="&#xe1d;" horiz-adv-x="1314" d="M143 0v903q0 86 53.5 144.5t141.5 58.5h176l6 -139h-108q-55 0 -79 -24.5t-24 -84.5v-625l309 535h80l310 -535v1201h163v-1434h-172l-340 596l-344 -596h-172z" />
<glyph unicode="&#xe1e;" horiz-adv-x="1476" d="M82 1106h172l182 -870l234 731v139h125l249 -870l181 870h170l-252 -1106h-168l-227 778l-246 -778h-166z" />
<glyph unicode="&#xe1f;" horiz-adv-x="1476" d="M82 1106h172l182 -870l234 731v139h125l249 -870l252 1198h170l-323 -1434h-168l-227 778l-246 -778h-166z" />
<glyph unicode="&#xe20;" horiz-adv-x="1314" d="M102 0v137h82q88 0 88 99v213q0 84 29 147t115 92l-244 53v197q78 72 208 130t306 58q242 0 363.5 -101t121.5 -320v-705h-167v711q0 154 -72 213t-246 59q-115 0 -214 -31.5t-153 -85.5v-43l252 -57v-127q-76 -23 -103.5 -63.5t-27.5 -131.5v-219q0 -225 -211 -225h-127 z" />
<glyph unicode="&#xe21;" horiz-adv-x="1222" d="M143 0v1106h168v-832q63 -66 148.5 -108.5t191.5 -42.5q133 0 196.5 59.5t63.5 196.5v727h168v-729q0 -193 -98 -295t-274 -102q-135 0 -229.5 41.5t-172.5 111.5l-10 -133h-152z" />
<glyph unicode="&#xe22;" horiz-adv-x="1210" d="M102 315q0 96 44 163t124 100q-70 23 -115.5 82t-45.5 157q0 156 92 232.5t235 76.5q55 0 96 -6t74 -16v-139q-27 10 -63.5 14t-75.5 4q-90 0 -140.5 -40t-50.5 -126q0 -90 59.5 -132t156.5 -42h116l10 -127h-133q-109 0 -162 -52t-53 -149q0 -193 314 -192 q158 0 236.5 60.5t78.5 193.5v729h168v-700q0 -207 -114.5 -316.5t-362.5 -109.5q-223 0 -355.5 80.5t-132.5 254.5z" />
<glyph unicode="&#xe23;" horiz-adv-x="1034" d="M102 827q0 145 107.5 222t320.5 77q90 0 178.5 -14t147.5 -35v-147q-68 27 -146.5 40t-154.5 13q-139 0 -212 -29.5t-73 -122.5q0 -59 38 -95t108.5 -61.5t171.5 -58.5q100 -33 178 -72.5t122 -100t44 -158.5q0 -166 -120.5 -235.5t-317.5 -69.5q-102 0 -199.5 13 t-163.5 40v149q78 -31 166 -45t168 -14q150 0 224.5 29.5t74.5 130.5q0 72 -38 107.5t-107.5 59t-167.5 56.5q-90 31 -170 68.5t-129.5 97t-49.5 155.5z" />
<glyph unicode="&#xe24;" horiz-adv-x="1245" d="M102 741v197q78 72 208 130t306 58q242 0 364 -101t122 -320v-1033h-168v1039q0 154 -71.5 213t-246.5 59q-115 0 -214 -31.5t-152 -85.5v-43l239 -57v-127q-78 -20 -115.5 -64.5t-37.5 -130.5v-206q0 -100 96 -101h117v-137h-193q-88 0 -138 54.5t-50 142.5v252 q0 84 39 148.5t127 90.5z" />
<glyph unicode="&#xe25;" horiz-adv-x="1200" d="M102 309q0 156 104.5 247t319.5 91h363v86q0 94 -27.5 148.5t-95.5 78t-188 23.5q-92 0 -181.5 -12.5t-173.5 -40.5v139q78 27 179.5 42t205.5 15q233 0 341 -97t108 -308v-721h-168v508h-352q-139 0 -205 -46t-66 -153q0 -104 59.5 -145t190.5 -41q80 0 139 16v-139 q-35 -8 -82 -14t-102 -6q-104 0 -187 33.5t-132.5 106.5t-49.5 189z" />
<glyph unicode="&#xe26;" horiz-adv-x="1314" d="M102 0v137h82q88 0 88 99v213q0 84 29 147t115 92l-244 53v197q78 72 208 130t306 58q242 0 363.5 -101t121.5 -320v-1033h-167v1039q0 154 -72 213t-246 59q-115 0 -214 -31.5t-153 -85.5v-43l252 -57v-127q-76 -23 -103.5 -63.5t-27.5 -131.5v-219q0 -225 -211 -225 h-127z" />
<glyph unicode="&#xe27;" horiz-adv-x="1032" d="M102 37v141q59 -25 130 -40t141 -15q152 0 235.5 44t118.5 138t35 248q0 229 -90 329.5t-305 100.5q-72 0 -137.5 -14.5t-127.5 -42.5v143q63 29 134 43t165 14q268 0 398.5 -145t130.5 -428q0 -274 -118.5 -423.5t-399.5 -149.5q-176 0 -310 57z" />
<glyph unicode="&#xe28;" horiz-adv-x="1282" d="M143 0v717q0 197 116 303t364 106q53 0 100 -5t88 -15h389l-8 -137h-170q41 -49 58.5 -111.5t17.5 -140.5v-717h-168v735q0 133 -79 190.5t-228 57.5q-154 0 -233 -57.5t-79 -190.5v-256q96 84 238 84h135l8 -137h-147q-139 0 -234 -80v-346h-168z" />
<glyph unicode="&#xe29;" horiz-adv-x="1292" d="M143 418v688h168v-700q0 -150 82 -216.5t236 -66.5t235.5 66.5t81.5 216.5v163h-293v138h293v399h168v-399h127l-14 -138h-113v-151q0 -217 -126 -327.5t-359 -110.5t-359.5 110.5t-126.5 327.5z" />
<glyph unicode="&#xe2a;" horiz-adv-x="1210" d="M102 309q0 156 104.5 247t319.5 91h363v86q0 94 -27.5 148.5t-95.5 78t-188 23.5q-92 0 -181.5 -12.5t-173.5 -40.5v139q78 27 179.5 42t205.5 15q53 0 100.5 -5t88.5 -15h352l-8 -137h-148q35 -47 49.5 -108.5t14.5 -139.5v-721h-168v508h-352q-139 0 -205 -46t-66 -153 q0 -104 59.5 -145t190.5 -41q80 0 139 16v-139q-35 -8 -82 -14t-102 -6q-104 0 -187 33.5t-132.5 106.5t-49.5 189z" />
<glyph unicode="&#xe2b;" horiz-adv-x="1214" d="M143 0v1106h168v-358h367q135 0 186 57t51 166v135h168v-133q0 -104 -38.5 -182t-137.5 -109q102 -33 133 -106.5t31 -172.5v-403h-168v383q0 131 -50 179t-185 48h-357v-610h-168z" />
<glyph unicode="&#xe2c;" horiz-adv-x="1476" d="M82 1106h172l188 -870l228 649v139h125l243 -788l150 673q23 102 -2 141.5t-103 39.5h-82l21 133h86q84 0 122 27.5t54 101.5l19 82h163l-22 -101q-20 -88 -59 -130t-101 -54q106 -51 66 -229l-207 -920h-168l-227 707l-246 -707h-166z" />
<glyph unicode="&#xe2d;" horiz-adv-x="1155" d="M102 57v557h406l8 -137h-246v-313q53 -18 120 -29.5t132 -11.5q133 0 212 41t115 135t36 252q0 164 -38 258t-127 134t-243 40q-88 0 -181 -12.5t-177 -40.5v139q82 29 187.5 43t213.5 14q283 0 408 -144t125 -431q0 -281 -125.5 -426t-401.5 -145q-127 0 -237.5 23.5 t-186.5 53.5z" />
<glyph unicode="&#xe2e;" horiz-adv-x="1220" d="M102 57v557h406l8 -137h-246v-313q53 -18 120 -29.5t132 -11.5q133 0 212 41t115 135t36 252q0 164 -38 258t-127 134t-243 40q-88 0 -181 -12.5t-177 -40.5v139q82 29 187.5 43t213.5 14q53 0 100.5 -5t88.5 -15h409l-8 -137h-178q63 -72 92 -176.5t29 -241.5 q0 -281 -125.5 -426t-401.5 -145q-127 0 -237.5 23.5t-186.5 53.5z" />
<glyph unicode="&#xe2f;" horiz-adv-x="1091" d="M123 881q0 66 12 120t35 105h172q-27 -51 -39 -101.5t-12 -123.5q0 -88 50 -135.5t163 -47.5q172 0 276 80v328h168v-1106h-168v635q-55 -37 -130 -58.5t-161 -21.5q-168 0 -267 91t-99 235z" />
<glyph unicode="&#xe30;" horiz-adv-x="667" d="M102 131v229h146v-102h317l-6 -127h-457zM102 696v230h146v-101h317l-6 -129h-457z" />
<glyph unicode="&#xe31;" d="M-588 1292v271h142v-150h550l-8 -121h-684z" />
<glyph unicode="&#xe32;" horiz-adv-x="899" d="M41 930v139q61 25 145 41t168 16q211 0 306.5 -93t95.5 -300v-733h-168v715q0 92 -18.5 151.5t-75 88t-170.5 28.5q-66 0 -143 -14.5t-140 -38.5z" />
<glyph unicode="&#xe33;" horiz-adv-x="899" d="M-444 1456q0 90 63.5 149.5t151.5 59.5q90 0 151.5 -59.5t61.5 -149.5q0 -88 -61.5 -147.5t-151.5 -59.5q-88 0 -151.5 59.5t-63.5 147.5zM-332 1456q0 -39 30 -69.5t73 -30.5q41 0 70.5 30.5t29.5 69.5q0 41 -29.5 72t-70.5 31q-43 0 -73 -31t-30 -72zM41 930v139 q61 25 145 41t168 16q211 0 306.5 -93t95.5 -300v-733h-168v715q0 92 -18.5 151.5t-75 88t-170.5 28.5q-66 0 -143 -14.5t-140 -38.5z" />
<glyph unicode="&#xe34;" d="M-958 1292l8 121h805v-121h-813z" />
<glyph unicode="&#xe35;" d="M-958 1292l8 121h663v174h142v-295h-813z" />
<glyph unicode="&#xe36;" d="M-958 1292l8 121h497q-10 20 -10 47q0 74 48 118t124 44q90 0 131 -50t41 -110q0 -70 -48 -120t-132 -50h-659zM-371 1460q0 -31 22.5 -54.5t57.5 -23.5q37 0 58.5 24t21.5 54q0 35 -22.5 58.5t-57.5 23.5q-33 0 -56.5 -22.5t-23.5 -59.5z" />
<glyph unicode="&#xe37;" d="M-958 1292l8 121h420v174h127v-174h131v174h127v-295h-813z" />
<glyph unicode="&#xe38;" d="M-424 -244l8 115h273v-383h-146v268h-135z" />
<glyph unicode="&#xe39;" d="M-684 -240l6 111h227v-215q0 -72 89 -72q92 0 92 72v215h127v-225q0 -72 -57.5 -123t-161.5 -51q-98 0 -155.5 51t-57.5 123v114h-109z" />
<glyph unicode="&#xe3a;" d="M-319 -211q0 41 27.5 67.5t66.5 26.5q41 0 67.5 -26.5t26.5 -67.5q0 -39 -26.5 -65.5t-67.5 -26.5q-39 0 -66.5 26.5t-27.5 65.5z" />
<glyph unicode="&#xe3f;" horiz-adv-x="1284" d="M143 0v1319h402v176h131v-176h78q195 0 285.5 -91t90.5 -257q0 -109 -44 -181.5t-121 -109.5q100 -25 158.5 -95.5t58.5 -207.5q0 -193 -100.5 -285t-295.5 -92h-110v-176h-131v176h-402zM311 127h234v487h-234v-487zM311 741h234v449h-234v-449zM676 127h82 q133 0 194.5 58.5t61.5 197.5q0 115 -60.5 173t-222.5 58h-55v-487zM676 741h67q125 0 177.5 60.5t52.5 156.5q0 115 -53.5 173.5t-206.5 58.5h-37v-449z" />
<glyph unicode="&#xe40;" horiz-adv-x="626" d="M143 197v909h168v-868q0 -100 97 -101h116v-137h-192q-88 0 -138.5 54.5t-50.5 142.5z" />
<glyph unicode="&#xe41;" horiz-adv-x="1075" d="M143 197v909h168v-868q0 -100 97 -101h96v-137h-172q-88 0 -138.5 54.5t-50.5 142.5zM612 197v909h168v-868q0 -100 97 -101h96v-137h-172q-88 0 -138.5 54.5t-50.5 142.5z" />
<glyph unicode="&#xe42;" horiz-adv-x="649" d="M10 1491v135h588v-135h-375q66 -35 102.5 -79t53 -112.5t16.5 -175.5v-886q0 -100 97 -101h116v-137h-192q-88 0 -138.5 54.5t-50.5 142.5v979q0 139 -53 204.5t-164 110.5z" />
<glyph unicode="&#xe43;" horiz-adv-x="589" d="M0 1430v131q59 35 134 53t145 18q137 0 203.5 -62.5t66.5 -170.5q0 -63 -26.5 -108.5t-65.5 -82.5t-79 -77.5t-66.5 -94t-26.5 -131.5v-667q0 -100 96 -101h117v-137h-193q-88 0 -138 54.5t-50 142.5v710q0 86 26.5 147.5t64.5 105.5t77 80t65.5 71t26.5 75 q0 66 -39 86.5t-111 20.5q-113 0 -227 -63z" />
<glyph unicode="&#xe44;" horiz-adv-x="604" d="M-10 1491v135h573v-133q-125 -53 -171 -148.5t-46 -259.5v-847q0 -100 96 -101h117v-137h-192q-88 0 -138.5 54.5t-50.5 142.5v944q0 129 50.5 215t127.5 135h-366z" />
<glyph unicode="&#xe45;" horiz-adv-x="899" d="M41 930v139q61 25 145 41t168 16q211 0 306.5 -93t95.5 -300v-1061h-168v1043q0 92 -18.5 151.5t-75 88t-170.5 28.5q-66 0 -143 -14.5t-140 -38.5z" />
<glyph unicode="&#xe46;" horiz-adv-x="1191" d="M123 770q0 158 74.5 257t201.5 99q70 0 115 -23.5t82 -78.5q43 55 100.5 78.5t120.5 23.5q131 0 181.5 -70.5t50.5 -230.5v-825h-168v850q0 49 -16.5 91t-78.5 42q-49 0 -83.5 -27.5t-57.5 -74.5h-100q-23 51 -44.5 76.5t-72.5 25.5q-61 0 -99 -49t-38 -164 q0 -113 53 -155t145 -42q39 0 77 4.5t65 12.5v-139q-68 -20 -172 -21q-156 0 -246 85t-90 255z" />
<glyph unicode="&#xe47;" d="M-967 1511q0 109 69 174.5t193 65.5h492l-8 -109h-469q-78 0 -115 -29.5t-37 -101.5q0 -63 35 -90.5t98 -27.5t91 22.5t28 67.5v47h111v-47q0 -47 24.5 -65.5t75.5 -18.5h131v-107h-141q-49 0 -89 15.5t-57 48.5q-20 -33 -75.5 -50.5t-108.5 -17.5q-115 0 -181.5 58.5 t-66.5 164.5z" />
<glyph unicode="&#xe48;" d="M-309 1292v332h168v-332h-168z" />
<glyph unicode="&#xe49;" d="M-737 1485v121h282v-193h449l-8 -121h-561v193h-162z" />
<glyph unicode="&#xe4a;" d="M-918 1485q0 102 52.5 155.5t132.5 53.5q106 0 135 -84h2q16 41 54 62.5t87 21.5q90 0 131 -44t41 -116v-148h29q31 0 41 14.5t10 51.5v234h109v-242q0 -68 -40 -110t-114 -42h-147v211q0 47 -12.5 66.5t-59.5 19.5q-51 0 -65.5 -25.5t-14.5 -66.5v-29h-96v29 q0 41 -13.5 66.5t-62.5 25.5q-47 0 -64.5 -24.5t-17.5 -83.5q0 -66 25.5 -87.5t95.5 -21.5h55v-98h-69q-104 0 -164 51t-60 160z" />
<glyph unicode="&#xe4b;" d="M-592 1403v127h146v119h155v-119h148v-127h-148v-111h-155v111h-146z" />
<glyph unicode="&#xe4c;" d="M-588 1292v275h576l-6 -121h-428v-154h-142z" />
<glyph unicode="&#xe4d;" d="M-444 1456q0 90 63.5 149.5t151.5 59.5q90 0 151.5 -59.5t61.5 -149.5q0 -88 -61.5 -147.5t-151.5 -59.5q-88 0 -151.5 59.5t-63.5 147.5zM-332 1456q0 -39 30 -69.5t73 -30.5q41 0 70.5 30.5t29.5 69.5q0 41 -29.5 72t-70.5 31q-43 0 -73 -31t-30 -72z" />
<glyph unicode="&#xe4e;" d="M-604 1442q0 78 50 120t116 50q-18 16 -25.5 37.5t-7.5 46.5q0 55 49 91t141 36q29 0 61 -6.5t50 -16.5v-90q-45 25 -100 25q-45 0 -67.5 -11.5t-22.5 -42.5q0 -27 21.5 -40t66.5 -23v-94q-18 10 -43 13t-41 3q-57 0 -92 -17.5t-35 -64.5q0 -39 28.5 -55.5t79.5 -16.5 q37 0 68 7.5t57 25.5v-94q-27 -18 -64.5 -25.5t-78.5 -7.5q-100 0 -155.5 37t-55.5 113z" />
<glyph unicode="&#xe4f;" horiz-adv-x="1247" d="M102 500q0 143 71 262t189.5 189.5t262.5 70.5q143 0 261 -70.5t188.5 -189.5t70.5 -262t-70.5 -262t-188.5 -188.5t-261 -69.5t-262 69.5t-190 188t-71 262.5zM231 500q0 -109 53.5 -198t142.5 -142.5t198 -53.5t197.5 53.5t142 142.5t53.5 198t-53.5 197.5t-142.5 142 t-197 53.5q-109 0 -198 -53.5t-142.5 -142.5t-53.5 -197zM358 500q0 74 36 134t96.5 95t134.5 35t133 -35t95 -95.5t36 -133.5q0 -74 -36 -134.5t-95 -96.5t-133 -36t-134.5 36t-96.5 96.5t-36 134.5zM473 500q0 -63 44.5 -107.5t107.5 -44.5t107 44t44 108q0 63 -44 107 t-107 44t-107.5 -44t-44.5 -107z" />
<glyph unicode="&#xe50;" horiz-adv-x="1257" d="M102 485q0 252 145.5 379t381.5 127q238 0 382 -127t144 -379q0 -254 -143 -379.5t-383 -125.5t-383.5 125.5t-143.5 379.5zM270 485q0 -193 92.5 -277.5t266.5 -84.5q176 0 267 85t91 277q0 190 -91 276.5t-267 86.5q-174 0 -266.5 -86t-92.5 -277z" />
<glyph unicode="&#xe51;" horiz-adv-x="1312" d="M102 516q0 225 141.5 350t413.5 125q281 0 417 -144.5t136 -402.5q0 -242 -149.5 -416.5t-452.5 -240.5v150q219 51 327.5 173.5t108.5 338.5q0 193 -89 296t-298 103q-203 0 -295 -82t-92 -250q0 -143 64.5 -206.5t202.5 -63.5q51 0 106 12t88 35v-137 q-41 -25 -97 -39.5t-130 -14.5q-195 0 -298.5 107.5t-103.5 306.5z" />
<glyph unicode="&#xe52;" horiz-adv-x="1425" d="M143 467v639h158v-643q0 -176 109.5 -261t314.5 -85q176 0 287.5 71.5t111.5 229.5v299q0 76 -21.5 109.5t-82.5 33.5q-51 0 -82 -30.5t-43 -77.5h-104q-18 47 -42 77.5t-79 30.5q-66 0 -94.5 -50t-28.5 -165q0 -104 46 -139t136 -35q76 0 131 18v-116 q-33 -10 -71.5 -16.5t-88.5 -6.5q-129 0 -209.5 71t-80.5 224q0 182 66.5 264t172.5 82q70 0 113 -23.5t80 -76.5q45 55 99 77.5t116 22.5q115 0 170 -66.5t55 -187.5v-301q0 -150 -70.5 -251t-195.5 -153t-291 -52q-172 0 -303 53t-205 161.5t-74 272.5z" />
<glyph unicode="&#xe53;" horiz-adv-x="1310" d="M102 461q0 274 91.5 402t248.5 128q150 0 224 -110q47 57 109.5 83.5t125.5 26.5q113 0 189.5 -62.5t76.5 -191.5v-737h-168v705q0 80 -30.5 111.5t-102.5 31.5q-51 0 -91 -31t-40 -92v-180l-141 2v180q0 61 -40 91t-91 30q-111 0 -152 -94.5t-41 -292.5q0 -143 35 -216 t101.5 -97.5t164.5 -24.5q37 0 75 4t65 12v-139q-63 -20 -172 -20q-133 0 -231.5 44t-152 149.5t-53.5 287.5z" />
<glyph unicode="&#xe54;" horiz-adv-x="1294" d="M102 459q0 254 172 393t480 139q158 0 258 16.5t184 69.5v-147q-78 -49 -184.5 -65.5t-251.5 -16.5q-252 0 -371 -94.5t-119 -294.5q0 -178 83 -257t235 -79q29 0 58.5 5t58.5 19q-45 66 -46 170q0 127 86 198t224 71q123 0 192 -37v-127q-59 35 -145 35 q-100 0 -150.5 -32t-50.5 -110q0 -80 40 -115.5t113.5 -46t178.5 -10.5h86v-143h-135q-82 0 -151.5 11.5t-123.5 35.5q-55 -35 -117.5 -51t-132.5 -16q-217 0 -344 121.5t-127 357.5z" />
<glyph unicode="&#xe55;" horiz-adv-x="1294" d="M102 459q0 195 110 313.5t296 161.5q-33 6 -61.5 18.5t-45.5 20.5v149q45 -33 114 -63.5t143.5 -49t138.5 -18.5q137 0 229 17.5t170 68.5v-147q-78 -49 -184.5 -65.5t-251.5 -16.5q-217 0 -353.5 -94.5t-136.5 -294.5q0 -178 83 -257t235 -79q29 0 58.5 5t58.5 19 q-45 66 -46 170q0 127 86 198t224 71q123 0 192 -37v-127q-59 35 -145 35q-100 0 -150.5 -32t-50.5 -110q0 -80 40 -115.5t113.5 -46t178.5 -10.5h86v-143h-135q-82 0 -151.5 11.5t-123.5 35.5q-55 -35 -117.5 -51t-132.5 -16q-217 0 -344 121.5t-127 357.5z" />
<glyph unicode="&#xe56;" horiz-adv-x="1329" d="M61 1106h156l119 -354q53 113 160.5 176t255.5 63q170 0 274 -65.5t152.5 -180t48.5 -262.5q0 -233 -141.5 -368t-389.5 -135q-111 0 -212 25.5t-179 82.5v150q90 -63 184.5 -89t196.5 -26q188 0 281.5 88t93.5 272t-71.5 274.5t-260.5 90.5q-135 0 -222 -67.5 t-128 -213.5h-131z" />
<glyph unicode="&#xe57;" horiz-adv-x="1751" d="M102 461q0 274 87 402t243 128q80 0 133 -27.5t90 -82.5q47 57 107.5 83.5t128.5 26.5q121 0 191.5 -63.5t70.5 -192.5v-606h33q145 0 204.5 59.5t59.5 214.5v703h158v-672q0 -229 -100.5 -331.5t-344.5 -102.5h-164v707q0 80 -31.5 111.5t-105.5 31.5q-47 0 -91 -29.5 t-44 -91.5v-182h-147v180q0 63 -39 93t-90 30q-113 0 -150 -101.5t-37 -287.5q0 -147 36 -221t105.5 -98.5t165.5 -24.5q35 0 75 4t67 12v-133q-63 -20 -176 -20q-133 0 -230.5 44t-151 149.5t-53.5 287.5z" />
<glyph unicode="&#xe58;" horiz-adv-x="1288" d="M102 469q0 274 157 398t443 124q164 0 280 15.5t204 70.5v-147q-80 -49 -202 -65.5t-279 -16.5q-145 0 -241.5 -33t-145 -115t-48.5 -231q0 -199 46 -272.5t151 -73.5q57 0 102 30.5t45 92.5v164h129v-166q0 -41 25 -69t60.5 -40t68.5 -12q47 0 79 7t62 28v313h-145 l10 117h283v-518q-55 -43 -114.5 -66.5t-151.5 -23.5q-72 0 -136.5 26.5t-103.5 81.5q-72 -108 -238 -108q-162 0 -251 116.5t-89 372.5z" />
<glyph unicode="&#xe59;" horiz-adv-x="1527" d="M102 463q0 270 88.5 399t255.5 129q90 0 140.5 -28.5t79.5 -81.5q35 55 94 82.5t135 27.5q100 0 175 -54t75 -165v-35h12q90 0 127 38t37 155v135h145v-100q0 -199 -78.5 -281t-263.5 -82h-106v96q0 84 -30 118t-103 34q-70 0 -106 -35t-17 -98l211 -717h-148l-217 735 q-16 57 -49 86t-104 29q-106 0 -148.5 -95.5t-42.5 -295.5q0 -131 30 -206t86 -105.5t134 -30.5q33 0 64.5 4t58.5 12v-139q-60 -14 -154 -14q-166 0 -273.5 114.5t-107.5 368.5z" />
<glyph unicode="&#xe5a;" horiz-adv-x="1695" d="M123 881q0 66 12 120t35 105h172q-27 -51 -39 -101.5t-12 -123.5q0 -88 50 -135.5t163 -47.5q172 0 276 80v328h168v-365q53 -43 160 -43q172 0 276 80v328h168v-1106h-168v635q-55 -37 -129.5 -58.5t-160.5 -21.5q-98 0 -146 33v-588h-168v635q-55 -37 -130 -58.5 t-161 -21.5q-168 0 -267 91t-99 235z" />
<glyph unicode="&#xe5b;" horiz-adv-x="2461" d="M102 596q0 154 55.5 273.5t161 188t254.5 68.5q147 0 235.5 -48t127.5 -133t39 -197q0 -133 -75 -233.5t-218 -154.5v150q84 45 109.5 105.5t25.5 129.5q0 121 -52 185.5t-192 64.5q-158 0 -237.5 -106.5t-79.5 -286.5q0 -217 102.5 -319.5t294.5 -102.5 q242 0 351.5 137.5t109.5 368.5q0 80 -6 142.5t-18 129.5h186q51 -88 95 -201.5t65 -215.5h4q16 51 31.5 120.5t25.5 139t6 117.5h146q18 -37 41.5 -97.5t47 -128t38.5 -129.5h4q12 37 25.5 95.5t24.5 121t13 111.5h129q20 -35 42 -91.5t40.5 -113.5t26.5 -98h4 q47 100 41 256h104q2 -33 1 -68t-5 -59h133l-8 -101h-145q-10 -47 -26.5 -87t-41.5 -87h-121q-4 31 -19.5 84.5t-33.5 108.5t-37 88h-4q-2 -33 -14.5 -95.5t-28.5 -127t-31 -101.5h-145q-12 80 -44 178.5t-67 167.5h-4q-2 -45 -16 -115.5t-32.5 -145t-39.5 -130.5h-143 q-2 63 -20.5 139t-43 149t-49.5 126h-4q20 -219 -43 -382t-200.5 -252t-344.5 -89q-260 0 -405.5 146.5t-145.5 404.5z" />
<glyph unicode="&#x1e0c;" horiz-adv-x="1314" d="M143 0v1319h516q287 0 420 -155.5t133 -512.5q0 -338 -130 -494.5t-423 -156.5h-516zM311 131h318q139 0 231 42t138 154.5t46 323.5q0 209 -41.5 326t-133 163t-240.5 46h-318v-1055zM567 -178h164v-158h-164v158z" />
<glyph unicode="&#x1e0d;" horiz-adv-x="1177" d="M102 471q0 262 122 391t327 129q182 0 315 -92v481h168v-1380h-143l-12 102q-68 -63 -148.5 -92.5t-189.5 -29.5q-205 0 -322 113.5t-117 377.5zM270 471q0 -190 72 -273t242 -83q84 0 155.5 28.5t126.5 87.5v529q-51 45 -120.5 70.5t-157.5 25.5q-162 0 -240 -93 t-78 -292zM532 -178h164v-158h-164v158z" />
<glyph unicode="&#x1e0e;" horiz-adv-x="1314" d="M143 0v1319h516q287 0 420 -155.5t133 -512.5q0 -338 -130 -494.5t-423 -156.5h-516zM287 -174h590v-121h-590v121zM311 131h318q139 0 231 42t138 154.5t46 323.5q0 209 -41.5 326t-133 163t-240.5 46h-318v-1055z" />
<glyph unicode="&#x1e0f;" horiz-adv-x="1177" d="M102 471q0 262 122 391t327 129q182 0 315 -92v481h168v-1380h-143l-12 102q-68 -63 -148.5 -92.5t-189.5 -29.5q-205 0 -322 113.5t-117 377.5zM270 471q0 -190 72 -273t242 -83q84 0 155.5 28.5t126.5 87.5v529q-51 45 -120.5 70.5t-157.5 25.5q-162 0 -240 -93 t-78 -292zM311 -174h590v-121h-590v121z" />
<glyph unicode="&#x1e20;" horiz-adv-x="1308" d="M102 631q0 215 65.5 374.5t205 246.5t360.5 87q115 0 208 -16t175 -45v-148q-82 31 -174 48.5t-194 17.5q-178 0 -283 -67.5t-150 -194.5t-45 -303q0 -244 113 -376t362 -132q88 0 170 14.5t146 38.5v420h-352v115h497v-627q-59 -39 -173 -71.5t-298 -32.5 q-213 0 -353 80.5t-210 227t-70 343.5zM426 1468v121h590v-121h-590z" />
<glyph unicode="&#x1e21;" horiz-adv-x="1120" d="M102 643q0 182 105.5 265t322.5 83q45 0 93.5 -7t74.5 -13h351l-7 -115h-176q47 -39 67.5 -93t20.5 -120q0 -162 -94 -251t-289 -89q-33 0 -58.5 3l-59.5 7q-63 -2 -118.5 -35.5t-55.5 -87.5q0 -35 27.5 -51t101.5 -16h268q145 0 223 -58.5t78 -170.5q0 -143 -119 -198.5 t-338 -55.5q-109 0 -212 12t-177 39v139q82 -27 184.5 -41t196.5 -14q154 0 225.5 18.5t71.5 93.5q0 53 -38 76t-134 23h-258q-268 0 -268 180q0 59 37.5 113.5t113.5 76.5q-82 41 -121 114t-39 173zM270 643q0 -113 58.5 -163t201.5 -50q145 0 200.5 47t55.5 166t-58 172 t-198 53q-137 0 -198.5 -51t-61.5 -174zM270 1128v121h590v-121h-590z" />
<glyph unicode="&#x1e24;" horiz-adv-x="1318" d="M143 0v1319h168v-594h697v594h168v-1319h-168v594h-697v-594h-168zM580 -178h163v-158h-163v158z" />
<glyph unicode="&#x1e25;" horiz-adv-x="1167" d="M143 0v1380h168v-514q68 55 159 90t212 35q176 0 264 -86t88 -270v-635h-168v629q0 127 -56 177t-185 50q-82 0 -169 -36t-145 -93v-727h-168zM512 -178h164v-158h-164v158z" />
<glyph unicode="&#x1e2a;" horiz-adv-x="1318" d="M143 0v1319h168v-594h697v594h168v-1319h-168v594h-697v-594h-168zM399 -143h119q0 -78 38 -115t101 -37q68 0 106 37t38 115h119q0 -115 -67 -186.5t-196 -71.5q-127 0 -192.5 71.5t-65.5 186.5z" />
<glyph unicode="&#x1e2b;" horiz-adv-x="1167" d="M143 0v1380h168v-514q68 55 159 90t212 35q176 0 264 -86t88 -270v-635h-168v629q0 127 -56 177t-185 50q-82 0 -169 -36t-145 -93v-727h-168zM340 -143h119q0 -78 38 -115t101 -37q68 0 105.5 37t37.5 115h119q0 -115 -66.5 -186.5t-195.5 -71.5q-127 0 -192.5 71.5 t-65.5 186.5z" />
<glyph unicode="&#x1e36;" horiz-adv-x="1075" d="M143 0v1319h168v-1188h703v-131h-871zM481 -178h164v-158h-164v158z" />
<glyph unicode="&#x1e37;" horiz-adv-x="538" d="M143 209v1171h168v-1153q0 -61 20.5 -83.5t63.5 -22.5q47 0 92 12v-133q-33 -12 -65.5 -16t-67.5 -4q-98 0 -154.5 52t-56.5 177zM229 -178h164v-158h-164v158z" />
<glyph unicode="&#x1e38;" horiz-adv-x="1075" d="M-61 1468v121h589v-121h-589zM143 0v1319h168v-1188h703v-131h-871zM481 -178h164v-158h-164v158z" />
<glyph unicode="&#x1e39;" horiz-adv-x="538" d="M-63 1477v120h589v-120h-589zM143 209v1171h168v-1153q0 -61 20.5 -83.5t63.5 -22.5q47 0 92 12v-133q-33 -12 -65.5 -16t-67.5 -4q-98 0 -154.5 52t-56.5 177zM229 -178h164v-158h-164v158z" />
<glyph unicode="&#x1e3a;" horiz-adv-x="1075" d="M143 0v1319h168v-1188h703v-131h-871zM252 -150h590v-120h-590v120z" />
<glyph unicode="&#x1e3b;" horiz-adv-x="538" d="M-18 -150h589v-120h-589v120zM143 209v1171h168v-1153q0 -61 20.5 -83.5t63.5 -22.5q47 0 92 12v-133q-33 -12 -65.5 -16t-67.5 -4q-98 0 -154.5 52t-56.5 177z" />
<glyph unicode="&#x1e42;" horiz-adv-x="1540" d="M143 0v1319h181l446 -916l447 916h180v-1319h-166v1057l-404 -828h-112l-406 828v-1057h-166zM688 -178h164v-158h-164v158z" />
<glyph unicode="&#x1e43;" horiz-adv-x="1751" d="M143 0v971h152l10 -111q78 61 165 96t187 35q109 0 169.5 -34.5t88.5 -98.5q70 57 160 95t215 38q166 0 247 -85t81 -261v-645h-166v629q0 129 -54.5 178t-174.5 49q-80 0 -153 -26.5t-124 -81.5q12 -51 12 -119v-629h-157v625q0 123 -41 177t-162 54q-82 0 -156.5 -36 t-132.5 -89v-731h-166zM795 -178h163v-158h-163v158z" />
<glyph unicode="&#x1e44;" horiz-adv-x="1357" d="M143 0v1319h152l752 -1061v1061h167v-1319h-153l-750 1059v-1059h-168zM625 1454v158h163v-158h-163z" />
<glyph unicode="&#x1e45;" horiz-adv-x="1167" d="M143 0v971h152l10 -111q70 57 163 94t214 37q184 0 268 -86t84 -270v-635h-168v629q0 127 -51 177t-197 50q-90 0 -169.5 -32.5t-137.5 -90.5v-733h-168zM496 1114v158h163v-158h-163z" />
<glyph unicode="&#x1e46;" horiz-adv-x="1357" d="M143 0v1319h152l752 -1061v1061h167v-1319h-153l-750 1059v-1059h-168zM596 -178h164v-158h-164v158z" />
<glyph unicode="&#x1e47;" horiz-adv-x="1167" d="M143 0v971h152l10 -111q70 57 163 94t214 37q184 0 268 -86t84 -270v-635h-168v629q0 127 -51 177t-197 50q-90 0 -169.5 -32.5t-137.5 -90.5v-733h-168zM506 -178h164v-158h-164v158z" />
<glyph unicode="&#x1e48;" horiz-adv-x="1357" d="M143 0v1319h152l752 -1061v1061h167v-1319h-153l-750 1059v-1059h-168zM395 -145h590v-121h-590v121z" />
<glyph unicode="&#x1e49;" horiz-adv-x="1167" d="M143 0v971h152l10 -111q70 57 163 94t214 37q184 0 268 -86t84 -270v-635h-168v629q0 127 -51 177t-197 50q-90 0 -169.5 -32.5t-137.5 -90.5v-733h-168zM287 -145h590v-121h-590v121z" />
<glyph unicode="&#x1e5a;" horiz-adv-x="1232" d="M143 0v1319h580q213 0 310 -110.5t97 -299.5q0 -145 -70.5 -241.5t-209.5 -128.5q41 -25 62.5 -56.5t43.5 -85.5l172 -397h-172l-168 383q-27 61 -64.5 88t-133.5 27h-279v-498h-168zM311 629h365q133 0 210 66.5t77 213.5q0 276 -265 277h-387v-557zM514 -178h164v-158 h-164v158z" />
<glyph unicode="&#x1e5b;" horiz-adv-x="729" d="M143 0v971h152l12 -123q72 47 169 86t192 57v-131q-57 -12 -125 -33.5t-129.5 -48t-102.5 -55.5v-723h-168zM145 -178h164v-158h-164v158z" />
<glyph unicode="&#x1e5c;" horiz-adv-x="1232" d="M143 0v1319h580q213 0 310 -110.5t97 -299.5q0 -145 -70.5 -241.5t-209.5 -128.5q41 -25 62.5 -56.5t43.5 -85.5l172 -397h-172l-168 383q-27 61 -64.5 88t-133.5 27h-279v-498h-168zM305 1468v121h590v-121h-590zM311 629h365q133 0 210 66.5t77 213.5q0 276 -265 277 h-387v-557zM514 -178h164v-158h-164v158z" />
<glyph unicode="&#x1e5d;" horiz-adv-x="729" d="M2 1128v121h590v-121h-590zM143 0v971h152l12 -123q72 47 169 86t192 57v-131q-57 -12 -125 -33.5t-129.5 -48t-102.5 -55.5v-723h-168zM145 -178h164v-158h-164v158z" />
<glyph unicode="&#x1e5e;" horiz-adv-x="1232" d="M143 0v1319h580q213 0 310 -110.5t97 -299.5q0 -145 -70.5 -241.5t-209.5 -128.5q41 -25 62.5 -56.5t43.5 -85.5l172 -397h-172l-168 383q-27 61 -64.5 88t-133.5 27h-279v-498h-168zM301 -145h590v-121h-590v121zM311 629h365q133 0 210 66.5t77 213.5q0 276 -265 277 h-387v-557z" />
<glyph unicode="&#x1e5f;" horiz-adv-x="729" d="M-41 -145h590v-121h-590v121zM143 0v971h152l12 -123q72 47 169 86t192 57v-131q-57 -12 -125 -33.5t-129.5 -48t-102.5 -55.5v-723h-168z" />
<glyph unicode="&#x1e60;" horiz-adv-x="1138" d="M102 977q0 168 121 265t369 97q115 0 213 -16t151 -35v-147q-74 27 -159.5 41t-178.5 14q-168 0 -258 -49t-90 -170q0 -68 32 -110t107.5 -71.5t211.5 -62.5q162 -39 252 -93t126.5 -128t36.5 -168q0 -174 -127 -269t-379 -95q-246 0 -397 61v149q86 -33 183.5 -50 t199.5 -17q176 0 264 48t88 173q0 78 -35.5 124t-117.5 78t-219 64q-217 53 -305.5 138.5t-88.5 228.5zM492 1454v158h163v-158h-163z" />
<glyph unicode="&#x1e61;" horiz-adv-x="935" d="M102 725q0 129 90.5 197.5t290.5 68.5q78 0 150 -11t125 -28v-147q-129 43 -248 43q-127 0 -183.5 -25.5t-56.5 -95.5q0 -47 26 -74.5t80 -47t140 -48.5q113 -35 182.5 -71.5t102.5 -90t33 -139.5q0 -143 -100.5 -209.5t-284.5 -66.5q-94 0 -179.5 12t-142.5 33v147 q70 -25 146.5 -37t152.5 -12q129 0 184.5 27.5t55.5 103.5q0 55 -30 84t-90.5 51.5t-154.5 52.5q-84 29 -149.5 59.5t-102.5 83t-37 140.5zM410 1114v158h163v-158h-163z" />
<glyph unicode="&#x1e62;" horiz-adv-x="1138" d="M102 977q0 168 121 265t369 97q115 0 213 -16t151 -35v-147q-74 27 -159.5 41t-178.5 14q-168 0 -258 -49t-90 -170q0 -68 32 -110t107.5 -71.5t211.5 -62.5q162 -39 252 -93t126.5 -128t36.5 -168q0 -174 -127 -269t-379 -95q-246 0 -397 61v149q86 -33 183.5 -50 t199.5 -17q176 0 264 48t88 173q0 78 -35.5 124t-117.5 78t-219 64q-217 53 -305.5 138.5t-88.5 228.5zM459 -178h164v-158h-164v158z" />
<glyph unicode="&#x1e63;" horiz-adv-x="935" d="M102 725q0 129 90.5 197.5t290.5 68.5q78 0 150 -11t125 -28v-147q-129 43 -248 43q-127 0 -183.5 -25.5t-56.5 -95.5q0 -47 26 -74.5t80 -47t140 -48.5q113 -35 182.5 -71.5t102.5 -90t33 -139.5q0 -143 -100.5 -209.5t-284.5 -66.5q-94 0 -179.5 12t-142.5 33v147 q70 -25 146.5 -37t152.5 -12q129 0 184.5 27.5t55.5 103.5q0 55 -30 84t-90.5 51.5t-154.5 52.5q-84 29 -149.5 59.5t-102.5 83t-37 140.5zM395 -178h164v-158h-164v158z" />
<glyph unicode="&#x1e6c;" horiz-adv-x="1167" d="M61 1186v133h1045v-133h-438v-1186h-168v1186h-439zM502 -168h164v-158h-164v158z" />
<glyph unicode="&#x1e6d;" horiz-adv-x="733" d="M61 838v133h148v239l168 52v-291h268l-10 -133h-258v-559q0 -88 40 -126t138 -38q53 0 117 20v-127q-76 -28 -174 -28q-143 0 -216 76.5t-73 213.5v568h-148zM375 -168h164v-158h-164v158z" />
<glyph unicode="&#x1e6e;" horiz-adv-x="1167" d="M61 1186v133h1045v-133h-438v-1186h-168v1186h-439zM289 -135h590v-121h-590v121z" />
<glyph unicode="&#x1e6f;" horiz-adv-x="733" d="M61 838v133h148v239l168 52v-291h268l-10 -133h-258v-559q0 -88 40 -126t138 -38q53 0 117 20v-127q-76 -28 -174 -28q-143 0 -216 76.5t-73 213.5v568h-148zM109 -135h589v-121h-589v121z" />
<glyph unicode="&#x1e80;" horiz-adv-x="1763" d="M102 1319h166l248 -1086l285 941v145h137l307 -1086l252 1086h164l-305 -1319h-178l-287 1004l-301 -1004h-180zM645 1753h152l145 -344h-135z" />
<glyph unicode="&#x1e81;" horiz-adv-x="1507" d="M102 971h168l191 -781l217 668v113h129l240 -781l190 781h168l-254 -971h-168l-227 705l-232 -705h-168zM508 1413h151l146 -344h-135z" />
<glyph unicode="&#x1e82;" horiz-adv-x="1763" d="M102 1319h166l248 -1086l285 941v145h137l307 -1086l252 1086h164l-305 -1319h-178l-287 1004l-301 -1004h-180zM817 1409l146 344h151l-162 -344h-135z" />
<glyph unicode="&#x1e83;" horiz-adv-x="1507" d="M102 971h168l191 -781l217 668v113h129l240 -781l190 781h168l-254 -971h-168l-227 705l-232 -705h-168zM674 1069l145 344h152l-162 -344h-135z" />
<glyph unicode="&#x1e84;" horiz-adv-x="1763" d="M102 1319h166l248 -1086l285 941v145h137l307 -1086l252 1086h164l-305 -1319h-178l-287 1004l-301 -1004h-180zM631 1450v154h160v-154h-160zM991 1450v154h160v-154h-160z" />
<glyph unicode="&#x1e85;" horiz-adv-x="1507" d="M102 971h168l191 -781l217 668v113h129l240 -781l190 781h168l-254 -971h-168l-227 705l-232 -705h-168zM496 1110v154h159v-154h-159zM856 1110v154h160v-154h-160z" />
<glyph unicode="&#x1e8e;" horiz-adv-x="1314" d="M102 1319h174l381 -684l381 684h174l-471 -827v-492h-168v492zM575 1454v158h164v-158h-164z" />
<glyph unicode="&#x1e8f;" horiz-adv-x="1196" d="M102 971h174l338 -783l349 783h172l-408 -928q-51 -117 -104.5 -208t-123 -143t-173.5 -52q-96 0 -168 26v135q35 -12 64.5 -16t60.5 -4q70 0 109.5 24.5t70.5 74.5t67 130zM532 1114v158h164v-158h-164z" />
<glyph unicode="&#x1e92;" horiz-adv-x="1171" d="M102 0v94l754 1092h-719v133h932v-105l-747 -1083h757v-131h-977zM526 -178h164v-158h-164v158z" />
<glyph unicode="&#x1e93;" horiz-adv-x="993" d="M102 0v92l572 746h-545v133h748v-105l-564 -735h578v-131h-789zM410 -178h163v-158h-163v158z" />
<glyph unicode="&#x1e97;" horiz-adv-x="733" d="M61 838v133h148v239l168 52v-291h268l-10 -133h-258v-559q0 -88 40 -126t138 -38q53 0 117 20v-127q-76 -28 -174 -28q-143 0 -216 76.5t-73 213.5v568h-148zM61 1319v154h160v-154h-160zM422 1319v154h160v-154h-160z" />
<glyph unicode="&#x1e9e;" horiz-adv-x="1275" d="M133 0v891q0 217 130 332.5t370 115.5q170 0 276.5 -54t155.5 -146t49 -207l-375 -230h97q162 0 250 -90t88 -241q0 -180 -105 -285.5t-295 -105.5q-82 0 -157.5 11t-137.5 34v143q57 -25 128 -35t141 -10q258 0 258 250q0 115 -56.5 161t-187.5 46h-201v157l393 246 q0 92 -72.5 152.5t-248.5 60.5q-172 0 -252 -72.5t-80 -230.5v-893h-168z" />
<glyph unicode="&#x1ea0;" horiz-adv-x="1402" d="M102 0l502 1319h197l499 -1319h-172l-139 362h-573l-140 -362h-174zM444 496h514l-258 678zM618 -178h164v-158h-164v158z" />
<glyph unicode="&#x1ea1;" horiz-adv-x="1107" d="M102 272q0 133 88.5 218t286.5 85h338v60q0 80 -21.5 127t-81 67.5t-173.5 20.5q-88 0 -170 -14.5t-154 -38.5v139q66 25 155 40t191 15q207 0 310.5 -84t103.5 -272v-635h-141l-13 111q-63 -66 -153.5 -98.5t-223.5 -32.5q-92 0 -169.5 32.5t-125 97t-47.5 162.5z M268 272q0 -88 59.5 -121.5t159.5 -33.5q106 0 188.5 38t139.5 103v188h-334q-115 0 -164 -43t-49 -131zM489 -178h164v-158h-164v158z" />
<glyph unicode="&#x1ea2;" horiz-adv-x="1402" d="M102 0l502 1319h197l499 -1319h-172l-139 362h-573l-140 -362h-174zM444 496h514l-258 678zM526 1753v105q31 12 80 19t94 7q121 0 184.5 -49t63.5 -137q0 -82 -40 -129t-142 -62v-98h-135v170q121 6 155.5 29.5t34.5 77.5q0 51 -39 71.5t-120 20.5q-33 0 -71 -7.5 t-65 -17.5z" />
<glyph unicode="&#x1ea3;" horiz-adv-x="1107" d="M102 272q0 133 88.5 218t286.5 85h338v60q0 80 -21.5 127t-81 67.5t-173.5 20.5q-88 0 -170 -14.5t-154 -38.5v139q66 25 155 40t191 15q207 0 310.5 -84t103.5 -272v-635h-141l-13 111q-63 -66 -153.5 -98.5t-223.5 -32.5q-92 0 -169.5 32.5t-125 97t-47.5 162.5z M268 272q0 -88 59.5 -121.5t159.5 -33.5q106 0 188.5 38t139.5 103v188h-334q-115 0 -164 -43t-49 -131zM387 1413v105q31 12 80 19t94 7q121 0 184.5 -49t63.5 -137q0 -82 -40 -129t-142 -62v-98h-135v170q121 6 155.5 29.5t34.5 77.5q0 51 -39 71.5t-121 20.5 q-33 0 -70.5 -7.5t-64.5 -17.5z" />
<glyph unicode="&#x1ea4;" horiz-adv-x="1402" d="M102 0l502 1319h197l499 -1319h-172l-139 362h-573l-140 -362h-174zM395 1409l228 242h135l227 -242h-141l-154 170l-151 -170h-144zM444 496h514l-258 678zM854 1632l127 256h133l-139 -256h-121z" />
<glyph unicode="&#x1ea5;" horiz-adv-x="1107" d="M102 272q0 133 88.5 218t286.5 85h338v60q0 80 -21.5 127t-81 67.5t-173.5 20.5q-88 0 -170 -14.5t-154 -38.5v139q66 25 155 40t191 15q207 0 310.5 -84t103.5 -272v-635h-141l-13 111q-63 -66 -153.5 -98.5t-223.5 -32.5q-92 0 -169.5 32.5t-125 97t-47.5 162.5z M268 272q0 -88 59.5 -121.5t159.5 -33.5q106 0 188.5 38t139.5 103v188h-334q-115 0 -164 -43t-49 -131zM276 1069l228 242h135l227 -242h-141l-154 170l-151 -170h-144zM735 1292l127 256h133l-139 -256h-121z" />
<glyph unicode="&#x1ea6;" horiz-adv-x="1402" d="M102 0l502 1319h197l499 -1319h-172l-139 362h-573l-140 -362h-174zM270 1888h133l127 -256h-120zM399 1409l228 242h135l227 -242h-143l-152 170l-153 -170h-142zM444 496h514l-258 678z" />
<glyph unicode="&#x1ea7;" horiz-adv-x="1107" d="M102 272q0 133 88.5 218t286.5 85h338v60q0 80 -21.5 127t-81 67.5t-173.5 20.5q-88 0 -170 -14.5t-154 -38.5v139q66 25 155 40t191 15q207 0 310.5 -84t103.5 -272v-635h-141l-13 111q-63 -66 -153.5 -98.5t-223.5 -32.5q-92 0 -169.5 32.5t-125 97t-47.5 162.5z M119 1548h133l127 -256h-121zM248 1069l227 242h135l228 -242h-144l-151 170l-154 -170h-141zM268 272q0 -88 59.5 -121.5t159.5 -33.5q106 0 188.5 38t139.5 103v188h-334q-115 0 -164 -43t-49 -131z" />
<glyph unicode="&#x1ea8;" horiz-adv-x="1402" d="M102 0l502 1319h197l499 -1319h-172l-139 362h-573l-140 -362h-174zM403 1409l228 242h135l227 -242h-141l-154 170l-151 -170h-144zM444 496h514l-258 678zM823 1853v89q29 10 65 17t81 7q92 0 144 -41t52 -113q0 -66 -39 -103.5t-122 -47.5v-72h-125v129 q102 4 132.5 25.5t30.5 60.5q0 74 -102 74q-35 0 -63.5 -7t-53.5 -18z" />
<glyph unicode="&#x1ea9;" horiz-adv-x="1107" d="M102 272q0 133 88.5 218t286.5 85h338v60q0 80 -21.5 127t-81 67.5t-173.5 20.5q-88 0 -170 -14.5t-154 -38.5v139q66 25 155 40t191 15q207 0 310.5 -84t103.5 -272v-635h-141l-13 111q-63 -66 -153.5 -98.5t-223.5 -32.5q-92 0 -169.5 32.5t-125 97t-47.5 162.5z M262 1067l227 242h136l227 -242h-141l-154 170l-151 -170h-144zM268 272q0 -88 59.5 -121.5t159.5 -33.5q106 0 188.5 38t139.5 103v188h-334q-115 0 -164 -43t-49 -131zM682 1511v88q29 10 64.5 17.5t80.5 7.5q92 0 144.5 -41t52.5 -113q0 -66 -39 -103.5t-123 -47.5v-72 h-125v129q102 4 133 25.5t31 60.5q0 74 -102 74q-35 0 -63.5 -7t-53.5 -18z" />
<glyph unicode="&#x1eaa;" horiz-adv-x="1402" d="M102 0l502 1319h197l499 -1319h-172l-139 362h-573l-140 -362h-174zM406 1409l227 242h135l227 -242h-141l-154 170l-151 -170h-143zM418 1661v115q23 25 67.5 40t87.5 15q53 0 97.5 -17.5t87.5 -36t88 -18.5q96 0 145 68v-117q-18 -25 -58 -40t-87 -15q-49 0 -96.5 18.5 t-91.5 35.5t-85 17q-45 0 -84.5 -14t-70.5 -51zM444 496h514l-258 678z" />
<glyph unicode="&#x1eab;" horiz-adv-x="1107" d="M102 272q0 133 88.5 218t286.5 85h338v60q0 80 -21.5 127t-81 67.5t-173.5 20.5q-88 0 -170 -14.5t-154 -38.5v139q66 25 155 40t191 15q207 0 310.5 -84t103.5 -272v-635h-141l-13 111q-63 -66 -153.5 -98.5t-223.5 -32.5q-92 0 -169.5 32.5t-125 97t-47.5 162.5z M268 272q0 -88 59.5 -121.5t159.5 -33.5q106 0 188.5 38t139.5 103v188h-334q-115 0 -164 -43t-49 -131zM279 1069l227 242h135l227 -242h-141l-154 170l-151 -170h-143zM291 1321v115q23 25 67.5 40t87.5 15q53 0 97.5 -17.5t87.5 -36t88 -18.5q96 0 145 68v-117 q-18 -25 -58 -40t-87 -15q-49 0 -96.5 18.5t-91.5 35.5t-85 17q-45 0 -84.5 -14t-70.5 -51z" />
<glyph unicode="&#x1eac;" horiz-adv-x="1402" d="M102 0l502 1319h197l499 -1319h-172l-139 362h-573l-140 -362h-174zM397 1409l236 303h135l236 -303h-146l-158 209l-157 -209h-146zM444 496h514l-258 678zM618 -178h164v-158h-164v158z" />
<glyph unicode="&#x1ead;" horiz-adv-x="1107" d="M102 272q0 133 88.5 218t286.5 85h338v60q0 80 -21.5 127t-81 67.5t-173.5 20.5q-88 0 -170 -14.5t-154 -38.5v139q66 25 155 40t191 15q207 0 310.5 -84t103.5 -272v-635h-141l-13 111q-63 -66 -153.5 -98.5t-223.5 -32.5q-92 0 -169.5 32.5t-125 97t-47.5 162.5z M260 1069l236 303h135l235 -303h-145l-158 209l-157 -209h-146zM268 272q0 -88 59.5 -121.5t159.5 -33.5q106 0 188.5 38t139.5 103v188h-334q-115 0 -164 -43t-49 -131zM481 -178h164v-158h-164v158z" />
<glyph unicode="&#x1eae;" horiz-adv-x="1402" d="M102 0l502 1319h197l499 -1319h-172l-139 362h-573l-140 -362h-174zM399 1696h107q0 -94 53 -141.5t141 -47.5t141.5 47.5t53.5 141.5h106q0 -104 -40.5 -168t-109.5 -91.5t-151 -27.5t-150.5 27.5t-109.5 91t-41 168.5zM444 496h514l-258 678zM621 1622l127 256h133 l-140 -256h-120z" />
<glyph unicode="&#x1eaf;" horiz-adv-x="1107" d="M102 272q0 133 88.5 218t286.5 85h338v60q0 80 -21.5 127t-81 67.5t-173.5 20.5q-88 0 -170 -14.5t-154 -38.5v139q66 25 155 40t191 15q207 0 310.5 -84t103.5 -272v-635h-141l-13 111q-63 -66 -153.5 -98.5t-223.5 -32.5q-92 0 -169.5 32.5t-125 97t-47.5 162.5z M268 272q0 -88 59.5 -121.5t159.5 -33.5q106 0 188.5 38t139.5 103v188h-334q-115 0 -164 -43t-49 -131zM295 1356h106q0 -94 53.5 -141.5t141.5 -47.5t141.5 47.5t53.5 141.5h106q0 -104 -41 -168t-109.5 -91.5t-150.5 -27.5t-150.5 27.5t-109.5 91t-41 168.5zM516 1282 l127 256h133l-139 -256h-121z" />
<glyph unicode="&#x1eb0;" horiz-adv-x="1402" d="M102 0l502 1319h197l499 -1319h-172l-139 362h-573l-140 -362h-174zM399 1696h107q0 -94 53 -141.5t141 -47.5t141.5 47.5t53.5 141.5h106q0 -104 -40.5 -168t-109.5 -91.5t-151 -27.5t-150.5 27.5t-109.5 91t-41 168.5zM444 496h514l-258 678zM520 1878h133l127 -256 h-121z" />
<glyph unicode="&#x1eb1;" horiz-adv-x="1107" d="M102 272q0 133 88.5 218t286.5 85h338v60q0 80 -21.5 127t-81 67.5t-173.5 20.5q-88 0 -170 -14.5t-154 -38.5v139q66 25 155 40t191 15q207 0 310.5 -84t103.5 -272v-635h-141l-13 111q-63 -66 -153.5 -98.5t-223.5 -32.5q-92 0 -169.5 32.5t-125 97t-47.5 162.5z M268 272q0 -88 59.5 -121.5t159.5 -33.5q106 0 188.5 38t139.5 103v188h-334q-115 0 -164 -43t-49 -131zM285 1356h106q0 -94 53.5 -141.5t141.5 -47.5t141 47.5t53 141.5h107q0 -104 -41 -168t-109.5 -91.5t-150.5 -27.5t-150.5 27.5t-109.5 91t-41 168.5zM406 1538h133 l127 -256h-121z" />
<glyph unicode="&#x1eb2;" horiz-adv-x="1402" d="M102 0l502 1319h197l499 -1319h-172l-139 362h-573l-140 -362h-174zM399 1696h107q0 -94 53 -141.5t141 -47.5t141.5 47.5t53.5 141.5h106q0 -104 -40.5 -168t-109.5 -91.5t-151 -27.5t-150.5 27.5t-109.5 91t-41 168.5zM444 496h514l-258 678zM565 1888v84 q29 10 69 17.5t83 7.5q90 0 140 -40t50 -112q0 -66 -36.5 -101.5t-125.5 -49.5v-70h-122v119q102 4 135 27.5t33 64.5q0 80 -109 80q-33 0 -61.5 -7t-55.5 -20z" />
<glyph unicode="&#x1eb3;" horiz-adv-x="1107" d="M102 272q0 133 88.5 218t286.5 85h338v60q0 80 -21.5 127t-81 67.5t-173.5 20.5q-88 0 -170 -14.5t-154 -38.5v139q66 25 155 40t191 15q207 0 310.5 -84t103.5 -272v-635h-141l-13 111q-63 -66 -153.5 -98.5t-223.5 -32.5q-92 0 -169.5 32.5t-125 97t-47.5 162.5z M268 272q0 -88 59.5 -121.5t159.5 -33.5q106 0 188.5 38t139.5 103v188h-334q-115 0 -164 -43t-49 -131zM281 1356h106q0 -94 53.5 -141.5t141.5 -47.5t141 47.5t53 141.5h107q0 -104 -41 -168t-109.5 -91.5t-150.5 -27.5t-151 27.5t-109.5 91t-40.5 168.5zM446 1548v84 q29 10 69 17.5t83 7.5q90 0 140 -40t50 -112q0 -66 -36.5 -101.5t-124.5 -49.5v-70h-123v119q102 4 135 27.5t33 64.5q0 80 -109 80q-33 0 -61.5 -7t-55.5 -20z" />
<glyph unicode="&#x1eb4;" horiz-adv-x="1402" d="M102 0l502 1319h197l499 -1319h-172l-139 362h-573l-140 -362h-174zM399 1696h107q0 -94 53 -141.5t141 -47.5t141.5 47.5t53.5 141.5h106q0 -104 -40.5 -168t-109.5 -91.5t-151 -27.5t-150.5 27.5t-109.5 91t-41 168.5zM416 1745v115q23 25 67.5 40t87.5 15 q53 0 97.5 -17.5t87.5 -36t88 -18.5q96 0 145 68v-117q-18 -25 -58 -40t-87 -15q-49 0 -96.5 18.5t-91.5 35.5t-85 17q-45 0 -85 -14t-70 -51zM444 496h514l-258 678z" />
<glyph unicode="&#x1eb5;" horiz-adv-x="1107" d="M102 272q0 133 88.5 218t286.5 85h338v60q0 80 -21.5 127t-81 67.5t-173.5 20.5q-88 0 -170 -14.5t-154 -38.5v139q66 25 155 40t191 15q207 0 310.5 -84t103.5 -272v-635h-141l-13 111q-63 -66 -153.5 -98.5t-223.5 -32.5q-92 0 -169.5 32.5t-125 97t-47.5 162.5z M268 272q0 -88 59.5 -121.5t159.5 -33.5q106 0 188.5 38t139.5 103v188h-334q-115 0 -164 -43t-49 -131zM289 1356h106q0 -94 53.5 -141.5t141.5 -47.5t141 47.5t53 141.5h107q0 -104 -41 -168t-109.5 -91.5t-150.5 -27.5t-150.5 27.5t-109.5 91t-41 168.5zM305 1405v115 q23 25 68 40t88 15q53 0 97 -17.5t87 -36t88 -18.5q96 0 146 68v-117q-18 -25 -58.5 -40t-87.5 -15q-49 0 -96 18.5t-91 35.5t-85 17q-45 0 -85 -14t-71 -51z" />
<glyph unicode="&#x1eb6;" horiz-adv-x="1402" d="M102 0l502 1319h197l499 -1319h-172l-139 362h-573l-140 -362h-174zM440 1667h119q0 -78 38 -114.5t101 -36.5q68 0 106 36.5t38 114.5h119q0 -115 -67 -186.5t-196 -71.5q-127 0 -192.5 71.5t-65.5 186.5zM444 496h514l-258 678zM618 -178h164v-158h-164v158z" />
<glyph unicode="&#x1eb7;" horiz-adv-x="1107" d="M102 272q0 133 88.5 218t286.5 85h338v60q0 80 -21.5 127t-81 67.5t-173.5 20.5q-88 0 -170 -14.5t-154 -38.5v139q66 25 155 40t191 15q207 0 310.5 -84t103.5 -272v-635h-141l-13 111q-63 -66 -153.5 -98.5t-223.5 -32.5q-92 0 -169.5 32.5t-125 97t-47.5 162.5z M268 272q0 -88 59.5 -121.5t159.5 -33.5q106 0 188.5 38t139.5 103v188h-334q-115 0 -164 -43t-49 -131zM313 1327h119q0 -78 38 -114.5t101 -36.5q68 0 106 36.5t38 114.5h119q0 -115 -67 -186.5t-196 -71.5q-127 0 -192.5 71.5t-65.5 186.5zM492 -178h163v-158h-163v158z " />
<glyph unicode="&#x1eb8;" horiz-adv-x="1136" d="M143 0v1319h891v-133h-723v-461h650v-131h-650v-463h723v-131h-891zM483 -178h164v-158h-164v158z" />
<glyph unicode="&#x1eb9;" horiz-adv-x="1091" d="M102 489q0 233 112 367.5t353 134.5q143 0 236.5 -52t139.5 -143t46 -206v-182h-719q8 -111 48 -174.5t121 -91t214 -27.5q150 0 275 51v-131q-63 -27 -142 -41t-165 -14q-260 0 -389.5 124.5t-129.5 384.5zM270 528h570v80q0 119 -62.5 183.5t-206.5 64.5 q-174 0 -237.5 -82t-63.5 -246zM465 -178h164v-158h-164v158z" />
<glyph unicode="&#x1eba;" horiz-adv-x="1136" d="M143 0v1319h891v-133h-723v-461h650v-131h-650v-463h723v-131h-891zM387 1753v105q31 12 80 19t94 7q121 0 184.5 -49t63.5 -137q0 -82 -40 -129t-142 -62v-98h-135v170q121 6 155.5 29.5t34.5 77.5q0 51 -39 71.5t-121 20.5q-33 0 -70.5 -7.5t-64.5 -17.5z" />
<glyph unicode="&#x1ebb;" horiz-adv-x="1091" d="M102 489q0 233 112 367.5t353 134.5q143 0 236.5 -52t139.5 -143t46 -206v-182h-719q8 -111 48 -174.5t121 -91t214 -27.5q150 0 275 51v-131q-63 -27 -142 -41t-165 -14q-260 0 -389.5 124.5t-129.5 384.5zM270 528h570v80q0 119 -62.5 183.5t-206.5 64.5 q-174 0 -237.5 -82t-63.5 -246zM379 1413v105q31 12 80 19t94 7q121 0 184.5 -49t63.5 -137q0 -82 -40 -129t-143 -62v-98h-135v170q121 6 156 29.5t35 77.5q0 51 -39 71.5t-121 20.5q-33 0 -70.5 -7.5t-64.5 -17.5z" />
<glyph unicode="&#x1ebc;" horiz-adv-x="1136" d="M143 0v1319h891v-133h-723v-461h650v-131h-650v-463h723v-131h-891zM256 1456v129q25 29 74 45.5t96 16.5q57 0 105.5 -19.5t94.5 -39t95 -19.5q104 0 158 73v-131q-20 -27 -62.5 -44t-95.5 -17t-104.5 19.5t-98.5 39t-92 19.5q-49 0 -92 -15.5t-78 -56.5z" />
<glyph unicode="&#x1ebd;" horiz-adv-x="1091" d="M102 489q0 233 112 367.5t353 134.5q143 0 236.5 -52t139.5 -143t46 -206v-182h-719q8 -111 48 -174.5t121 -91t214 -27.5q150 0 275 51v-131q-63 -27 -142 -41t-165 -14q-260 0 -389.5 124.5t-129.5 384.5zM238 1116v129q25 29 73.5 45.5t96.5 16.5q57 0 105 -19.5 t94 -39t95 -19.5q104 0 158 74v-132q-20 -27 -62.5 -44t-95.5 -17t-104 19.5t-98 39t-92 19.5q-49 0 -92.5 -15.5t-77.5 -56.5zM270 528h570v80q0 119 -62.5 183.5t-206.5 64.5q-174 0 -237.5 -82t-63.5 -246z" />
<glyph unicode="&#x1ebe;" horiz-adv-x="1136" d="M143 0v1319h891v-133h-723v-461h650v-131h-650v-463h723v-131h-891zM268 1407l228 242h135l227 -242h-141l-154 170l-151 -170h-144zM727 1630l127 256h133l-139 -256h-121z" />
<glyph unicode="&#x1ebf;" horiz-adv-x="1091" d="M102 489q0 233 112 367.5t353 134.5q143 0 236.5 -52t139.5 -143t46 -206v-182h-719q8 -111 48 -174.5t121 -91t214 -27.5q150 0 275 51v-131q-63 -27 -142 -41t-165 -14q-260 0 -389.5 124.5t-129.5 384.5zM256 1067l227 242h135l228 -242h-141l-154 170l-152 -170h-143 zM270 528h570v80q0 119 -62.5 183.5t-206.5 64.5q-174 0 -237.5 -82t-63.5 -246zM715 1290l127 256h133l-139 -256h-121z" />
<glyph unicode="&#x1ec0;" horiz-adv-x="1136" d="M143 0v1319h891v-133h-723v-461h650v-131h-650v-463h723v-131h-891zM176 1886h133l127 -256h-121zM305 1407l227 242h136l227 -242h-143l-152 170l-154 -170h-141z" />
<glyph unicode="&#x1ec1;" horiz-adv-x="1091" d="M102 489q0 233 112 367.5t353 134.5q143 0 236.5 -52t139.5 -143t46 -206v-182h-719q8 -111 48 -174.5t121 -91t214 -27.5q150 0 275 51v-131q-63 -27 -142 -41t-165 -14q-260 0 -389.5 124.5t-129.5 384.5zM156 1577h133l127 -256h-121zM270 528h570v80 q0 119 -62.5 183.5t-206.5 64.5q-174 0 -237.5 -82t-63.5 -246zM285 1098l227 241h135l227 -241h-143l-151 170l-154 -170h-141z" />
<glyph unicode="&#x1ec2;" horiz-adv-x="1136" d="M143 0v1319h891v-133h-723v-461h650v-131h-650v-463h723v-131h-891zM279 1407l227 242h135l227 -242h-141l-154 170l-151 -170h-143zM698 1851v88q29 10 65 17.5t81 7.5q92 0 144 -41t52 -113q0 -66 -38.5 -103.5t-122.5 -47.5v-72h-125v129q102 4 133 25.5t31 60.5 q0 74 -103 74q-35 0 -63.5 -7t-53.5 -18z" />
<glyph unicode="&#x1ec3;" horiz-adv-x="1091" d="M102 489q0 233 112 367.5t353 134.5q143 0 236.5 -52t139.5 -143t46 -206v-182h-719q8 -111 48 -174.5t121 -91t214 -27.5q150 0 275 51v-131q-63 -27 -142 -41t-165 -14q-260 0 -389.5 124.5t-129.5 384.5zM250 1067l227 242h135l228 -242h-142l-153 170l-152 -170h-143 zM270 528h570v80q0 119 -62.5 183.5t-206.5 64.5q-174 0 -237.5 -82t-63.5 -246zM670 1511v88q29 10 64.5 17.5t80.5 7.5q92 0 144.5 -41t52.5 -113q0 -66 -39 -103.5t-123 -47.5v-72h-125v129q102 4 133 25.5t31 60.5q0 74 -103 74q-35 0 -63.5 -7t-52.5 -18z" />
<glyph unicode="&#x1ec4;" horiz-adv-x="1136" d="M143 0v1319h891v-133h-723v-461h650v-131h-650v-463h723v-131h-891zM281 1409l227 242h135l227 -242h-141l-154 170l-151 -170h-143zM293 1661v115q23 25 68 40t88 15q53 0 97 -17.5t87 -36t88 -18.5q96 0 145 68v-117q-18 -25 -58 -40t-87 -15q-49 0 -96 18.5 t-91.5 35.5t-84.5 17q-45 0 -85 -14t-71 -51z" />
<glyph unicode="&#x1ec5;" horiz-adv-x="1091" d="M102 489q0 233 112 367.5t353 134.5q143 0 236.5 -52t139.5 -143t46 -206v-182h-719q8 -111 48 -174.5t121 -91t214 -27.5q150 0 275 51v-131q-63 -27 -142 -41t-165 -14q-260 0 -389.5 124.5t-129.5 384.5zM260 1069l227 242h136l227 -242h-141l-154 170l-152 -170h-143 zM270 528h570v80q0 119 -62.5 183.5t-206.5 64.5q-174 0 -237.5 -82t-63.5 -246zM272 1321v115q23 25 68 40t88 15q53 0 97 -17.5t87 -36t88 -18.5q96 0 146 68v-117q-18 -25 -58.5 -40t-87.5 -15q-49 0 -96 18.5t-91 35.5t-85 17q-45 0 -85 -14t-71 -51z" />
<glyph unicode="&#x1ec6;" horiz-adv-x="1136" d="M143 0v1319h891v-133h-723v-461h650v-131h-650v-463h723v-131h-891zM250 1409l235 303h136l235 -303h-145l-158 209l-158 -209h-145zM471 -178h164v-158h-164v158z" />
<glyph unicode="&#x1ec7;" horiz-adv-x="1091" d="M102 489q0 233 112 367.5t353 134.5q143 0 236.5 -52t139.5 -143t46 -206v-182h-719q8 -111 48 -174.5t121 -91t214 -27.5q150 0 275 51v-131q-63 -27 -142 -41t-165 -14q-260 0 -389.5 124.5t-129.5 384.5zM250 1069l235 303h136l235 -303h-145l-158 209l-158 -209h-145 zM270 528h570v80q0 119 -62.5 183.5t-206.5 64.5q-174 0 -237.5 -82t-63.5 -246zM471 -178h164v-158h-164v158z" />
<glyph unicode="&#x1ec8;" horiz-adv-x="454" d="M53 1753v105q31 12 80 19t94 7q121 0 184.5 -49t63.5 -137q0 -82 -40 -129t-142 -62v-98h-135v170q121 6 155.5 29.5t34.5 77.5q0 51 -39 71.5t-121 20.5q-33 0 -70.5 -7.5t-64.5 -17.5zM143 0v1319h168v-1319h-168z" />
<glyph unicode="&#x1ec9;" horiz-adv-x="604" d="M135 1413v105q31 12 80 19t94 7q121 0 184.5 -49t63.5 -137q0 -82 -40 -129t-142 -62v-98h-135v170q121 6 155.5 29.5t34.5 77.5q0 51 -39 71.5t-121 20.5q-33 0 -70.5 -7.5t-64.5 -17.5zM143 838l17 133h301v-971h-168v838h-150z" />
<glyph unicode="&#x1eca;" horiz-adv-x="454" d="M143 0v1319h168v-1319h-168zM145 -178h164v-158h-164v158z" />
<glyph unicode="&#x1ecb;" horiz-adv-x="606" d="M143 838l17 133h301v-971h-168v838h-150zM276 1198v154h187v-154h-187zM295 -178h164v-158h-164v158z" />
<glyph unicode="&#x1ecc;" horiz-adv-x="1421" d="M102 659q0 354 149.5 517t459.5 163q311 0 459.5 -162.5t148.5 -517.5q0 -354 -148.5 -516.5t-459.5 -162.5q-309 0 -459 162.5t-150 516.5zM270 659q0 -199 48.5 -316.5t145.5 -168.5t247 -51t247 51t145 169t48 316q0 199 -48 317t-145.5 169t-246.5 51 q-150 0 -247 -51t-145.5 -169t-48.5 -317zM629 -178h164v-158h-164v158z" />
<glyph unicode="&#x1ecd;" horiz-adv-x="1175" d="M102 485q0 244 117 375t369 131t368.5 -131t116.5 -375q0 -246 -114.5 -375.5t-370.5 -129.5q-254 0 -370 130t-116 375zM270 485q0 -188 72 -275t246 -87t245.5 87t71.5 275t-72.5 275.5t-244.5 87.5t-245 -87t-73 -276zM506 -178h164v-158h-164v158z" />
<glyph unicode="&#x1ece;" horiz-adv-x="1421" d="M102 659q0 354 149.5 517t459.5 163q311 0 459.5 -162.5t148.5 -517.5q0 -354 -148.5 -516.5t-459.5 -162.5q-309 0 -459 162.5t-150 516.5zM270 659q0 -199 48.5 -316.5t145.5 -168.5t247 -51t247 51t145 169t48 316q0 199 -48 317t-145.5 169t-246.5 51 q-150 0 -247 -51t-145.5 -169t-48.5 -317zM543 1753v105q31 12 80 19t94 7q121 0 184.5 -49t63.5 -137q0 -82 -40 -129t-143 -62v-98h-135v170q121 6 156 29.5t35 77.5q0 51 -39 71.5t-121 20.5q-33 0 -71 -7.5t-64 -17.5z" />
<glyph unicode="&#x1ecf;" horiz-adv-x="1175" d="M102 485q0 244 117 375t369 131t368.5 -131t116.5 -375q0 -246 -114.5 -375.5t-370.5 -129.5q-254 0 -370 130t-116 375zM270 485q0 -188 72 -275t246 -87t245.5 87t71.5 275t-72.5 275.5t-244.5 87.5t-245 -87t-73 -276zM418 1413v105q31 12 80 19t94 7q121 0 184.5 -49 t63.5 -137q0 -82 -40 -129t-143 -62v-98h-135v170q121 6 156 29.5t35 77.5q0 51 -39 71.5t-121 20.5q-33 0 -71 -7.5t-64 -17.5z" />
<glyph unicode="&#x1ed0;" horiz-adv-x="1421" d="M102 659q0 354 149.5 517t459.5 163q311 0 459.5 -162.5t148.5 -517.5q0 -354 -148.5 -516.5t-459.5 -162.5q-309 0 -459 162.5t-150 516.5zM270 659q0 -199 48.5 -316.5t145.5 -168.5t247 -51t247 51t145 169t48 316q0 199 -48 317t-145.5 169t-246.5 51 q-150 0 -247 -51t-145.5 -169t-48.5 -317zM424 1409l227 242h135l228 -242h-142l-153 170l-152 -170h-143zM883 1632l127 256h133l-139 -256h-121z" />
<glyph unicode="&#x1ed1;" horiz-adv-x="1175" d="M102 485q0 244 117 375t369 131t368.5 -131t116.5 -375q0 -246 -114.5 -375.5t-370.5 -129.5q-254 0 -370 130t-116 375zM270 485q0 -188 72 -275t246 -87t245.5 87t71.5 275t-72.5 275.5t-244.5 87.5t-245 -87t-73 -276zM289 1069l227 242h135l228 -242h-142l-153 170 l-152 -170h-143zM748 1292l126 256h134l-140 -256h-120z" />
<glyph unicode="&#x1ed2;" horiz-adv-x="1421" d="M102 659q0 354 149.5 517t459.5 163q311 0 459.5 -162.5t148.5 -517.5q0 -354 -148.5 -516.5t-459.5 -162.5q-309 0 -459 162.5t-150 516.5zM262 1888h133l127 -256h-121zM270 659q0 -199 48.5 -316.5t145.5 -168.5t247 -51t247 51t145 169t48 316q0 199 -48 317 t-145.5 169t-246.5 51q-150 0 -247 -51t-145.5 -169t-48.5 -317zM391 1409l227 242h136l227 -242h-143l-152 170l-154 -170h-141z" />
<glyph unicode="&#x1ed3;" horiz-adv-x="1175" d="M102 485q0 244 117 375t369 131t368.5 -131t116.5 -375q0 -246 -114.5 -375.5t-370.5 -129.5q-254 0 -370 130t-116 375zM145 1548h134l127 -256h-121zM270 485q0 -188 72 -275t246 -87t245.5 87t71.5 275t-72.5 275.5t-244.5 87.5t-245 -87t-73 -276zM274 1069l228 242 h135l227 -242h-143l-152 170l-153 -170h-142z" />
<glyph unicode="&#x1ed4;" horiz-adv-x="1421" d="M102 659q0 354 149.5 517t459.5 163q311 0 459.5 -162.5t148.5 -517.5q0 -354 -148.5 -516.5t-459.5 -162.5q-309 0 -459 162.5t-150 516.5zM270 659q0 -199 48.5 -316.5t145.5 -168.5t247 -51t247 51t145 169t48 316q0 199 -48 317t-145.5 169t-246.5 51 q-150 0 -247 -51t-145.5 -169t-48.5 -317zM414 1409l227 242h135l228 -242h-142l-153 170l-152 -170h-143zM834 1853v89q29 10 64.5 17t80.5 7q92 0 144.5 -41t52.5 -113q0 -66 -39 -103.5t-123 -47.5v-72h-125v129q102 4 133 25.5t31 60.5q0 74 -103 74q-35 0 -63.5 -7 t-52.5 -18z" />
<glyph unicode="&#x1ed5;" horiz-adv-x="1175" d="M102 485q0 244 117 375t369 131t368.5 -131t116.5 -375q0 -246 -114.5 -375.5t-370.5 -129.5q-254 0 -370 130t-116 375zM270 485q0 -188 72 -275t246 -87t245.5 87t71.5 275t-72.5 275.5t-244.5 87.5t-245 -87t-73 -276zM313 1069l228 242h135l227 -242h-141l-154 170 l-151 -170h-144zM733 1513v89q29 10 65 17t81 7q92 0 144 -41t52 -112q0 -66 -39 -104t-123 -48v-72h-125v129q102 4 133 25.5t31 60.5q0 74 -102 74q-35 0 -63.5 -7t-53.5 -18z" />
<glyph unicode="&#x1ed6;" horiz-adv-x="1421" d="M102 659q0 354 149.5 517t459.5 163q311 0 459.5 -162.5t148.5 -517.5q0 -354 -148.5 -516.5t-459.5 -162.5q-309 0 -459 162.5t-150 516.5zM270 659q0 -199 48.5 -316.5t145.5 -168.5t247 -51t247 51t145 169t48 316q0 199 -48 317t-145.5 169t-246.5 51 q-150 0 -247 -51t-145.5 -169t-48.5 -317zM414 1409l227 242h135l228 -242h-142l-153 170l-152 -170h-143zM426 1661v115q23 25 68 40t88 15q53 0 97 -17.5t87 -36t88 -18.5q96 0 145 68v-117q-18 -25 -58 -40t-87 -15q-49 0 -96 18.5t-91 35.5t-85 17q-45 0 -85 -14 t-71 -51z" />
<glyph unicode="&#x1ed7;" horiz-adv-x="1175" d="M102 485q0 244 117 375t369 131t368.5 -131t116.5 -375q0 -246 -114.5 -375.5t-370.5 -129.5q-254 0 -370 130t-116 375zM270 485q0 -188 72 -275t246 -87t245.5 87t71.5 275t-72.5 275.5t-244.5 87.5t-245 -87t-73 -276zM303 1321v115q23 25 68 40t88 15q53 0 97 -17.5 t87 -36t88 -18.5q96 0 146 68v-117q-18 -25 -58.5 -40t-87.5 -15q-49 0 -96 18.5t-91 35.5t-85 17q-45 0 -85 -14t-71 -51zM313 1069l228 242h135l227 -242h-141l-154 170l-151 -170h-144z" />
<glyph unicode="&#x1ed8;" horiz-adv-x="1421" d="M102 659q0 354 149.5 517t459.5 163q311 0 459.5 -162.5t148.5 -517.5q0 -354 -148.5 -516.5t-459.5 -162.5q-309 0 -459 162.5t-150 516.5zM270 659q0 -199 48.5 -316.5t145.5 -168.5t247 -51t247 51t145 169t48 316q0 199 -48 317t-145.5 169t-246.5 51 q-150 0 -247 -51t-145.5 -169t-48.5 -317zM408 1409l235 303h135l236 -303h-146l-157 209l-158 -209h-145zM629 -178h164v-158h-164v158z" />
<glyph unicode="&#x1ed9;" horiz-adv-x="1175" d="M102 485q0 244 117 375t369 131t368.5 -131t116.5 -375q0 -246 -114.5 -375.5t-370.5 -129.5q-254 0 -370 130t-116 375zM270 485q0 -188 72 -275t246 -87t245.5 87t71.5 275t-72.5 275.5t-244.5 87.5t-245 -87t-73 -276zM285 1069l235 303h135l236 -303h-146l-157 209 l-158 -209h-145zM506 -178h164v-158h-164v158z" />
<glyph unicode="&#x1eda;" horiz-adv-x="1556" d="M102 659q0 354 149.5 517t459.5 163q311 0 460 -163q117 2 158 50t41 183h146q0 -182 -68 -265t-195 -100q66 -154 66 -385q0 -354 -148.5 -516.5t-459.5 -162.5q-309 0 -459 162.5t-150 516.5zM270 659q0 -199 48.5 -316.5t145.5 -168.5t247 -51t247 51t145 169t48 316 q0 199 -48 317t-145.5 169t-246.5 51q-150 0 -247 -51t-145.5 -169t-48.5 -317zM666 1409l145 344h152l-162 -344h-135z" />
<glyph unicode="&#x1edb;" horiz-adv-x="1347" d="M102 485q0 244 117 375t369 131q131 0 224 -35.5t153 -105.5q119 2 157.5 56.5t38.5 191.5h146q0 -186 -70 -270.5t-203 -100.5q39 -98 39 -242q0 -246 -114.5 -375.5t-370.5 -129.5q-254 0 -370 130t-116 375zM270 485q0 -188 72 -275t246 -87t245.5 87t71.5 275 t-72.5 275.5t-244.5 87.5t-245 -87t-73 -276zM537 1069l145 344h152l-162 -344h-135z" />
<glyph unicode="&#x1edc;" horiz-adv-x="1556" d="M102 659q0 354 149.5 517t459.5 163q311 0 460 -163q117 2 158 50t41 183h146q0 -182 -68 -265t-195 -100q66 -154 66 -385q0 -354 -148.5 -516.5t-459.5 -162.5q-309 0 -459 162.5t-150 516.5zM270 659q0 -199 48.5 -316.5t145.5 -168.5t247 -51t247 51t145 169t48 316 q0 199 -48 317t-145.5 169t-246.5 51q-150 0 -247 -51t-145.5 -169t-48.5 -317zM516 1753h152l145 -344h-135z" />
<glyph unicode="&#x1edd;" horiz-adv-x="1347" d="M102 485q0 244 117 375t369 131q131 0 224 -35.5t153 -105.5q119 2 157.5 56.5t38.5 191.5h146q0 -186 -70 -270.5t-203 -100.5q39 -98 39 -242q0 -246 -114.5 -375.5t-370.5 -129.5q-254 0 -370 130t-116 375zM270 485q0 -188 72 -275t246 -87t245.5 87t71.5 275 t-72.5 275.5t-244.5 87.5t-245 -87t-73 -276zM381 1413h151l146 -344h-135z" />
<glyph unicode="&#x1ede;" horiz-adv-x="1556" d="M102 659q0 354 149.5 517t459.5 163q311 0 460 -163q117 2 158 50t41 183h146q0 -182 -68 -265t-195 -100q66 -154 66 -385q0 -354 -148.5 -516.5t-459.5 -162.5q-309 0 -459 162.5t-150 516.5zM270 659q0 -199 48.5 -316.5t145.5 -168.5t247 -51t247 51t145 169t48 316 q0 199 -48 317t-145.5 169t-246.5 51q-150 0 -247 -51t-145.5 -169t-48.5 -317zM555 1753v105q31 12 80 19t94 7q121 0 184.5 -49t63.5 -137q0 -82 -40 -129t-142 -62v-98h-136v170q121 6 156 29.5t35 77.5q0 51 -39 71.5t-121 20.5q-33 0 -70.5 -7.5t-64.5 -17.5z" />
<glyph unicode="&#x1edf;" horiz-adv-x="1347" d="M102 485q0 244 117 375t369 131q131 0 224 -35.5t153 -105.5q119 2 157.5 56.5t38.5 191.5h146q0 -186 -70 -270.5t-203 -100.5q39 -98 39 -242q0 -246 -114.5 -375.5t-370.5 -129.5q-254 0 -370 130t-116 375zM270 485q0 -188 72 -275t246 -87t245.5 87t71.5 275 t-72.5 275.5t-244.5 87.5t-245 -87t-73 -276zM412 1413v105q31 12 80 19t94 7q121 0 184.5 -49t63.5 -137q0 -82 -40 -129t-143 -62v-98h-135v170q121 6 156 29.5t35 77.5q0 51 -39 71.5t-121 20.5q-33 0 -71 -7.5t-64 -17.5z" />
<glyph unicode="&#x1ee0;" horiz-adv-x="1556" d="M102 659q0 354 149.5 517t459.5 163q311 0 460 -163q117 2 158 50t41 183h146q0 -182 -68 -265t-195 -100q66 -154 66 -385q0 -354 -148.5 -516.5t-459.5 -162.5q-309 0 -459 162.5t-150 516.5zM270 659q0 -199 48.5 -316.5t145.5 -168.5t247 -51t247 51t145 169t48 316 q0 199 -48 317t-145.5 169t-246.5 51q-150 0 -247 -51t-145.5 -169t-48.5 -317zM432 1454v129q25 29 74 45.5t96 16.5q57 0 105.5 -19.5t94.5 -39t95 -19.5q104 0 158 73v-131q-20 -27 -62.5 -44t-95.5 -17t-104.5 19.5t-98.5 39t-92 19.5q-49 0 -92 -15.5t-78 -56.5z" />
<glyph unicode="&#x1ee1;" horiz-adv-x="1347" d="M102 485q0 244 117 375t369 131q131 0 224 -35.5t153 -105.5q119 2 157.5 56.5t38.5 191.5h146q0 -186 -70 -270.5t-203 -100.5q39 -98 39 -242q0 -246 -114.5 -375.5t-370.5 -129.5q-254 0 -370 130t-116 375zM270 485q0 -188 72 -275t246 -87t245.5 87t71.5 275 t-72.5 275.5t-244.5 87.5t-245 -87t-73 -276zM289 1114v129q25 29 74 45.5t96 16.5q57 0 105 -19.5t94.5 -39t95.5 -19.5q104 0 157 73v-131q-20 -27 -62 -44t-95 -17t-104.5 19.5t-98.5 39t-92 19.5q-49 0 -92 -15.5t-78 -56.5z" />
<glyph unicode="&#x1ee2;" horiz-adv-x="1556" d="M102 659q0 354 149.5 517t459.5 163q311 0 460 -163q117 2 158 50t41 183h146q0 -182 -68 -265t-195 -100q66 -154 66 -385q0 -354 -148.5 -516.5t-459.5 -162.5q-309 0 -459 162.5t-150 516.5zM270 659q0 -199 48.5 -316.5t145.5 -168.5t247 -51t247 51t145 169t48 316 q0 199 -48 317t-145.5 169t-246.5 51q-150 0 -247 -51t-145.5 -169t-48.5 -317zM637 -178h164v-158h-164v158z" />
<glyph unicode="&#x1ee3;" horiz-adv-x="1347" d="M102 485q0 244 117 375t369 131q131 0 224 -35.5t153 -105.5q119 2 157.5 56.5t38.5 191.5h146q0 -186 -70 -270.5t-203 -100.5q39 -98 39 -242q0 -246 -114.5 -375.5t-370.5 -129.5q-254 0 -370 130t-116 375zM270 485q0 -188 72 -275t246 -87t245.5 87t71.5 275 t-72.5 275.5t-244.5 87.5t-245 -87t-73 -276zM508 -178h164v-158h-164v158z" />
<glyph unicode="&#x1ee4;" horiz-adv-x="1374" d="M133 483v836h168v-838q0 -180 101.5 -269t285.5 -89q182 0 283.5 89t101.5 269v838h168v-836q0 -246 -142.5 -374.5t-410.5 -128.5q-270 0 -412.5 129t-142.5 374zM604 -178h164v-158h-164v158z" />
<glyph unicode="&#x1ee5;" horiz-adv-x="1167" d="M133 356v615h168v-621q0 -121 60.5 -178t187.5 -57q90 0 170 32.5t137 90.5v733h168v-971h-152l-10 111q-70 -57 -166 -94t-211 -37q-174 0 -263 96t-89 280zM481 -178h164v-158h-164v158z" />
<glyph unicode="&#x1ee6;" horiz-adv-x="1374" d="M133 483v836h168v-838q0 -180 101.5 -269t285.5 -89q182 0 283.5 89t101.5 269v838h168v-836q0 -246 -142.5 -374.5t-410.5 -128.5q-270 0 -412.5 129t-142.5 374zM508 1753v105q31 12 80 19t94 7q121 0 184.5 -49t63.5 -137q0 -82 -40 -129t-142 -62v-98h-136v170 q121 6 156 29.5t35 77.5q0 51 -39 71.5t-121 20.5q-33 0 -70.5 -7.5t-64.5 -17.5z" />
<glyph unicode="&#x1ee7;" horiz-adv-x="1167" d="M133 356v615h168v-621q0 -121 60.5 -178t187.5 -57q90 0 170 32.5t137 90.5v733h168v-971h-152l-10 111q-70 -57 -166 -94t-211 -37q-174 0 -263 96t-89 280zM401 1413v105q31 12 80 19t94 7q121 0 184.5 -49t63.5 -137q0 -82 -40 -129t-142 -62v-98h-135v170 q121 6 155.5 29.5t34.5 77.5q0 51 -39 71.5t-120 20.5q-33 0 -71 -7.5t-65 -17.5z" />
<glyph unicode="&#x1ee8;" horiz-adv-x="1587" d="M133 483v836h168v-838q0 -180 101.5 -269t285.5 -89q182 0 283.5 89t101.5 269v838h168v-154q119 2 160 54.5t41 189.5h145q0 -209 -86 -291t-260 -84v-551q0 -246 -142.5 -374.5t-410.5 -128.5q-270 0 -412.5 129t-142.5 374zM635 1409l145 344h152l-162 -344h-135z" />
<glyph unicode="&#x1ee9;" horiz-adv-x="1398" d="M133 356v615h168v-621q0 -121 60.5 -178t187.5 -57q90 0 170 32.5t137 90.5v733h168v-121q100 8 134 64.5t34 183.5h145q0 -186 -80.5 -277.5t-232.5 -93.5v-727h-152l-10 111q-70 -57 -166 -94t-211 -37q-174 0 -263 96t-89 280zM524 1069l146 344h151l-162 -344h-135z " />
<glyph unicode="&#x1eea;" horiz-adv-x="1587" d="M133 483v836h168v-838q0 -180 101.5 -269t285.5 -89q182 0 283.5 89t101.5 269v838h168v-154q119 2 160 54.5t41 189.5h145q0 -209 -86 -291t-260 -84v-551q0 -246 -142.5 -374.5t-410.5 -128.5q-270 0 -412.5 129t-142.5 374zM477 1753h152l145 -344h-135z" />
<glyph unicode="&#x1eeb;" horiz-adv-x="1398" d="M133 356v615h168v-621q0 -121 60.5 -178t187.5 -57q90 0 170 32.5t137 90.5v733h168v-121q100 8 134 64.5t34 183.5h145q0 -186 -80.5 -277.5t-232.5 -93.5v-727h-152l-10 111q-70 -57 -166 -94t-211 -37q-174 0 -263 96t-89 280zM377 1413h151l146 -344h-135z" />
<glyph unicode="&#x1eec;" horiz-adv-x="1587" d="M133 483v836h168v-838q0 -180 101.5 -269t285.5 -89q182 0 283.5 89t101.5 269v838h168v-154q119 2 160 54.5t41 189.5h145q0 -209 -86 -291t-260 -84v-551q0 -246 -142.5 -374.5t-410.5 -128.5q-270 0 -412.5 129t-142.5 374zM526 1753v105q31 12 80 19t94 7 q121 0 184.5 -49t63.5 -137q0 -82 -40 -129t-142 -62v-98h-135v170q121 6 155.5 29.5t34.5 77.5q0 51 -39 71.5t-120 20.5q-33 0 -71 -7.5t-65 -17.5z" />
<glyph unicode="&#x1eed;" horiz-adv-x="1398" d="M133 356v615h168v-621q0 -121 60.5 -178t187.5 -57q90 0 170 32.5t137 90.5v733h168v-121q100 8 134 64.5t34 183.5h145q0 -186 -80.5 -277.5t-232.5 -93.5v-727h-152l-10 111q-70 -57 -166 -94t-211 -37q-174 0 -263 96t-89 280zM416 1413v105q31 12 80 19t94 7 q121 0 184.5 -49t63.5 -137q0 -82 -40 -129t-143 -62v-98h-135v170q121 6 156 29.5t35 77.5q0 51 -39 71.5t-121 20.5q-33 0 -71 -7.5t-64 -17.5z" />
<glyph unicode="&#x1eee;" horiz-adv-x="1587" d="M133 483v836h168v-838q0 -180 101.5 -269t285.5 -89q182 0 283.5 89t101.5 269v838h168v-154q119 2 160 54.5t41 189.5h145q0 -209 -86 -291t-260 -84v-551q0 -246 -142.5 -374.5t-410.5 -128.5q-270 0 -412.5 129t-142.5 374zM373 1454v129q25 29 74 45.5t96 16.5 q57 0 105 -19.5t94 -39t96 -19.5q104 0 157 73v-131q-20 -27 -62 -44t-95 -17t-104.5 19.5t-98.5 39t-92 19.5q-49 0 -92 -15.5t-78 -56.5z" />
<glyph unicode="&#x1eef;" horiz-adv-x="1398" d="M133 356v615h168v-621q0 -121 60.5 -178t187.5 -57q90 0 170 32.5t137 90.5v733h168v-121q100 8 134 64.5t34 183.5h145q0 -186 -80.5 -277.5t-232.5 -93.5v-727h-152l-10 111q-70 -57 -166 -94t-211 -37q-174 0 -263 96t-89 280zM287 1114v129q25 29 74 45.5t96 16.5 q57 0 105 -19.5t94 -39t96 -19.5q104 0 157 73v-131q-20 -27 -62 -44t-95 -17t-104.5 19.5t-98.5 39t-92 19.5q-49 0 -92 -15.5t-78 -56.5z" />
<glyph unicode="&#x1ef0;" horiz-adv-x="1587" d="M133 483v836h168v-838q0 -180 101.5 -269t285.5 -89q182 0 283.5 89t101.5 269v838h168v-154q119 2 160 54.5t41 189.5h145q0 -209 -86 -291t-260 -84v-551q0 -246 -142.5 -374.5t-410.5 -128.5q-270 0 -412.5 129t-142.5 374zM600 -178h164v-158h-164v158z" />
<glyph unicode="&#x1ef1;" horiz-adv-x="1398" d="M133 356v615h168v-621q0 -121 60.5 -178t187.5 -57q90 0 170 32.5t137 90.5v733h168v-121q100 8 134 64.5t34 183.5h145q0 -186 -80.5 -277.5t-232.5 -93.5v-727h-152l-10 111q-70 -57 -166 -94t-211 -37q-174 0 -263 96t-89 280zM494 -178h163v-158h-163v158z" />
<glyph unicode="&#x1ef2;" horiz-adv-x="1314" d="M102 1319h174l381 -684l381 684h174l-471 -827v-492h-168v492zM455 1753h151l146 -344h-136z" />
<glyph unicode="&#x1ef3;" horiz-adv-x="1196" d="M102 971h174l338 -783l349 783h172l-408 -928q-51 -117 -104.5 -208t-123 -143t-173.5 -52q-96 0 -168 26v135q35 -12 64.5 -16t60.5 -4q70 0 109.5 24.5t70.5 74.5t67 130zM399 1413h152l145 -344h-135z" />
<glyph unicode="&#x1ef4;" horiz-adv-x="1314" d="M102 1319h174l381 -684l381 684h174l-471 -827v-492h-168v492zM575 -147h164v-158h-164v158z" />
<glyph unicode="&#x1ef5;" horiz-adv-x="1196" d="M102 971h174l338 -783l349 783h172l-408 -928q-51 -117 -104.5 -208t-123 -143t-173.5 -52q-96 0 -168 26v135q35 -12 64.5 -16t60.5 -4q70 0 109.5 24.5t70.5 74.5t67 130zM797 -147h164v-158h-164v158z" />
<glyph unicode="&#x1ef6;" horiz-adv-x="1314" d="M102 1319h174l381 -684l381 684h174l-471 -827v-492h-168v492zM467 1753v105q31 12 80 19t94 7q121 0 184.5 -49t63.5 -137q0 -82 -40 -129t-142 -62v-98h-136v170q121 6 156 29.5t35 77.5q0 51 -39 71.5t-121 20.5q-33 0 -70.5 -7.5t-64.5 -17.5z" />
<glyph unicode="&#x1ef7;" horiz-adv-x="1196" d="M102 971h174l338 -783l349 783h172l-408 -928q-51 -117 -104.5 -208t-123 -143t-173.5 -52q-96 0 -168 26v135q35 -12 64.5 -16t60.5 -4q70 0 109.5 24.5t70.5 74.5t67 130zM446 1413v105q31 12 80 19t95 7q121 0 184 -49t63 -137q0 -82 -40 -129t-142 -62v-98h-135v170 q121 6 155.5 29.5t34.5 77.5q0 51 -38.5 71.5t-120.5 20.5q-33 0 -71 -7.5t-65 -17.5z" />
<glyph unicode="&#x1ef8;" horiz-adv-x="1314" d="M102 1319h174l381 -684l381 684h174l-471 -827v-492h-168v492zM346 1456v129q25 29 74 45.5t96 16.5q57 0 105.5 -19.5t94.5 -39t95 -19.5q104 0 158 73v-131q-20 -27 -62.5 -44t-95.5 -17t-104.5 19.5t-98.5 39t-92 19.5q-49 0 -92 -15.5t-78 -56.5z" />
<glyph unicode="&#x1ef9;" horiz-adv-x="1196" d="M102 971h174l338 -783l349 783h172l-408 -928q-51 -117 -104.5 -208t-123 -143t-173.5 -52q-96 0 -168 26v135q35 -12 64.5 -16t60.5 -4q70 0 109.5 24.5t70.5 74.5t67 130zM303 1116v129q25 29 74 45.5t96 16.5q57 0 105.5 -19.5t94.5 -39t95 -19.5q104 0 158 74v-132 q-20 -27 -62.5 -44t-95.5 -17t-104.5 19.5t-98.5 39t-92 19.5q-49 0 -92 -15.5t-78 -56.5z" />
<glyph unicode="&#x2000;" horiz-adv-x="1061" />
<glyph unicode="&#x2001;" horiz-adv-x="2122" />
<glyph unicode="&#x2002;" horiz-adv-x="1061" />
<glyph unicode="&#x2003;" horiz-adv-x="2122" />
<glyph unicode="&#x2004;" horiz-adv-x="707" />
<glyph unicode="&#x2005;" horiz-adv-x="530" />
<glyph unicode="&#x2006;" horiz-adv-x="353" />
<glyph unicode="&#x2007;" horiz-adv-x="1325" />
<glyph unicode="&#x2008;" horiz-adv-x="265" />
<glyph unicode="&#x2009;" horiz-adv-x="424" />
<glyph unicode="&#x200a;" horiz-adv-x="117" />
<glyph unicode="&#x2010;" horiz-adv-x="1044" d="M102 483v133h840v-133h-840z" />
<glyph unicode="&#x2011;" horiz-adv-x="976" d="M102 483v133h772v-133h-772z" />
<glyph unicode="&#x2012;" horiz-adv-x="1255" d="M102 483v133h1051v-133h-1051z" />
<glyph unicode="&#x2013;" horiz-adv-x="1198" d="M102 483v133h994v-133h-994z" />
<glyph unicode="&#x2014;" horiz-adv-x="1796" d="M102 483v133h1592v-133h-1592z" />
<glyph unicode="&#x2015;" horiz-adv-x="1892" d="M102 483v133h1688v-133h-1688z" />
<glyph unicode="&#x2018;" horiz-adv-x="458" d="M102 965l127 374h127l-100 -374h-154z" />
<glyph unicode="&#x2019;" horiz-adv-x="458" d="M102 965l101 374h153l-127 -374h-127z" />
<glyph unicode="&#x201a;" horiz-adv-x="458" d="M102 -307l101 375h153l-127 -375h-127z" />
<glyph unicode="&#x201c;" horiz-adv-x="727" d="M102 965l127 374h117l-100 -374h-144zM383 965l127 374h115l-101 -374h-141z" />
<glyph unicode="&#x201d;" horiz-adv-x="727" d="M102 965l103 374h141l-127 -374h-117zM383 965l100 374h142l-127 -374h-115z" />
<glyph unicode="&#x201e;" horiz-adv-x="727" d="M102 -244l103 375h141l-127 -375h-117zM383 -244l100 375h142l-127 -375h-115z" />
<glyph unicode="&#x2020;" horiz-adv-x="1136" d="M102 883v131l392 -4l-9 424h170l-8 -424l387 4v-131l-387 4l6 -887h-166l7 887z" />
<glyph unicode="&#x2021;" horiz-adv-x="1136" d="M102 399v129l392 -4l-9 193l9 190l-392 -2v129l392 -4l-9 404h170l-8 -404l387 4v-129l-387 2l8 -190l-8 -193l387 4v-129l-387 2l6 -401h-166l7 401z" />
<glyph unicode="&#x2022;" horiz-adv-x="694" d="M102 588q0 68 33 124t88.5 89t122.5 33q70 0 125 -33t88 -89.5t33 -123.5q0 -102 -72 -173t-174 -71q-68 0 -123 33t-88 88t-33 123z" />
<glyph unicode="&#x2026;" horiz-adv-x="1140" d="M102 0v137h148v-137h-148zM498 0v137h145v-137h-145zM893 0v137h145v-137h-145z" />
<glyph unicode="&#x202f;" horiz-adv-x="424" />
<glyph unicode="&#x2030;" horiz-adv-x="2095" d="M102 1030q0 143 70 226t213 83q141 0 211 -82.5t70 -226.5q0 -125 -70 -203.5t-211 -78.5q-143 0 -213 78.5t-70 203.5zM221 1032q0 -82 38 -127t126 -45q90 0 127 45t37 127q0 102 -39 147.5t-125 45.5t-125 -45t-39 -148zM299 0l700 1319h158l-700 -1319h-158zM795 262 q0 143 69.5 226t212.5 83q141 0 211 -82.5t70 -226.5q0 -125 -70 -203.5t-211 -78.5q-143 0 -212.5 78.5t-69.5 203.5zM913 264q0 -82 38 -127t126 -45q90 0 127 45t37 127q0 102 -39 147.5t-125 45.5t-125 -45t-39 -148zM1430 262q0 143 69.5 226t212.5 83q141 0 211 -82.5 t70 -226.5q0 -125 -70 -203.5t-211 -78.5q-143 0 -212.5 78.5t-69.5 203.5zM1548 264q0 -82 38 -127t126 -45q90 0 127 45t37 127q0 102 -39 147.5t-125 45.5t-125 -45t-39 -148z" />
<glyph unicode="&#x2032;" horiz-adv-x="356" d="M102 956v363h152l-27 -363h-125z" />
<glyph unicode="&#x2033;" horiz-adv-x="657" d="M102 956v363h152l-27 -363h-125zM403 956v363h152l-27 -363h-125z" />
<glyph unicode="&#x2039;" horiz-adv-x="792" d="M102 547v80l521 383l67 -99l-436 -325l436 -324l-67 -98z" />
<glyph unicode="&#x203a;" horiz-adv-x="792" d="M102 262l437 324l-437 325l68 99l520 -383v-80l-520 -383z" />
<glyph unicode="&#x2044;" horiz-adv-x="282" d="M-266 0l647 1356h168l-645 -1356h-170z" />
<glyph unicode="&#x205f;" horiz-adv-x="530" />
<glyph unicode="&#x2070;" horiz-adv-x="737" d="M102 1028q0 145 61.5 228t205.5 83q145 0 205.5 -82.5t60.5 -228.5q0 -131 -63.5 -209t-202.5 -78q-135 0 -201 78t-66 209zM219 1028q0 -88 33 -139t117 -51q86 0 117.5 51t31.5 139q0 106 -29.5 160.5t-119.5 54.5q-88 0 -119 -54t-31 -161z" />
<glyph unicode="&#x2074;" horiz-adv-x="610" d="M61 877v88l293 374h131v-374h64v-88h-64v-119h-116v119h-308zM176 967h215v278z" />
<glyph unicode="&#x2075;" horiz-adv-x="620" d="M102 764v98q33 -14 71 -19t75 -5q78 0 113.5 18t35.5 72q0 53 -26.5 71.5t-102.5 18.5h-164v82l15 219h358l-6 -96h-250l-6 -119h98q109 0 157 -46t48 -132q0 -82 -62.5 -133.5t-189.5 -51.5q-43 0 -89 6.5t-75 16.5z" />
<glyph unicode="&#x2076;" horiz-adv-x="661" d="M102 963v135q0 115 69 178t185 63q86 0 148 -20v-94q-51 18 -142 18q-156 0 -155 -129v-37q35 29 73.5 40t77.5 11q111 0 156 -48t45 -144q0 -88 -53 -141.5t-170 -53.5q-109 0 -171.5 53.5t-62.5 168.5zM207 944q0 -59 29.5 -86t97.5 -27q66 0 91.5 26t25.5 79 q0 55 -21.5 78.5t-93.5 23.5q-35 0 -67.5 -13t-61.5 -36v-45z" />
<glyph unicode="&#x2077;" horiz-adv-x="591" d="M82 1221v98h428v-90l-201 -471h-125l197 463h-299z" />
<glyph unicode="&#x2078;" horiz-adv-x="677" d="M102 903q0 104 103 144q-49 23 -67.5 56.5t-18.5 76.5q0 72 59.5 115.5t161.5 43.5t160.5 -44t58.5 -115q0 -43 -17.5 -78t-72.5 -62q61 -20 83.5 -55t22.5 -82q0 -78 -65.5 -120t-169.5 -42t-171 42t-67 120zM217 907q0 -86 123 -86q57 0 90 21.5t33 62.5 q0 37 -19.5 55.5t-72.5 30.5l-62 15q-45 -14 -68.5 -33t-23.5 -66zM229 1178q0 -33 15.5 -54.5t56.5 -31.5l61 -13q53 16 70 36t17 63q0 41 -30 60t-79 19q-51 0 -81 -19t-30 -60z" />
<glyph unicode="&#x2079;" horiz-adv-x="661" d="M102 1145q0 90 53.5 142t170.5 52q109 0 171 -53t62 -168v-135q0 -113 -68.5 -177.5t-185.5 -64.5q-86 0 -147 21v94q53 -18 141 -18q156 0 156 129v37q-35 -27 -74 -39.5t-78 -12.5q-111 0 -156 49.5t-45 143.5zM211 1145q0 -55 22.5 -79t92.5 -24q35 0 68.5 14.5 t60.5 35.5v45q0 59 -30 85.5t-97 26.5q-66 0 -91.5 -25.5t-25.5 -78.5z" />
<glyph unicode="&#x207d;" horiz-adv-x="448" d="M102 1053q0 86 29 179t86 152h129q-68 -68 -97.5 -154.5t-29.5 -176.5t30 -178.5t97 -153.5h-129q-57 59 -86 152.5t-29 179.5z" />
<glyph unicode="&#x207e;" horiz-adv-x="448" d="M102 721q70 66 99.5 154t29.5 178t-29.5 177t-99.5 154h129q59 -59 87 -152t28 -179t-27.5 -179.5t-87.5 -152.5h-129z" />
<glyph unicode="&#x207f;" horiz-adv-x="741" d="M113 791v536h106l4 -59q43 33 94.5 51t120.5 18q92 0 146.5 -47t54.5 -145v-354h-113v329q0 72 -26.5 99.5t-102.5 27.5q-49 0 -94 -20.5t-76 -50.5v-385h-114z" />
<glyph unicode="&#x2080;" horiz-adv-x="737" d="M102 25q0 145 61.5 228t205.5 83q145 0 205.5 -83t60.5 -228q0 -131 -63.5 -209t-202.5 -78q-135 0 -201 78t-66 209zM219 25q0 -88 33 -139.5t117 -51.5q86 0 117.5 51.5t31.5 139.5q0 106 -29.5 160.5t-119.5 54.5q-88 0 -119 -54.5t-31 -160.5z" />
<glyph unicode="&#x2081;" horiz-adv-x="434" d="M102 188v95l271 53v-582h-119v467z" />
<glyph unicode="&#x2082;" horiz-adv-x="614" d="M102 -180q29 49 70 89t92 81q72 59 97.5 95t25.5 77q0 43 -26.5 60.5t-92.5 17.5q-35 0 -73.5 -8.5t-73.5 -20.5v96q29 10 78 19.5t102 9.5q100 0 153.5 -51.5t53.5 -122.5q0 -61 -27.5 -99t-89.5 -96q-37 -35 -66.5 -57.5t-58.5 -59.5h246v-96h-410v66z" />
<glyph unicode="&#x2083;" horiz-adv-x="620" d="M102 -145q68 -27 146 -27q80 0 112.5 19.5t32.5 66.5q0 84 -133 84h-76l6 84h64q66 0 96.5 20.5t30.5 67.5q0 41 -32 57.5t-99 16.5q-35 0 -71 -7.5t-66 -17.5v92q27 10 72.5 17.5t90.5 7.5q127 0 178.5 -44t51.5 -116q0 -45 -21.5 -83t-70.5 -54q57 -12 80.5 -47 t23.5 -82q0 -172 -246 -172q-45 0 -94 7t-76 17v93z" />
<glyph unicode="&#x2084;" horiz-adv-x="610" d="M61 -39l293 375h131v-375h64v-88h-64v-119h-116v119h-308v88zM176 -37h215v279z" />
<glyph unicode="&#x2085;" horiz-adv-x="620" d="M102 -141q33 -14 71 -19.5t75 -5.5q78 0 113.5 18.5t35.5 71.5t-26.5 71.5t-102.5 18.5h-164v82l15 219h358l-6 -96h-250l-6 -119h98q109 0 157 -46t48 -132q0 -82 -62.5 -133t-189.5 -51q-43 0 -89 6t-75 16v99z" />
<glyph unicode="&#x2086;" horiz-adv-x="661" d="M102 -41v135q0 115 69 178.5t185 63.5q86 0 148 -21v-94q-51 18 -142 19q-156 0 -155 -129v-37q35 29 73.5 40t77.5 11q111 0 156 -48t45 -145q0 -88 -53 -141t-170 -53q-109 0 -171.5 53t-62.5 168zM207 -14v-45q0 -59 29.5 -86t97.5 -27q66 0 91.5 25.5t25.5 78.5 q0 55 -21.5 79t-93.5 24q-35 0 -67.5 -13.5t-61.5 -35.5z" />
<glyph unicode="&#x2087;" horiz-adv-x="591" d="M82 217v98h428v-90l-201 -471h-125l197 463h-299z" />
<glyph unicode="&#x2088;" horiz-adv-x="677" d="M102 -100q0 104 103 143q-49 23 -67.5 56.5t-18.5 76.5q0 72 59.5 116t161.5 44t160.5 -44t58.5 -116q0 -43 -17.5 -78t-72.5 -61q61 -20 83.5 -55t22.5 -82q0 -78 -65.5 -120t-169.5 -42t-171 42t-67 120zM217 -96q0 -86 123 -86q57 0 90 21.5t33 62.5q0 37 -19.5 55 t-72.5 31l-62 14q-45 -14 -68.5 -32.5t-23.5 -65.5zM229 174q0 -33 15.5 -54.5t56.5 -31.5l61 -12q53 16 70 35.5t17 62.5q0 41 -30 60.5t-79 19.5q-51 0 -81 -19.5t-30 -60.5z" />
<glyph unicode="&#x2089;" horiz-adv-x="661" d="M102 141q0 90 53.5 142.5t170.5 52.5q109 0 171 -53.5t62 -167.5v-135q0 -113 -68.5 -177.5t-185.5 -64.5q-86 0 -147 20v95q53 -18 141 -19q156 0 156 129v37q-35 -27 -74 -39t-78 -12q-111 0 -156 49t-45 143zM211 141q0 -55 22.5 -78.5t92.5 -23.5q35 0 68.5 14.5 t60.5 34.5v45q0 59 -30 86t-97 27q-66 0 -91.5 -25.5t-25.5 -79.5z" />
<glyph unicode="&#x208d;" horiz-adv-x="448" d="M102 33q0 86 29 179t86 153h129q-68 -68 -97.5 -155t-29.5 -177t30 -178t97 -154h-129q-57 59 -86 152.5t-29 179.5z" />
<glyph unicode="&#x208e;" horiz-adv-x="448" d="M102 -299q68 66 97.5 154t29.5 178t-29.5 177t-97.5 155h129q57 -59 86 -152.5t29 -179.5t-28.5 -179.5t-86.5 -152.5h-129z" />
<glyph unicode="&#x20a1;" horiz-adv-x="1218" d="M102 631q0 260 117 421.5t375 194.5l33 127h141l-31 -117q33 0 62.5 -2t58.5 -4l31 123h141l-37 -143q33 -6 63.5 -15.5t59.5 -19.5v-147q-37 14 -77 25t-81 20l-227 -889h21q92 0 187 14t177 45v-149q-80 -25 -173 -39.5t-208 -14.5h-41l-30 -124h-140l35 139 q-57 8 -115 28l-43 -167h-139l57 229q-109 72 -163 190.5t-54 274.5zM270 631q0 -197 92 -297l193 758q-156 -41 -220.5 -159t-64.5 -302zM481 250q25 -10 53.5 -18.5t59.5 -14.5l227 895q-18 2 -36.5 2h-36.5h-23.5t-24.5 -2z" />
<glyph unicode="&#x20a4;" horiz-adv-x="1030" d="M102 0v133h54q63 0 91.5 39t28.5 107v114h-143v133h143v152h-143v133h143v207q0 154 99.5 237.5t249.5 83.5q143 0 227 -39v-129q-29 16 -80 24.5t-98 8.5q-113 0 -171.5 -43t-58.5 -151v-199h406l-6 -133h-400v-152h406l-6 -133h-400v-106q0 -51 -11 -90t-44 -64h539 v-133h-826z" />
<glyph unicode="&#x20a6;" horiz-adv-x="1335" d="M102 414v137h119v182h-119v135h119v451h154l246 -451h327v451h168v-451h117v-135h-117v-182h117v-137h-117v-414h-153l-228 414h-346v-414h-168v414h-119zM389 551h273l-101 182h-172v-182zM389 868h98l-98 183v-183zM694 733l99 -182h155v182h-254zM868 414l80 -148v148 h-80z" />
<glyph unicode="&#x20a7;" horiz-adv-x="2357" d="M143 0v1319h363q221 0 325.5 -119t104.5 -307q0 -193 -118 -306.5t-320 -113.5h-187v-473h-168zM311 608h164q147 0 223 77t76 208q0 139 -71.5 215t-217.5 76h-174v-576zM909 551v129h135v250l166 41v-291h271l-6 -129h-265v-275q0 -84 43 -129t138 -45q27 0 55.5 5.5 t60.5 17.5v-117q-39 -14 -81 -21t-95 -7q-141 0 -214 76.5t-73 213.5v281h-135zM1524 725q0 129 90 197.5t291 68.5q78 0 149.5 -11t124.5 -28v-139q-57 23 -122.5 33t-125.5 10q-127 0 -183 -29.5t-56 -99.5q0 -47 25.5 -74.5t79.5 -47t140 -48.5q113 -35 182.5 -71.5 t102.5 -90t33 -139.5q0 -143 -100.5 -209.5t-284.5 -66.5q-94 0 -179 12t-143 33v141q70 -25 147 -37t152 -12q129 0 184.5 30.5t55.5 106.5q0 55 -29.5 84t-90 51.5t-155.5 52.5q-84 29 -149.5 59.5t-102 83t-36.5 140.5z" />
<glyph unicode="&#x20ab;" horiz-adv-x="1218" d="M102 483q0 262 118 385t323 123q190 0 323 -92v215h-354v133h354v133h168v-133h123v-133h-123v-1114h-143l-12 102q-68 -63 -148.5 -92.5t-189.5 -29.5q-205 0 -322 119.5t-117 383.5zM209 -113h854v-133h-854v133zM270 483q0 -190 72 -279t242 -89q84 0 155.5 28.5 t126.5 87.5v529q-51 45 -120.5 70.5t-157.5 25.5q-162 0 -240 -87t-78 -286z" />
<glyph unicode="&#x20ac;" horiz-adv-x="1216" d="M82 399v117h135q-2 27 -3 54.5t-1 56.5v55.5t2 52.5h-133v117h145q23 150 85.5 258.5t177 168.5t292.5 60q115 0 193 -16t160 -45v-145q-82 33 -159 48t-181 15q-197 0 -286 -90t-114 -254h498v-117h-510q-2 -27 -2 -53.5v-54.5q0 -29 1 -56.5t3 -54.5h508v-117h-490 q33 -137 126.5 -206.5t271.5 -69.5q96 0 174 13.5t160 41.5v-145q-82 -25 -159 -39t-192 -14q-248 0 -379 113.5t-172 305.5h-151z" />
<glyph unicode="&#x20b1;" horiz-adv-x="1236" d="M61 705v129h74v124h-74v129h74v232h527q158 0 256 -62.5t139 -169.5h119v-129h-89q2 -16 3.5 -32.5t1.5 -32.5q0 -14 -1 -29.5t-4 -29.5h89v-129h-121q-47 -106 -151.5 -167t-250.5 -61h-350v-477h-168v705h-74zM303 608h324q162 0 239 97h-563v-97zM303 834h615 q6 29 6 59q0 16 -1 33.5t-3 31.5h-617v-124zM303 1087h567q-74 98 -233 99h-334v-99z" />
<glyph unicode="&#x20b2;" horiz-adv-x="1308" d="M102 631q0 203 57.5 355.5t179.5 243.5t318 105v170h131v-168q96 -2 176 -18t152 -41v-148q-74 29 -155.5 45.5t-172.5 18.5v-483h418v-627q-55 -35 -156.5 -66.5t-261.5 -35.5v-228h-131v230q-281 23 -418 196.5t-137 450.5zM270 631q0 -221 92 -351t295 -153v1063 q-215 -25 -301 -172.5t-86 -386.5zM788 123q76 4 147 18.5t126 34.5v420h-273v-473z" />
<glyph unicode="&#x20b5;" horiz-adv-x="1218" d="M102 631q0 203 57.5 355.5t179.5 243.5t318 105v170h131v-168q96 -2 176 -18t152 -41v-148q-74 29 -155.5 45.5t-172.5 18.5v-1071q84 2 169 17.5t159 41.5v-149q-70 -20 -150.5 -33.5t-177.5 -17.5v-228h-131v230q-281 23 -418 196.5t-137 450.5zM270 631 q0 -219 93 -349t294 -155v1063q-215 -25 -301 -172.5t-86 -386.5z" />
<glyph unicode="&#x20b9;" horiz-adv-x="919" d="M102 528v117h101q92 0 163.5 21.5t114.5 76t45 152.5h-422v117h418q-18 100 -95 144t-191 44h-134v119h715v-119h-250q100 -59 121 -188h129v-117h-125q-4 -147 -88 -227t-229 -107q39 -23 59.5 -42t34.5 -43.5t31 -65.5l172 -410h-172l-168 397q-29 72 -74 101.5 t-156 29.5z" />
<glyph unicode="&#x20ba;" horiz-adv-x="1185" d="M102 557v121l189 61v152l-189 -62v121l189 62v307h168v-254l399 133v-121l-399 -131v-153l399 133v-121l-399 -131v-543q238 4 347 122t109 351v64h168v-72q0 -291 -167.5 -443.5t-487.5 -152.5h-137v618z" />
<glyph unicode="&#x20bd;" horiz-adv-x="1306" d="M102 221v131h125v154h-125v131h125v682h547q221 0 325.5 -110.5t104.5 -299.5q0 -193 -119.5 -298t-322.5 -105h-367v-154h277v-131h-277v-221h-168v221h-125zM395 637h344q297 0 297 266q0 283 -286 283h-355v-549z" />
<glyph unicode="&#x210a;" horiz-adv-x="1177" d="M102 494q0 264 117 380.5t322 116.5q109 0 189.5 -29.5t148.5 -93.5l12 103h143v-953q0 -170 -125 -274t-350 -104q-33 0 -80 3t-92 7t-72 10v143q45 -14 109.5 -19t105.5 -5q152 0 244 50t92 167v96q-133 -92 -323 -92q-205 0 -323 115.5t-118 378.5zM270 494 q0 -199 78 -279t240 -80q88 0 157.5 25.5t120.5 70.5v508q-55 59 -126.5 88t-155.5 29q-170 0 -242 -86t-72 -276z" />
<glyph unicode="&#x2113;" horiz-adv-x="806" d="M61 604v133q90 20 158 60v381q0 176 61.5 267t211.5 91q90 0 145 -42t80.5 -110.5t25.5 -152.5q0 -129 -47 -223.5t-128 -164t-185 -128.5v-449q0 -76 25.5 -119t89.5 -43q68 0 93 37t25 117h129q0 -78 -20 -141.5t-76 -100t-160 -36.5t-162.5 40.5t-83 112.5t-24.5 162 v362q-27 -10 -67.5 -25.5t-90.5 -27.5zM365 860q125 76 184 159t59 202q0 72 -24.5 128t-96.5 56q-70 0 -96 -48t-26 -140v-357z" />
<glyph unicode="&#x2117;" horiz-adv-x="1564" d="M102 659q0 141 53.5 264.5t146.5 216.5t216 146t264 53t264 -53t216.5 -146t146.5 -216t53 -265q0 -141 -53 -264t-146.5 -216t-216.5 -146t-264 -53t-264 53t-216 146t-146.5 216t-53.5 264zM231 659q0 -162 72 -287.5t196.5 -197.5t282.5 -72q160 0 285 72t196.5 198 t71.5 287q0 162 -71.5 287t-196.5 196.5t-285 71.5q-158 0 -282.5 -71.5t-196.5 -196.5t-72 -287zM502 215v879h405q139 0 217 -75t78 -196q0 -80 -36 -147.5t-101.5 -108.5t-157.5 -41h-278v-311h-127zM629 639h227q104 0 162.5 37t58.5 147q0 96 -46 127t-140 31h-262 v-342z" />
<glyph unicode="&#x2120;" horiz-adv-x="1323" d="M102 1180q0 78 54.5 118.5t173.5 40.5q45 0 90 -6t78 -16v-94q-74 25 -146 24q-70 0 -102.5 -15t-32.5 -52q0 -35 28.5 -53.5t102.5 -43.5q80 -27 135.5 -63.5t55.5 -120.5q0 -92 -69 -127t-161 -35q-57 0 -106 7.5t-84 17.5v94q41 -14 86 -21.5t90 -7.5q63 0 97 14.5 t34 57.5q0 41 -30.5 57.5t-104.5 42.5q-90 33 -139.5 69t-49.5 112zM602 741v578h117l194 -371l193 371h115v-578h-117v385l-166 -342h-49l-170 342v-385h-117z" />
<glyph unicode="&#x2122;" horiz-adv-x="1396" d="M102 1210v109h525v-109h-201v-469h-121v469h-203zM676 741v578h117l194 -371l193 371h114v-578h-116v385l-166 -342h-49l-170 342v-385h-117z" />
<glyph unicode="&#x2126;" horiz-adv-x="1574" d="M102 743q0 195 82 348.5t235.5 242.5t368.5 89t368 -89t235 -242.5t82 -348.5q0 -213 -93.5 -366.5t-244.5 -245.5h323v-131h-538v133q195 106 290 261t95 349q0 160 -64.5 281t-180.5 188.5t-272 67.5q-154 0 -270.5 -67.5t-182 -188.5t-65.5 -281q0 -195 96.5 -349 t290.5 -261v-133h-540v131h325q-150 94 -245 246.5t-95 365.5z" />
<glyph unicode="&#x212e;" horiz-adv-x="1603" d="M102 668q0 170 56.5 299t155 217t224.5 132t265 44t264 -47t223.5 -135t154.5 -209t56 -267v-34h-1110v-457q55 -72 176 -122t258 -50q123 0 214 22.5t165 78t144 151.5h75q-113 -180 -255 -248t-343 -68q-152 0 -283.5 53.5t-230 147.5t-154 220t-55.5 272zM391 731h826 v422q-59 61 -167 103t-247 42q-262 0 -412 -143v-424z" />
<glyph unicode="&#x2153;" horiz-adv-x="1308" d="M102 1192v94l271 53v-581h-119v467zM205 0l700 1319h158l-701 -1319h-157zM791 6v92q68 -27 145 -26q80 0 112.5 19.5t32.5 66.5q0 84 -133 84h-76l7 84h63q66 0 96.5 20.5t30.5 67.5q0 41 -31.5 57t-99.5 16q-35 0 -71 -7t-66 -17v92q27 10 73 17.5t91 7.5 q127 0 178 -44t51 -116q0 -45 -21.5 -83t-70.5 -54q57 -12 80.5 -47t23.5 -82q1 -172 -245 -172q-45 0 -94.5 7t-75.5 17z" />
<glyph unicode="&#x2154;" horiz-adv-x="1325" d="M102 758v65q29 49 70 89t92 81q72 59 97.5 95t25.5 77q0 43 -26.5 60.5t-92.5 17.5q-35 0 -73.5 -8t-73.5 -21v97q29 10 78 19t102 9q100 0 153.5 -51t53.5 -123q0 -61 -27.5 -99t-89.5 -95q-37 -35 -66.5 -57.5t-58.5 -59.5h246v-96h-410zM221 0l701 1319h159 l-702 -1319h-158zM807 6v92q68 -27 145 -26q80 0 113 19.5t33 66.5q0 84 -133 84h-76l6 84h63q66 0 96.5 20.5t30.5 67.5q0 41 -31.5 57t-99.5 16q-35 0 -70.5 -7t-66.5 -17v92q27 10 73 17.5t91 7.5q127 0 178 -44t51 -116q0 -45 -21.5 -83t-70.5 -54q57 -12 81 -47t24 -82 q0 -172 -246 -172q-45 0 -94 7t-76 17z" />
<glyph unicode="&#x215b;" horiz-adv-x="1320" d="M102 1192v94l271 53v-581h-119v467zM205 0l700 1319h158l-701 -1319h-157zM745 141q0 104 103 144q-49 23 -67.5 56.5t-18.5 76.5q0 72 59.5 116t161.5 44t160.5 -44.5t58.5 -115.5q0 -43 -17.5 -78t-72.5 -61q61 -20 84 -55.5t23 -82.5q0 -78 -66 -119.5t-170 -41.5 t-171 41.5t-67 119.5zM860 145q0 -86 123 -86q57 0 90 21.5t33 62.5q0 37 -19.5 55.5t-72.5 30.5l-62 15q-45 -14 -68.5 -32.5t-23.5 -66.5zM872 416q0 -33 15.5 -54.5t56.5 -31.5l62 -13q53 16 69.5 36t16.5 63q0 41 -30 60.5t-79 19.5q-51 0 -81 -19.5t-30 -60.5z" />
<glyph unicode="&#x215c;" horiz-adv-x="1320" d="M102 766v92q68 -27 146 -27q80 0 112.5 19.5t32.5 67.5q0 84 -133 83h-76l6 84h64q66 0 96.5 20.5t30.5 68.5q0 41 -32 57t-99 16q-35 0 -71 -7t-66 -17v92q27 10 72.5 17t90.5 7q127 0 178.5 -44t51.5 -115q0 -45 -21.5 -83t-70.5 -55q57 -12 80.5 -46.5t23.5 -82.5 q0 -172 -246 -172q-45 0 -94 7.5t-76 17.5zM207 0l700 1319h158l-700 -1319h-158zM745 141q0 104 103 144q-49 23 -67.5 56.5t-18.5 76.5q0 72 59.5 116t161.5 44t160.5 -44.5t58.5 -115.5q0 -43 -17.5 -78t-72.5 -61q61 -20 84 -55.5t23 -82.5q0 -78 -66 -119.5t-170 -41.5 t-171 41.5t-67 119.5zM860 145q0 -86 123 -86q57 0 90 21.5t33 62.5q0 37 -19.5 55.5t-72.5 30.5l-62 15q-45 -14 -68.5 -32.5t-23.5 -66.5zM872 416q0 -33 15.5 -54.5t56.5 -31.5l62 -13q53 16 69.5 36t16.5 63q0 41 -30 60.5t-79 19.5q-51 0 -81 -19.5t-30 -60.5z" />
<glyph unicode="&#x215d;" horiz-adv-x="1300" d="M102 764v98q33 -14 71 -19t75 -5q78 0 113.5 18t35.5 72q0 53 -26.5 71.5t-102.5 18.5h-164v82l15 219h358l-6 -96h-250l-6 -119h98q109 0 157 -46t48 -132q0 -82 -62.5 -133.5t-189.5 -51.5q-43 0 -89 6.5t-75 16.5zM184 0l701 1319h159l-702 -1319h-158zM725 141 q0 104 102 144q-49 23 -67.5 56.5t-18.5 76.5q0 72 59.5 116t162.5 44q102 0 160.5 -44.5t58.5 -115.5q0 -43 -17.5 -78t-72.5 -61q61 -20 83.5 -55.5t22.5 -82.5q0 -78 -65.5 -119.5t-169.5 -41.5t-171 41.5t-67 119.5zM840 145q0 -86 123 -86q57 0 89.5 21.5t32.5 62.5 q0 37 -19 55.5t-73 30.5l-61 15q-45 -14 -68.5 -32.5t-23.5 -66.5zM852 416q0 -33 15.5 -54.5t56.5 -31.5l61 -13q53 16 69.5 36t16.5 63q0 41 -29.5 60.5t-78.5 19.5q-51 0 -81 -19.5t-30 -60.5z" />
<glyph unicode="&#x215e;" horiz-adv-x="1325" d="M102 1221v98h428v-90l-200 -471h-125l196 463h-299zM209 0l700 1319h160l-702 -1319h-158zM750 141q0 104 102 144q-49 23 -67.5 56.5t-18.5 76.5q0 72 59.5 116t161.5 44t160.5 -44.5t58.5 -115.5q0 -43 -17.5 -78t-72.5 -61q61 -20 84 -55.5t23 -82.5q0 -78 -66 -119.5 t-170 -41.5t-170.5 41.5t-66.5 119.5zM864 145q0 -86 123 -86q57 0 90 21.5t33 62.5q0 37 -19.5 55.5t-72.5 30.5l-62 15q-45 -14 -68.5 -32.5t-23.5 -66.5zM877 416q0 -33 15 -54.5t56 -31.5l62 -13q53 16 69.5 36t16.5 63q0 41 -30 60.5t-79 19.5q-51 0 -80.5 -19.5 t-29.5 -60.5z" />
<glyph unicode="&#x2190;" horiz-adv-x="1597" d="M102 512v68l482 385l57 -78l-352 -283h1206v-117h-1204l350 -282l-57 -78z" />
<glyph unicode="&#x2191;" horiz-adv-x="1042" d="M102 805l385 481h68l385 -481l-78 -55l-282 350v-1204h-117v1204l-283 -350z" />
<glyph unicode="&#x2192;" horiz-adv-x="1597" d="M102 487v117h1207l-353 283l58 78l481 -385v-68l-481 -385l-58 78l351 282h-1205z" />
<glyph unicode="&#x2193;" horiz-adv-x="1042" d="M102 367l78 55l283 -350v1204h117v-1204l282 350l78 -55l-385 -482h-68z" />
<glyph unicode="&#x2202;" horiz-adv-x="1267" d="M117 412q45 207 175 314.5t359 107.5q80 0 171 -28t161 -87l10 51q25 133 13.5 229.5t-76 148.5t-201.5 52q-102 0 -185 -16.5t-153 -44.5l27 143q66 27 151.5 42t180.5 15q248 0 350 -161.5t45 -438.5l-53 -258q-57 -262 -195.5 -381.5t-388.5 -119.5q-236 0 -334 120.5 t-57 311.5zM274 408q-31 -145 24.5 -222t229.5 -77q170 0 266.5 85t129.5 246l32 158q-55 51 -130.5 79t-172.5 28q-176 0 -263 -76t-116 -221z" />
<glyph unicode="&#x220f;" horiz-adv-x="1288" d="M143 -264v1710h1002v-1710h-168v1579h-666v-1579h-168z" />
<glyph unicode="&#x2211;" horiz-adv-x="1095" d="M102 -141l512 678l-512 675v107h891v-133h-680l490 -649l-490 -652h680v-131h-891v105z" />
<glyph unicode="&#x2212;" horiz-adv-x="976" d="M102 483v133h772v-133h-772z" />
<glyph unicode="&#x2215;" horiz-adv-x="1019" d="M102 0l648 1356h168l-646 -1356h-170z" />
<glyph unicode="&#x2219;" horiz-adv-x="356" d="M102 512v141h152v-141h-152z" />
<glyph unicode="&#x221a;" horiz-adv-x="1394" d="M102 780v133h338l246 -714l442 1263h164l-514 -1462h-178l-281 780h-217z" />
<glyph unicode="&#x221e;" horiz-adv-x="1458" d="M102 580q0 150 90.5 223.5t229.5 73.5q102 0 182 -52.5t125 -138.5q47 86 127 138.5t182 52.5q139 0 228.5 -74t89.5 -223q0 -150 -89 -224.5t-229 -74.5q-102 0 -182 52t-127 138q-45 -86 -125 -138t-182 -52q-139 0 -229.5 74.5t-90.5 224.5zM233 580 q0 -86 48.5 -133.5t146.5 -47.5q86 0 141.5 47.5t89.5 133.5q-41 90 -93 134t-138 44q-98 0 -146.5 -47t-48.5 -131zM799 575q43 -86 95 -131t138 -45q98 0 146.5 47.5t48.5 133.5q0 84 -48.5 131t-146.5 47q-86 0 -139 -45t-94 -138z" />
<glyph unicode="&#x222b;" horiz-adv-x="917" d="M61 -94q63 -23 136 -23q104 0 141 38t37 128v1063q0 139 76.5 220t226.5 81q53 0 97 -8t81 -23v-127q-63 23 -135 23q-104 0 -141 -38t-37 -128v-1063q0 -137 -76.5 -219t-226.5 -82q-53 0 -97.5 8t-81.5 23v127z" />
<glyph unicode="&#x2248;" horiz-adv-x="987" d="M102 305v137q37 41 89.5 57.5t113.5 16.5t108.5 -16.5t90.5 -38t87 -37.5t99 -16q61 0 103.5 16t91.5 74v-140q-35 -43 -87.5 -57t-113.5 -14q-57 0 -102 16t-86 37.5t-86 38t-105 16.5q-63 0 -108 -16.5t-95 -73.5zM102 606v137q37 41 89.5 57.5t113.5 16.5t108.5 -16.5 t90.5 -38t87 -37.5t99 -16q61 0 103.5 16t91.5 74v-140q-35 -43 -87.5 -58t-113.5 -15q-57 0 -102 16t-86 38t-86 38t-105 16q-63 0 -108 -16t-95 -72z" />
<glyph unicode="&#x2260;" horiz-adv-x="987" d="M102 344v123h271l59 170h-330v121h373l76 211h158l-76 -211h252v-121h-295l-60 -170h355v-123h-400l-75 -217h-158l76 217h-226z" />
<glyph unicode="&#x2264;" horiz-adv-x="1120" d="M102 0v133h916v-133h-916zM102 614v119l916 414v-146l-739 -327l739 -328v-145z" />
<glyph unicode="&#x2265;" horiz-adv-x="1120" d="M102 0v133h916v-133h-916zM102 201v145l740 328l-740 327v146l916 -414v-119z" />
<glyph unicode="&#x25a0;" horiz-adv-x="1196" d="M102 246v991h992v-991h-992z" />
<glyph unicode="&#x25b2;" horiz-adv-x="1402" d="M102 0l600 1198l598 -1198h-1198z" />
<glyph unicode="&#x25b3;" horiz-adv-x="1402" d="M102 0l600 1198l598 -1198h-1198zM340 145h721l-359 723z" />
<glyph unicode="&#x25b6;" horiz-adv-x="1402" d="M102 0v1198l1198 -598z" />
</font>
</defs>
</svg>
